<mxfile host="app.diagrams.net" modified="2023-06-24T12:55:11.395Z" agent="Mozilla/5.0 (Windows NT 10.0; Win64; x64) AppleWebKit/537.36 (KHTML, like Gecko) Chrome/114.0.0.0 Safari/537.36" etag="Gje6hzGVyTIUm0-nxegN" version="21.5.0" type="github">
  <diagram name="第 1 页" id="JhHIipqr7uCRNzOelNXE">
    <mxGraphModel dx="4284" dy="1780" grid="1" gridSize="10" guides="1" tooltips="1" connect="1" arrows="1" fold="1" page="1" pageScale="1" pageWidth="827" pageHeight="1169" math="0" shadow="0">
      <root>
        <mxCell id="0" />
        <mxCell id="1" parent="0" />
        <mxCell id="nJraD3ANBiAQbve93qyU-1" value="&lt;h1&gt;补偿控制系统-实际上是重复定位误差补偿&lt;/h1&gt;&lt;div&gt;使用的是采集误差，预测补偿，所以需要考虑误差的影响因素，准确预测很重要。察觉到误差再补偿就不能准确预测了&lt;/div&gt;" style="text;html=1;strokeColor=none;fillColor=none;spacing=5;spacingTop=-20;whiteSpace=wrap;overflow=hidden;rounded=0;" vertex="1" parent="1">
          <mxGeometry x="640" y="770" width="200" height="200" as="geometry" />
        </mxCell>
        <mxCell id="nJraD3ANBiAQbve93qyU-4" value="&lt;h1&gt;数据预处理&lt;/h1&gt;&lt;div&gt;对数据进行预处理，筛选掉异常数据，例如：耗材使用错误，喷头堵塞，之后对比错误解决方法库，获得对应的处理方案&lt;/div&gt;" style="text;html=1;strokeColor=none;fillColor=none;spacing=5;spacingTop=-20;whiteSpace=wrap;overflow=hidden;rounded=0;" vertex="1" parent="1">
          <mxGeometry x="300" y="1000" width="190" height="120" as="geometry" />
        </mxCell>
        <mxCell id="nJraD3ANBiAQbve93qyU-19" value="" style="edgeStyle=orthogonalEdgeStyle;rounded=0;orthogonalLoop=1;jettySize=auto;html=1;" edge="1" parent="1" source="nJraD3ANBiAQbve93qyU-12" target="nJraD3ANBiAQbve93qyU-18">
          <mxGeometry relative="1" as="geometry" />
        </mxCell>
        <mxCell id="nJraD3ANBiAQbve93qyU-12" value="误差标定" style="rounded=0;whiteSpace=wrap;html=1;" vertex="1" parent="1">
          <mxGeometry x="50" y="1280" width="120" height="60" as="geometry" />
        </mxCell>
        <mxCell id="nJraD3ANBiAQbve93qyU-13" value="预先补偿" style="rounded=0;whiteSpace=wrap;html=1;" vertex="1" parent="1">
          <mxGeometry x="50" y="1560" width="120" height="60" as="geometry" />
        </mxCell>
        <mxCell id="nJraD3ANBiAQbve93qyU-16" value="" style="edgeStyle=orthogonalEdgeStyle;rounded=0;orthogonalLoop=1;jettySize=auto;html=1;" edge="1" parent="1" source="nJraD3ANBiAQbve93qyU-14" target="nJraD3ANBiAQbve93qyU-13">
          <mxGeometry relative="1" as="geometry" />
        </mxCell>
        <mxCell id="nJraD3ANBiAQbve93qyU-14" value="调用补偿算法" style="rounded=0;whiteSpace=wrap;html=1;" vertex="1" parent="1">
          <mxGeometry x="50" y="1460" width="120" height="60" as="geometry" />
        </mxCell>
        <mxCell id="nJraD3ANBiAQbve93qyU-20" value="" style="edgeStyle=orthogonalEdgeStyle;rounded=0;orthogonalLoop=1;jettySize=auto;html=1;" edge="1" parent="1" source="nJraD3ANBiAQbve93qyU-18" target="nJraD3ANBiAQbve93qyU-14">
          <mxGeometry relative="1" as="geometry" />
        </mxCell>
        <mxCell id="nJraD3ANBiAQbve93qyU-18" value="多个位置测量共同构成（重复）运动位置补偿模型" style="rounded=0;whiteSpace=wrap;html=1;" vertex="1" parent="1">
          <mxGeometry x="50" y="1370" width="120" height="60" as="geometry" />
        </mxCell>
        <mxCell id="nJraD3ANBiAQbve93qyU-133" style="edgeStyle=orthogonalEdgeStyle;rounded=0;orthogonalLoop=1;jettySize=auto;html=1;" edge="1" parent="1" source="nJraD3ANBiAQbve93qyU-21" target="nJraD3ANBiAQbve93qyU-132">
          <mxGeometry relative="1" as="geometry" />
        </mxCell>
        <mxCell id="nJraD3ANBiAQbve93qyU-137" style="edgeStyle=orthogonalEdgeStyle;rounded=0;orthogonalLoop=1;jettySize=auto;html=1;exitX=0.5;exitY=1;exitDx=0;exitDy=0;" edge="1" parent="1" source="nJraD3ANBiAQbve93qyU-21" target="nJraD3ANBiAQbve93qyU-136">
          <mxGeometry relative="1" as="geometry" />
        </mxCell>
        <mxCell id="nJraD3ANBiAQbve93qyU-21" value="&lt;h1&gt;误差标定&lt;/h1&gt;&lt;div&gt;1、目前使用的做法是类似二维图像配准（福大），引入图形以及直接解析函数方法获得工件偏移和初始角度误差&lt;/div&gt;&lt;div&gt;&lt;br&gt;&lt;/div&gt;&lt;div&gt;&lt;br&gt;&lt;/div&gt;" style="text;html=1;strokeColor=none;fillColor=none;spacing=5;spacingTop=-20;whiteSpace=wrap;overflow=hidden;rounded=0;" vertex="1" parent="1">
          <mxGeometry x="440" y="1240" width="410" height="125" as="geometry" />
        </mxCell>
        <mxCell id="nJraD3ANBiAQbve93qyU-23" value="&lt;h1&gt;在机（在线）测量（西工大）&lt;/h1&gt;&lt;div&gt;在机测量是通过在运动平台运动轴加装测头，将承担加工工序的运动平台转化为在机测量的载体。在机测量保证测量过程与加工过程的连续性，是实现自适应加工的关键技术。然而，运动平台作为机内测量的载体，测量过程中运动平台因各机构运动会引入诸多的误差，这些直接影响运动平台的精度，进而导致在机测量精度的可信度一直受到质疑。&lt;/div&gt;&lt;div&gt;ISO标准中给出了定位精度的辨识方法和相关设备，很多学制也对定位误差的辨识和补偿进行了研究。&lt;/div&gt;&lt;div&gt;少有学者深入研究在机测量过程中运动平台的定位误差的积累方式，缺乏依据定位误差分布来进行在机测量误差与优化测量工艺的预测&lt;/div&gt;" style="text;html=1;strokeColor=none;fillColor=none;spacing=5;spacingTop=-20;whiteSpace=wrap;overflow=hidden;rounded=0;" vertex="1" parent="1">
          <mxGeometry x="40" y="2050" width="380" height="220" as="geometry" />
        </mxCell>
        <mxCell id="nJraD3ANBiAQbve93qyU-24" value="&lt;h1&gt;虚拟主轴预测补偿（武汉理工大学）&lt;/h1&gt;&lt;p&gt;在运动控制系统中，有实轴和虚轴之分。实轴是指关联有实际的物理轴，而虚轴是没有实际的物理轴与之关联，虚轴的理论运动代表了电机轴无误差时的运动&lt;/p&gt;" style="text;html=1;strokeColor=none;fillColor=none;spacing=5;spacingTop=-20;whiteSpace=wrap;overflow=hidden;rounded=0;" vertex="1" parent="1">
          <mxGeometry x="470" y="2050" width="390" height="130" as="geometry" />
        </mxCell>
        <mxCell id="nJraD3ANBiAQbve93qyU-26" value="误差标定" style="swimlane;whiteSpace=wrap;html=1;" vertex="1" parent="1">
          <mxGeometry x="10" y="270" width="710" height="390" as="geometry">
            <mxRectangle y="90" width="90" height="30" as="alternateBounds" />
          </mxGeometry>
        </mxCell>
        <mxCell id="nJraD3ANBiAQbve93qyU-2" value="数据处理" style="swimlane;whiteSpace=wrap;html=1;" vertex="1" parent="nJraD3ANBiAQbve93qyU-26">
          <mxGeometry x="180" y="50" width="310" height="130" as="geometry">
            <mxRectangle x="140" y="50" width="110" height="30" as="alternateBounds" />
          </mxGeometry>
        </mxCell>
        <mxCell id="nJraD3ANBiAQbve93qyU-33" value="" style="edgeStyle=orthogonalEdgeStyle;rounded=0;orthogonalLoop=1;jettySize=auto;html=1;" edge="1" parent="nJraD3ANBiAQbve93qyU-2" source="nJraD3ANBiAQbve93qyU-3" target="nJraD3ANBiAQbve93qyU-17">
          <mxGeometry relative="1" as="geometry" />
        </mxCell>
        <mxCell id="nJraD3ANBiAQbve93qyU-3" value="数据预处理" style="rounded=0;whiteSpace=wrap;html=1;" vertex="1" parent="nJraD3ANBiAQbve93qyU-2">
          <mxGeometry x="35" y="40" width="120" height="60" as="geometry" />
        </mxCell>
        <mxCell id="nJraD3ANBiAQbve93qyU-17" value="特征提取" style="rounded=0;whiteSpace=wrap;html=1;" vertex="1" parent="nJraD3ANBiAQbve93qyU-2">
          <mxGeometry x="176" y="40" width="120" height="60" as="geometry" />
        </mxCell>
        <mxCell id="nJraD3ANBiAQbve93qyU-9" value="异常误差解决方法库" style="swimlane;whiteSpace=wrap;html=1;" vertex="1" parent="nJraD3ANBiAQbve93qyU-26">
          <mxGeometry x="180" y="210" width="190" height="150" as="geometry">
            <mxRectangle x="60" y="320" width="150" height="30" as="alternateBounds" />
          </mxGeometry>
        </mxCell>
        <mxCell id="nJraD3ANBiAQbve93qyU-6" value="异常误差处理方案" style="rounded=0;whiteSpace=wrap;html=1;" vertex="1" parent="nJraD3ANBiAQbve93qyU-9">
          <mxGeometry x="35" y="60" width="120" height="60" as="geometry" />
        </mxCell>
        <mxCell id="nJraD3ANBiAQbve93qyU-7" style="edgeStyle=orthogonalEdgeStyle;rounded=0;orthogonalLoop=1;jettySize=auto;html=1;" edge="1" parent="nJraD3ANBiAQbve93qyU-26" source="nJraD3ANBiAQbve93qyU-3" target="nJraD3ANBiAQbve93qyU-6">
          <mxGeometry relative="1" as="geometry" />
        </mxCell>
        <mxCell id="nJraD3ANBiAQbve93qyU-34" value="确定误差模型系数" style="rounded=0;whiteSpace=wrap;html=1;" vertex="1" parent="nJraD3ANBiAQbve93qyU-26">
          <mxGeometry x="560" y="90" width="120" height="60" as="geometry" />
        </mxCell>
        <mxCell id="nJraD3ANBiAQbve93qyU-35" value="" style="edgeStyle=orthogonalEdgeStyle;rounded=0;orthogonalLoop=1;jettySize=auto;html=1;" edge="1" parent="nJraD3ANBiAQbve93qyU-26" source="nJraD3ANBiAQbve93qyU-17" target="nJraD3ANBiAQbve93qyU-34">
          <mxGeometry relative="1" as="geometry" />
        </mxCell>
        <mxCell id="nJraD3ANBiAQbve93qyU-44" style="edgeStyle=orthogonalEdgeStyle;rounded=0;orthogonalLoop=1;jettySize=auto;html=1;entryX=0;entryY=0.5;entryDx=0;entryDy=0;" edge="1" parent="nJraD3ANBiAQbve93qyU-26" source="nJraD3ANBiAQbve93qyU-42" target="nJraD3ANBiAQbve93qyU-3">
          <mxGeometry relative="1" as="geometry" />
        </mxCell>
        <mxCell id="nJraD3ANBiAQbve93qyU-42" value="运动位置误差测量" style="rounded=0;whiteSpace=wrap;html=1;" vertex="1" parent="nJraD3ANBiAQbve93qyU-26">
          <mxGeometry x="30" y="90" width="120" height="60" as="geometry" />
        </mxCell>
        <mxCell id="nJraD3ANBiAQbve93qyU-27" value="误差补偿控制系统" style="swimlane;whiteSpace=wrap;html=1;" vertex="1" parent="1">
          <mxGeometry x="790" y="240" width="900" height="390" as="geometry">
            <mxRectangle x="780" y="60" width="140" height="30" as="alternateBounds" />
          </mxGeometry>
        </mxCell>
        <mxCell id="nJraD3ANBiAQbve93qyU-110" value="" style="edgeStyle=orthogonalEdgeStyle;rounded=0;orthogonalLoop=1;jettySize=auto;html=1;" edge="1" parent="nJraD3ANBiAQbve93qyU-27" source="nJraD3ANBiAQbve93qyU-28" target="nJraD3ANBiAQbve93qyU-109">
          <mxGeometry relative="1" as="geometry" />
        </mxCell>
        <mxCell id="nJraD3ANBiAQbve93qyU-28" value="用户接口" style="swimlane;whiteSpace=wrap;html=1;" vertex="1" parent="nJraD3ANBiAQbve93qyU-27">
          <mxGeometry x="24" y="45" width="180" height="210" as="geometry">
            <mxRectangle x="50" y="110" width="90" height="30" as="alternateBounds" />
          </mxGeometry>
        </mxCell>
        <mxCell id="nJraD3ANBiAQbve93qyU-29" value="补偿参数修改" style="rounded=0;whiteSpace=wrap;html=1;" vertex="1" parent="nJraD3ANBiAQbve93qyU-28">
          <mxGeometry x="24" y="50" width="120" height="60" as="geometry" />
        </mxCell>
        <mxCell id="nJraD3ANBiAQbve93qyU-30" value="误差补偿文件导入/修改/保存" style="rounded=0;whiteSpace=wrap;html=1;" vertex="1" parent="nJraD3ANBiAQbve93qyU-28">
          <mxGeometry x="24" y="130" width="120" height="60" as="geometry" />
        </mxCell>
        <mxCell id="nJraD3ANBiAQbve93qyU-31" value="误差补偿文件" style="rounded=0;whiteSpace=wrap;html=1;" vertex="1" parent="nJraD3ANBiAQbve93qyU-27">
          <mxGeometry x="48" y="290" width="120" height="60" as="geometry" />
        </mxCell>
        <mxCell id="nJraD3ANBiAQbve93qyU-32" style="edgeStyle=orthogonalEdgeStyle;rounded=0;orthogonalLoop=1;jettySize=auto;html=1;entryX=0.5;entryY=0;entryDx=0;entryDy=0;" edge="1" parent="nJraD3ANBiAQbve93qyU-27" source="nJraD3ANBiAQbve93qyU-30" target="nJraD3ANBiAQbve93qyU-31">
          <mxGeometry relative="1" as="geometry" />
        </mxCell>
        <mxCell id="nJraD3ANBiAQbve93qyU-86" style="edgeStyle=orthogonalEdgeStyle;rounded=0;orthogonalLoop=1;jettySize=auto;html=1;entryX=0;entryY=0.5;entryDx=0;entryDy=0;" edge="1" parent="nJraD3ANBiAQbve93qyU-27" source="nJraD3ANBiAQbve93qyU-51" target="nJraD3ANBiAQbve93qyU-80">
          <mxGeometry relative="1" as="geometry" />
        </mxCell>
        <mxCell id="nJraD3ANBiAQbve93qyU-51" value="误差补偿算法" style="rounded=0;whiteSpace=wrap;html=1;" vertex="1" parent="nJraD3ANBiAQbve93qyU-27">
          <mxGeometry x="570" y="120" width="120" height="60" as="geometry" />
        </mxCell>
        <mxCell id="nJraD3ANBiAQbve93qyU-79" style="edgeStyle=orthogonalEdgeStyle;rounded=0;orthogonalLoop=1;jettySize=auto;html=1;entryX=0;entryY=0.5;entryDx=0;entryDy=0;" edge="1" parent="nJraD3ANBiAQbve93qyU-27" source="nJraD3ANBiAQbve93qyU-66" target="nJraD3ANBiAQbve93qyU-51">
          <mxGeometry relative="1" as="geometry" />
        </mxCell>
        <mxCell id="nJraD3ANBiAQbve93qyU-66" value="补偿项数列表" style="swimlane;whiteSpace=wrap;html=1;" vertex="1" parent="nJraD3ANBiAQbve93qyU-27">
          <mxGeometry x="360" y="50" width="140" height="200" as="geometry" />
        </mxCell>
        <mxCell id="nJraD3ANBiAQbve93qyU-74" value="4" style="text;html=1;strokeColor=none;fillColor=none;align=center;verticalAlign=middle;whiteSpace=wrap;rounded=0;" vertex="1" parent="nJraD3ANBiAQbve93qyU-66">
          <mxGeometry x="40" y="142.5" width="60" height="30" as="geometry" />
        </mxCell>
        <mxCell id="nJraD3ANBiAQbve93qyU-75" value="..." style="text;html=1;strokeColor=none;fillColor=none;align=center;verticalAlign=middle;whiteSpace=wrap;rounded=0;" vertex="1" parent="nJraD3ANBiAQbve93qyU-66">
          <mxGeometry x="40" y="170" width="60" height="30" as="geometry" />
        </mxCell>
        <mxCell id="nJraD3ANBiAQbve93qyU-76" value="1" style="text;html=1;strokeColor=none;fillColor=none;align=center;verticalAlign=middle;whiteSpace=wrap;rounded=0;" vertex="1" parent="nJraD3ANBiAQbve93qyU-66">
          <mxGeometry x="40" y="27.5" width="60" height="30" as="geometry" />
        </mxCell>
        <mxCell id="nJraD3ANBiAQbve93qyU-77" value="2" style="text;html=1;strokeColor=none;fillColor=none;align=center;verticalAlign=middle;whiteSpace=wrap;rounded=0;" vertex="1" parent="nJraD3ANBiAQbve93qyU-66">
          <mxGeometry x="40" y="67.5" width="60" height="30" as="geometry" />
        </mxCell>
        <mxCell id="nJraD3ANBiAQbve93qyU-78" value="3" style="text;html=1;strokeColor=none;fillColor=none;align=center;verticalAlign=middle;whiteSpace=wrap;rounded=0;" vertex="1" parent="nJraD3ANBiAQbve93qyU-66">
          <mxGeometry x="40" y="107.5" width="60" height="30" as="geometry" />
        </mxCell>
        <mxCell id="nJraD3ANBiAQbve93qyU-80" value="误差补偿方程列表" style="swimlane;whiteSpace=wrap;html=1;" vertex="1" parent="nJraD3ANBiAQbve93qyU-27">
          <mxGeometry x="730" y="50" width="140" height="200" as="geometry" />
        </mxCell>
        <mxCell id="nJraD3ANBiAQbve93qyU-81" value="4" style="text;html=1;strokeColor=none;fillColor=none;align=center;verticalAlign=middle;whiteSpace=wrap;rounded=0;" vertex="1" parent="nJraD3ANBiAQbve93qyU-80">
          <mxGeometry x="40" y="142.5" width="60" height="30" as="geometry" />
        </mxCell>
        <mxCell id="nJraD3ANBiAQbve93qyU-82" value="..." style="text;html=1;strokeColor=none;fillColor=none;align=center;verticalAlign=middle;whiteSpace=wrap;rounded=0;" vertex="1" parent="nJraD3ANBiAQbve93qyU-80">
          <mxGeometry x="40" y="170" width="60" height="30" as="geometry" />
        </mxCell>
        <mxCell id="nJraD3ANBiAQbve93qyU-83" value="1+k11" style="text;html=1;strokeColor=none;fillColor=none;align=center;verticalAlign=middle;whiteSpace=wrap;rounded=0;" vertex="1" parent="nJraD3ANBiAQbve93qyU-80">
          <mxGeometry x="40" y="27.5" width="60" height="30" as="geometry" />
        </mxCell>
        <mxCell id="nJraD3ANBiAQbve93qyU-84" value="2" style="text;html=1;strokeColor=none;fillColor=none;align=center;verticalAlign=middle;whiteSpace=wrap;rounded=0;" vertex="1" parent="nJraD3ANBiAQbve93qyU-80">
          <mxGeometry x="40" y="67.5" width="60" height="30" as="geometry" />
        </mxCell>
        <mxCell id="nJraD3ANBiAQbve93qyU-85" value="3" style="text;html=1;strokeColor=none;fillColor=none;align=center;verticalAlign=middle;whiteSpace=wrap;rounded=0;" vertex="1" parent="nJraD3ANBiAQbve93qyU-80">
          <mxGeometry x="40" y="107.5" width="60" height="30" as="geometry" />
        </mxCell>
        <mxCell id="nJraD3ANBiAQbve93qyU-111" value="" style="edgeStyle=orthogonalEdgeStyle;rounded=0;orthogonalLoop=1;jettySize=auto;html=1;" edge="1" parent="nJraD3ANBiAQbve93qyU-27" source="nJraD3ANBiAQbve93qyU-109" target="nJraD3ANBiAQbve93qyU-66">
          <mxGeometry relative="1" as="geometry" />
        </mxCell>
        <mxCell id="nJraD3ANBiAQbve93qyU-109" value="解释器" style="rounded=0;whiteSpace=wrap;html=1;" vertex="1" parent="nJraD3ANBiAQbve93qyU-27">
          <mxGeometry x="220" y="120" width="120" height="60" as="geometry" />
        </mxCell>
        <mxCell id="nJraD3ANBiAQbve93qyU-36" style="edgeStyle=orthogonalEdgeStyle;rounded=0;orthogonalLoop=1;jettySize=auto;html=1;" edge="1" parent="1" source="nJraD3ANBiAQbve93qyU-34" target="nJraD3ANBiAQbve93qyU-28">
          <mxGeometry relative="1" as="geometry" />
        </mxCell>
        <mxCell id="nJraD3ANBiAQbve93qyU-112" style="edgeStyle=orthogonalEdgeStyle;rounded=0;orthogonalLoop=1;jettySize=auto;html=1;" edge="1" parent="1" source="nJraD3ANBiAQbve93qyU-37" target="nJraD3ANBiAQbve93qyU-38">
          <mxGeometry relative="1" as="geometry">
            <Array as="points">
              <mxPoint x="1810" y="680" />
              <mxPoint x="110" y="680" />
            </Array>
          </mxGeometry>
        </mxCell>
        <mxCell id="nJraD3ANBiAQbve93qyU-125" value="" style="edgeStyle=orthogonalEdgeStyle;rounded=0;orthogonalLoop=1;jettySize=auto;html=1;" edge="1" parent="1" source="nJraD3ANBiAQbve93qyU-37" target="nJraD3ANBiAQbve93qyU-123">
          <mxGeometry relative="1" as="geometry" />
        </mxCell>
        <mxCell id="nJraD3ANBiAQbve93qyU-37" value="启动误差补偿和测试" style="rounded=0;whiteSpace=wrap;html=1;" vertex="1" parent="1">
          <mxGeometry x="1750" y="360" width="120" height="60" as="geometry" />
        </mxCell>
        <mxCell id="nJraD3ANBiAQbve93qyU-47" value="&lt;br&gt;是" style="edgeStyle=orthogonalEdgeStyle;rounded=0;orthogonalLoop=1;jettySize=auto;html=1;" edge="1" parent="1" source="nJraD3ANBiAQbve93qyU-38" target="nJraD3ANBiAQbve93qyU-46">
          <mxGeometry relative="1" as="geometry" />
        </mxCell>
        <mxCell id="nJraD3ANBiAQbve93qyU-49" value="&lt;br&gt;否" style="edgeStyle=orthogonalEdgeStyle;rounded=0;orthogonalLoop=1;jettySize=auto;html=1;" edge="1" parent="1" source="nJraD3ANBiAQbve93qyU-38" target="nJraD3ANBiAQbve93qyU-3">
          <mxGeometry x="-0.9487" y="10" relative="1" as="geometry">
            <mxPoint x="785" y="399.97" as="targetPoint" />
            <mxPoint x="2080" y="489.97" as="sourcePoint" />
            <Array as="points">
              <mxPoint x="-50" y="740" />
              <mxPoint x="-50" y="160" />
              <mxPoint x="280" y="160" />
            </Array>
            <mxPoint as="offset" />
          </mxGeometry>
        </mxCell>
        <mxCell id="nJraD3ANBiAQbve93qyU-38" value="满足要求？" style="rhombus;whiteSpace=wrap;html=1;" vertex="1" parent="1">
          <mxGeometry x="70" y="700" width="80" height="80" as="geometry" />
        </mxCell>
        <mxCell id="nJraD3ANBiAQbve93qyU-145" style="edgeStyle=orthogonalEdgeStyle;rounded=0;orthogonalLoop=1;jettySize=auto;html=1;" edge="1" parent="1" source="nJraD3ANBiAQbve93qyU-39" target="nJraD3ANBiAQbve93qyU-144">
          <mxGeometry relative="1" as="geometry" />
        </mxCell>
        <mxCell id="nJraD3ANBiAQbve93qyU-39" value="开始" style="rounded=1;whiteSpace=wrap;html=1;" vertex="1" parent="1">
          <mxGeometry x="40" y="20" width="120" height="60" as="geometry" />
        </mxCell>
        <mxCell id="nJraD3ANBiAQbve93qyU-46" value="结束" style="rounded=1;whiteSpace=wrap;html=1;" vertex="1" parent="1">
          <mxGeometry x="50" y="860" width="120" height="60" as="geometry" />
        </mxCell>
        <mxCell id="nJraD3ANBiAQbve93qyU-114" value="" style="edgeStyle=orthogonalEdgeStyle;rounded=0;orthogonalLoop=1;jettySize=auto;html=1;" edge="1" parent="1" source="nJraD3ANBiAQbve93qyU-54" target="nJraD3ANBiAQbve93qyU-113">
          <mxGeometry relative="1" as="geometry" />
        </mxCell>
        <mxCell id="nJraD3ANBiAQbve93qyU-54" value="加工程序" style="rounded=0;whiteSpace=wrap;html=1;" vertex="1" parent="1">
          <mxGeometry x="1970" y="70" width="120" height="60" as="geometry" />
        </mxCell>
        <mxCell id="nJraD3ANBiAQbve93qyU-87" style="edgeStyle=orthogonalEdgeStyle;rounded=0;orthogonalLoop=1;jettySize=auto;html=1;entryX=0;entryY=0.5;entryDx=0;entryDy=0;" edge="1" parent="1" source="nJraD3ANBiAQbve93qyU-80" target="nJraD3ANBiAQbve93qyU-37">
          <mxGeometry relative="1" as="geometry" />
        </mxCell>
        <mxCell id="nJraD3ANBiAQbve93qyU-88" value="&lt;h1&gt;误差补偿控制系统&lt;br&gt;&lt;/h1&gt;&lt;div&gt;对误差补偿预测值与运动平台各个电机的初始脉冲数进行叠加处理，得到目标脉冲数&lt;/div&gt;" style="text;html=1;strokeColor=none;fillColor=none;spacing=5;spacingTop=-20;whiteSpace=wrap;overflow=hidden;rounded=0;" vertex="1" parent="1">
          <mxGeometry x="900" y="1000" width="260" height="160" as="geometry" />
        </mxCell>
        <mxCell id="nJraD3ANBiAQbve93qyU-90" value="伺服控制" style="rounded=0;whiteSpace=wrap;html=1;" vertex="1" parent="1">
          <mxGeometry x="2310" y="360" width="120" height="60" as="geometry" />
        </mxCell>
        <mxCell id="nJraD3ANBiAQbve93qyU-127" value="" style="edgeStyle=orthogonalEdgeStyle;rounded=0;orthogonalLoop=1;jettySize=auto;html=1;" edge="1" parent="1" source="nJraD3ANBiAQbve93qyU-91" target="nJraD3ANBiAQbve93qyU-90">
          <mxGeometry relative="1" as="geometry" />
        </mxCell>
        <mxCell id="nJraD3ANBiAQbve93qyU-91" value="运动位置" style="rounded=0;whiteSpace=wrap;html=1;" vertex="1" parent="1">
          <mxGeometry x="2140" y="360" width="120" height="60" as="geometry" />
        </mxCell>
        <mxCell id="nJraD3ANBiAQbve93qyU-100" value="" style="edgeStyle=orthogonalEdgeStyle;rounded=0;orthogonalLoop=1;jettySize=auto;html=1;" edge="1" parent="1" source="nJraD3ANBiAQbve93qyU-95" target="nJraD3ANBiAQbve93qyU-99">
          <mxGeometry relative="1" as="geometry" />
        </mxCell>
        <mxCell id="nJraD3ANBiAQbve93qyU-95" value="获得原始指令点位脉冲cmd_org" style="rounded=0;whiteSpace=wrap;html=1;" vertex="1" parent="1">
          <mxGeometry x="2440" y="1521" width="120" height="60" as="geometry" />
        </mxCell>
        <mxCell id="nJraD3ANBiAQbve93qyU-129" value="&lt;br&gt;改进" style="edgeStyle=orthogonalEdgeStyle;rounded=0;orthogonalLoop=1;jettySize=auto;html=1;" edge="1" parent="1" source="nJraD3ANBiAQbve93qyU-96" target="nJraD3ANBiAQbve93qyU-128">
          <mxGeometry relative="1" as="geometry" />
        </mxCell>
        <mxCell id="nJraD3ANBiAQbve93qyU-96" value="&lt;h1&gt;误差加权迭代的补偿算法（上海铼纳克）&lt;/h1&gt;&lt;div&gt;每个误差e都有加权值w,总误差etotal=多个w×e相加，0.1&amp;lt;=w&amp;lt;=1,w可以动态调整误差&lt;/div&gt;" style="text;html=1;strokeColor=none;fillColor=none;spacing=5;spacingTop=-20;whiteSpace=wrap;overflow=hidden;rounded=0;" vertex="1" parent="1">
          <mxGeometry x="2360" y="1281" width="300" height="140" as="geometry" />
        </mxCell>
        <mxCell id="nJraD3ANBiAQbve93qyU-98" value="" style="edgeStyle=orthogonalEdgeStyle;rounded=0;orthogonalLoop=1;jettySize=auto;html=1;" edge="1" parent="1" source="nJraD3ANBiAQbve93qyU-97" target="nJraD3ANBiAQbve93qyU-95">
          <mxGeometry relative="1" as="geometry" />
        </mxCell>
        <mxCell id="nJraD3ANBiAQbve93qyU-97" value="加工程序" style="rounded=0;whiteSpace=wrap;html=1;" vertex="1" parent="1">
          <mxGeometry x="2440" y="1411" width="120" height="60" as="geometry" />
        </mxCell>
        <mxCell id="nJraD3ANBiAQbve93qyU-102" value="" style="edgeStyle=orthogonalEdgeStyle;rounded=0;orthogonalLoop=1;jettySize=auto;html=1;" edge="1" parent="1" source="nJraD3ANBiAQbve93qyU-99" target="nJraD3ANBiAQbve93qyU-101">
          <mxGeometry relative="1" as="geometry" />
        </mxCell>
        <mxCell id="nJraD3ANBiAQbve93qyU-99" value="设置补偿值adj" style="whiteSpace=wrap;html=1;rounded=0;" vertex="1" parent="1">
          <mxGeometry x="2440" y="1631" width="120" height="60" as="geometry" />
        </mxCell>
        <mxCell id="nJraD3ANBiAQbve93qyU-104" value="" style="edgeStyle=orthogonalEdgeStyle;rounded=0;orthogonalLoop=1;jettySize=auto;html=1;" edge="1" parent="1" source="nJraD3ANBiAQbve93qyU-101" target="nJraD3ANBiAQbve93qyU-103">
          <mxGeometry relative="1" as="geometry" />
        </mxCell>
        <mxCell id="nJraD3ANBiAQbve93qyU-101" value="计算当前指令脉冲cmd=cmd_org*adj" style="whiteSpace=wrap;html=1;rounded=0;" vertex="1" parent="1">
          <mxGeometry x="2440" y="1771" width="120" height="60" as="geometry" />
        </mxCell>
        <mxCell id="nJraD3ANBiAQbve93qyU-106" value="" style="edgeStyle=orthogonalEdgeStyle;rounded=0;orthogonalLoop=1;jettySize=auto;html=1;" edge="1" parent="1" source="nJraD3ANBiAQbve93qyU-103" target="nJraD3ANBiAQbve93qyU-105">
          <mxGeometry relative="1" as="geometry" />
        </mxCell>
        <mxCell id="nJraD3ANBiAQbve93qyU-103" value="执行当前指令，获得实际响应r" style="whiteSpace=wrap;html=1;rounded=0;" vertex="1" parent="1">
          <mxGeometry x="2440" y="1911" width="120" height="60" as="geometry" />
        </mxCell>
        <mxCell id="nJraD3ANBiAQbve93qyU-108" value="" style="edgeStyle=orthogonalEdgeStyle;rounded=0;orthogonalLoop=1;jettySize=auto;html=1;" edge="1" parent="1" source="nJraD3ANBiAQbve93qyU-105" target="nJraD3ANBiAQbve93qyU-107">
          <mxGeometry relative="1" as="geometry" />
        </mxCell>
        <mxCell id="nJraD3ANBiAQbve93qyU-105" value="计算误差err" style="whiteSpace=wrap;html=1;rounded=0;" vertex="1" parent="1">
          <mxGeometry x="2440" y="2051" width="120" height="60" as="geometry" />
        </mxCell>
        <mxCell id="nJraD3ANBiAQbve93qyU-107" value="调整指令点：adj=adj*w+(1-k)*err,0&amp;lt;k&amp;lt;1" style="whiteSpace=wrap;html=1;rounded=0;" vertex="1" parent="1">
          <mxGeometry x="2440" y="2191" width="120" height="60" as="geometry" />
        </mxCell>
        <mxCell id="nJraD3ANBiAQbve93qyU-122" value="" style="edgeStyle=orthogonalEdgeStyle;rounded=0;orthogonalLoop=1;jettySize=auto;html=1;" edge="1" parent="1" source="nJraD3ANBiAQbve93qyU-113" target="nJraD3ANBiAQbve93qyU-121">
          <mxGeometry relative="1" as="geometry" />
        </mxCell>
        <mxCell id="nJraD3ANBiAQbve93qyU-113" value="插补器" style="rounded=0;whiteSpace=wrap;html=1;" vertex="1" parent="1">
          <mxGeometry x="1970" y="160" width="120" height="60" as="geometry" />
        </mxCell>
        <mxCell id="nJraD3ANBiAQbve93qyU-124" value="" style="edgeStyle=orthogonalEdgeStyle;rounded=0;orthogonalLoop=1;jettySize=auto;html=1;" edge="1" parent="1" source="nJraD3ANBiAQbve93qyU-121" target="nJraD3ANBiAQbve93qyU-123">
          <mxGeometry relative="1" as="geometry" />
        </mxCell>
        <mxCell id="nJraD3ANBiAQbve93qyU-121" value="位置指令脉冲" style="rounded=0;whiteSpace=wrap;html=1;" vertex="1" parent="1">
          <mxGeometry x="1970" y="260" width="120" height="60" as="geometry" />
        </mxCell>
        <mxCell id="nJraD3ANBiAQbve93qyU-126" value="" style="edgeStyle=orthogonalEdgeStyle;rounded=0;orthogonalLoop=1;jettySize=auto;html=1;" edge="1" parent="1" source="nJraD3ANBiAQbve93qyU-123" target="nJraD3ANBiAQbve93qyU-91">
          <mxGeometry relative="1" as="geometry" />
        </mxCell>
        <mxCell id="nJraD3ANBiAQbve93qyU-123" value="补偿后的位置指令脉冲" style="rounded=0;whiteSpace=wrap;html=1;" vertex="1" parent="1">
          <mxGeometry x="1970" y="360" width="120" height="60" as="geometry" />
        </mxCell>
        <mxCell id="nJraD3ANBiAQbve93qyU-128" value="&lt;h1&gt;多次误差加权迭代的补偿算法（大连光洋）&lt;/h1&gt;&lt;div&gt;X实际位置=X理论位置+K1×F(X,Y,Z)&lt;/div&gt;&lt;div&gt;K1是权重，F(X,Y,Z)是误差函数&lt;/div&gt;&lt;div&gt;第一次补偿就是&lt;/div&gt;&lt;div&gt;EX1=K1×F(X,Y,Z)&lt;/div&gt;&lt;div&gt;第二次补偿就是&lt;/div&gt;&lt;div&gt;EX2=K1×F(X,Y,Z)+K2×F(X,Y,Z)&lt;/div&gt;&lt;div&gt;以此类推，EX=...直至精度提升到满足要求的情况&lt;/div&gt;&lt;div&gt;&lt;br&gt;&lt;/div&gt;&lt;div&gt;补偿项目不固定，可通过添加的方式加入每个补偿特征的项目，支持多个&lt;/div&gt;" style="text;html=1;strokeColor=none;fillColor=none;spacing=5;spacingTop=-20;whiteSpace=wrap;overflow=hidden;rounded=0;" vertex="1" parent="1">
          <mxGeometry x="2810" y="1200" width="320" height="300" as="geometry" />
        </mxCell>
        <mxCell id="nJraD3ANBiAQbve93qyU-131" value="&lt;h1&gt;确定误差模型系数&lt;/h1&gt;&lt;div&gt;（川大）最小二乘估计、自回归计算残差法&lt;/div&gt;" style="text;html=1;strokeColor=none;fillColor=none;spacing=5;spacingTop=-20;whiteSpace=wrap;overflow=hidden;rounded=0;" vertex="1" parent="1">
          <mxGeometry x="550" y="1000" width="190" height="120" as="geometry" />
        </mxCell>
        <mxCell id="nJraD3ANBiAQbve93qyU-135" value="&lt;br&gt;相对的方式" style="edgeStyle=orthogonalEdgeStyle;rounded=0;orthogonalLoop=1;jettySize=auto;html=1;" edge="1" parent="1" source="nJraD3ANBiAQbve93qyU-132" target="nJraD3ANBiAQbve93qyU-134">
          <mxGeometry relative="1" as="geometry" />
        </mxCell>
        <mxCell id="nJraD3ANBiAQbve93qyU-140" value="优化" style="edgeStyle=orthogonalEdgeStyle;rounded=0;orthogonalLoop=1;jettySize=auto;html=1;" edge="1" parent="1" source="nJraD3ANBiAQbve93qyU-132" target="nJraD3ANBiAQbve93qyU-139">
          <mxGeometry relative="1" as="geometry" />
        </mxCell>
        <mxCell id="nJraD3ANBiAQbve93qyU-142" value="大提升" style="edgeStyle=orthogonalEdgeStyle;rounded=0;orthogonalLoop=1;jettySize=auto;html=1;" edge="1" parent="1" source="nJraD3ANBiAQbve93qyU-132" target="nJraD3ANBiAQbve93qyU-141">
          <mxGeometry relative="1" as="geometry">
            <Array as="points">
              <mxPoint x="414" y="1650" />
              <mxPoint x="160" y="1650" />
            </Array>
          </mxGeometry>
        </mxCell>
        <mxCell id="nJraD3ANBiAQbve93qyU-132" value="&lt;h1&gt;二维图像配准&lt;br&gt;&lt;/h1&gt;&lt;div&gt;（福大）2、：&lt;b&gt;现有技术大多是基于球杆仪和激光干涉仪&lt;/b&gt;等仪器，测量出与位置相关的几何误差并后续通过算法对其进行补偿。&lt;b style=&quot;border-color: var(--border-color);&quot;&gt;但这些误差检测方法均是针对检测相对固定的运动机构几何误差或测量系统安装误差，无法对工件的安装定位误差进行在线测量和辨识&lt;/b&gt;&lt;br&gt;&lt;/div&gt;" style="text;html=1;strokeColor=none;fillColor=none;spacing=5;spacingTop=-20;whiteSpace=wrap;overflow=hidden;rounded=0;" vertex="1" parent="1">
          <mxGeometry x="254" y="1440" width="320" height="180" as="geometry" />
        </mxCell>
        <mxCell id="nJraD3ANBiAQbve93qyU-134" value="&lt;h1&gt;在机测量误差&lt;br&gt;&lt;/h1&gt;&lt;div&gt;（西工大）3、&lt;b style=&quot;border-color: var(--border-color);&quot;&gt;在机测量误差&lt;/b&gt;：通过&lt;b style=&quot;border-color: var(--border-color);&quot;&gt;使用激光干涉仪&lt;/b&gt;，通过分光镜、反射镜、干涉仪的位置识别X,Y,Z三个线性轴的离散位置定位误差，&lt;b style=&quot;border-color: var(--border-color);&quot;&gt;通过加装回转轴校准装置&lt;/b&gt;识别B,C两个旋转轴角度定位误差，使用样条曲线拟合X,Y,Z,B,C轴误差，样条曲线拟合C轴定位误差，X,Y,Z线性轴的行程范围是约束条件，旋转轴的转角范围也是约束条件。&lt;br&gt;&lt;/div&gt;" style="text;html=1;strokeColor=none;fillColor=none;spacing=5;spacingTop=-20;whiteSpace=wrap;overflow=hidden;rounded=0;" vertex="1" parent="1">
          <mxGeometry x="690" y="1660" width="320" height="180" as="geometry" />
        </mxCell>
        <mxCell id="nJraD3ANBiAQbve93qyU-138" value="大提升" style="edgeStyle=orthogonalEdgeStyle;rounded=0;orthogonalLoop=1;jettySize=auto;html=1;" edge="1" parent="1" source="nJraD3ANBiAQbve93qyU-136" target="nJraD3ANBiAQbve93qyU-134">
          <mxGeometry relative="1" as="geometry" />
        </mxCell>
        <mxCell id="nJraD3ANBiAQbve93qyU-136" value="&lt;h1&gt;传统测量方法&lt;br&gt;&lt;/h1&gt;&lt;div&gt;（日本大隈株式会所）4、：测定&lt;b style=&quot;border-color: var(--border-color);&quot;&gt;角度偏差&lt;/b&gt;的情况下，记载有使用&lt;b style=&quot;border-color: var(--border-color);&quot;&gt;激光水平仪、光学式角度偏差测定器&lt;/b&gt;的方法。测量&lt;b style=&quot;border-color: var(--border-color);&quot;&gt;直角度&lt;/b&gt;的情况下，记载了使用&lt;b style=&quot;border-color: var(--border-color);&quot;&gt;直尺、直角尺和测微仪&lt;/b&gt;的方法。使用激光同事测定定位误差、直线度、角度偏差&lt;br&gt;&lt;/div&gt;" style="text;html=1;strokeColor=none;fillColor=none;spacing=5;spacingTop=-20;whiteSpace=wrap;overflow=hidden;rounded=0;" vertex="1" parent="1">
          <mxGeometry x="940" y="1440" width="320" height="180" as="geometry" />
        </mxCell>
        <mxCell id="nJraD3ANBiAQbve93qyU-139" value="&lt;h1&gt;单目相机标定误差&lt;br&gt;&lt;/h1&gt;&lt;div&gt;（苏州汇川）5、&lt;b style=&quot;border-color: var(--border-color);&quot;&gt;单目相机标定误差&lt;/b&gt;：&lt;b style=&quot;border-color: var(--border-color);&quot;&gt;目前的几何误差标定方法是通过手动标定&lt;/b&gt;来得到数百组对应坐标数据来对多轴运动系统进行几何误差标定。该方法流程非常繁琐，往往需要十多个小时。&lt;b style=&quot;border-color: var(--border-color);&quot;&gt;激光干涉仪的设备只能满足单轴绝对位置的精度要求，无法解决垂直度、平行度等多轴的配合精度要求；球杆仪无法解决装夹误差的问题&lt;/b&gt;&lt;br&gt;&lt;/div&gt;" style="text;html=1;strokeColor=none;fillColor=none;spacing=5;spacingTop=-20;whiteSpace=wrap;overflow=hidden;rounded=0;" vertex="1" parent="1">
          <mxGeometry x="340" y="1680" width="320" height="180" as="geometry" />
        </mxCell>
        <mxCell id="nJraD3ANBiAQbve93qyU-141" value="&lt;h1&gt;双目相机标定误差&lt;br&gt;&lt;/h1&gt;&lt;div&gt;（大连理工）6、&lt;b style=&quot;border-color: var(--border-color);&quot;&gt;双目相机标定误差&lt;/b&gt;：用&lt;b&gt;定位基准上的5个编码点来表征运动平台运动误差&lt;/b&gt;，将编码点理论位置与测量的实际位置对比，得到含有误差元素的矩阵。有效&lt;b&gt;解决了因测量设备能力的限制造成的模型及辨识算法复杂化、测量流程繁琐问题&lt;/b&gt;&lt;br&gt;&lt;/div&gt;" style="text;html=1;strokeColor=none;fillColor=none;spacing=5;spacingTop=-20;whiteSpace=wrap;overflow=hidden;rounded=0;" vertex="1" parent="1">
          <mxGeometry y="1770" width="320" height="140" as="geometry" />
        </mxCell>
        <mxCell id="nJraD3ANBiAQbve93qyU-143" value="&lt;h1&gt;误差补偿实时控制系统（清华）&lt;/h1&gt;&lt;div&gt;螺距误差引起的机床定位误差和轨迹跟踪误差&lt;/div&gt;&lt;div&gt;&lt;br&gt;&lt;/div&gt;&lt;div&gt;脉冲编码器和旋转变压器常用作半闭环控制，光栅和磁栅用作全闭环控制的反馈元件，感应同步器用作数显控制&lt;/div&gt;&lt;div&gt;&lt;b&gt;&lt;br&gt;&lt;/b&gt;&lt;/div&gt;&lt;div&gt;&lt;b&gt;PC机+运动平台+反馈元件&lt;/b&gt;&lt;/div&gt;&lt;div&gt;&lt;b&gt;&lt;br&gt;&lt;/b&gt;&lt;/div&gt;&lt;div&gt;&lt;b&gt;搭建的控制系统，没有算法的，就是构建实时控制系统&lt;/b&gt;&lt;/div&gt;" style="text;html=1;strokeColor=none;fillColor=none;spacing=5;spacingTop=-20;whiteSpace=wrap;overflow=hidden;rounded=0;" vertex="1" parent="1">
          <mxGeometry x="1270" y="1180" width="340" height="230" as="geometry" />
        </mxCell>
        <mxCell id="nJraD3ANBiAQbve93qyU-146" style="edgeStyle=orthogonalEdgeStyle;rounded=0;orthogonalLoop=1;jettySize=auto;html=1;" edge="1" parent="1" source="nJraD3ANBiAQbve93qyU-144" target="nJraD3ANBiAQbve93qyU-42">
          <mxGeometry relative="1" as="geometry" />
        </mxCell>
        <mxCell id="nJraD3ANBiAQbve93qyU-144" value="运动平台回零，坐标建立" style="rounded=0;whiteSpace=wrap;html=1;" vertex="1" parent="1">
          <mxGeometry x="40" y="180" width="120" height="60" as="geometry" />
        </mxCell>
        <mxCell id="nJraD3ANBiAQbve93qyU-147" value="" style="shape=image;verticalLabelPosition=bottom;labelBackgroundColor=default;verticalAlign=top;aspect=fixed;imageAspect=0;image=data:image/png,iVBORw0KGgoAAAANSUhEUgAAAWkAAALFAQAAAAApNi/rAAATEUlEQVR4nO2dfXgURZ7Hvz0zSQYISUciwhoyHRYl+qwSVu5EIUwrKOrpLXure+Cz4oDsHuuz58VXgoakg67Ex7uHeKfurro63Krn7eMJonsPi4F0BCW6KEFU0I2k86KgBqZDwqZn0tN1f+Rturv67ZhBYP09Dw8zVZ98+9vV1VXV1dU9zIpJD8J11Aaedg8D8HmiTwmcoLeJYRgBDBlOin/Uucjhr8JX+MAMRfCSYfrmr/6eUAMIICyaZV619s67cj+Ce4pTCBfSgDcNHwlGcGMmlHJYXOAezdjFKaSeFjNC/esKUb5wi98p74qzctCtmdzIb/bdfD5El+rqLSUXZ/VKAiUrQEv7XYmMpcSsTjejzihokzrbKTlUXNFo27TEx98lzVqfO0syZVjs6l7O5xNzzRl0XDv7QE3jPYR3aSbn3I2adr2Po2TRdmropBNdqtvEmYdrF61lGIYxZ1AKsr0EwId0dQoeJkDS78WMZZz0BjttZtKFd3GZVGczqm41UrDAqc2vNW7VjFmZEbzgRBJ6a2kdt3GrtcP5ta7Uw6bhlwszlnFm4iLtUJlwBXLTlAC02T3CpsPOOMkvCIkaVH7cbZJ5dGXCEy0xpYoH5BvzlLOd8WyAZD8LSI8tLN3ujKsoACMiGUj+nlIOppRj2AWyAuhbd44kOeM+BJhEtehrLlitLHDGZeVgcF02m7Oq8s3ZijMeIjt+LtZx2Na9LXmBYMw1nZRq7EEZInvsAKf9yVzuJjxvDlgAed2A2cvpUoEzhxMAf2D85o7bWJBNV4x+1sw6RrymZlCeMh4YNCNa2LTArUKg4zydTnpT76NuztJ7Sy2jD5+tmUGVqd9Z10baCCGEaIB1J4QIEYY/ci68T6KmWuDH2GzRAw6W8YJ77IatwqLcA5wVzntTpydbiKTnXKVcxFvg7aO1ylyc5jqTM9oyuujKLI+QBW4bJxuntOp2uOddVaKa0KqJEhUXjXCS7Zkbvmn+whepOG8yI5PGa+/atqXOnTrY8fMPreqT6l2pA3JfP8P5ZI6CB0zqQUAVk4pcOb6bhpvV2fjBrEO/3nKcasYUjDxrb+wpJRKhmqHE4hnPf7z4y0vdqRMWuGfm9AlxV7jCyAXzvvcxqf8R1YxoSAn6gsuBCl3Dm6LOU1It48w6m0ZjjWRKMh/V+Ohw4FHTlszlHiKwG0LwNnYouFHdAfcUmTaTWXVPkWmcN6Up8VpfFn3eW1fFkqPfVADBSeX80oA17l+zFoPVy7qKpYS2FgCYoX90XLTIcVZ3g/MZVRe94bw33FPo8B2cGYjr+ksdTqFtzVD4gG6MoCsZ1qM6TwF0GrqCDAre1CnBcJa45ZWFhfrmneb5XFEvKAJAPKW4Ck2aDRcfua5THcR5APCnXLQPfWzidX/iT1WnREh/2a8C+CaaJVtcdIuK3szwqXhVU2ja0WTF0XbB3sxQvHWxWIfkjRN+PHr2bFLaWbkzJB0itwZHcB4AQJYClZ3TxCNb5WE6fuOYddKdQcgvnvXCEmEYFwc/dACR/AldjYFhXPY/A4gMhETklZ+YdnXPB9vXYHykZ23zUAKbrFx1v5D3l+q/fbKh4k9DicN1lumZdAPTMIePl00eVp9c1vXwtsLVsrpgs0IMJUN2DnRU8Li89e3hzbHxnSQxP3ZA3ZJQ5nYIBjMNRyZvJGuuK0uMFIxfYR8Syi85K5D98m5uSH3kBFrQ+PZngWDrwerLRvCIb6Cm/L1jUs8zOGDYVSZa1FLZwZX+tmX3MJ5dWJC1/f7S+pVLH94VEYZNhwkhZIDcQdpIm1pDCNEGp3T3HN8vTF+/Xioq7VYu6QwPkDBpFEbw0RjC29RiEuuuOdpKOtUH+skAqbHH9fPHg+ppO5tkb7hHdZaWOHSYklkpacTRjM88iZ5YqJvNCaaqZ5mF+rcOffhheEwkO+lPxYcspd7DCg9tReSB4TYPPqubCvQ4vXFPcYp5P2m4oZgInlrGMJHUJH2/bjU4pQsy4dhwWzB6I0myVhdHNsK7ULcPwQYXT1g9jThvThLSph6nTf14U7cxE7CY7kqPun4o64hbhdXkKEdPN45jR8afg1U/JDmoB6ey46Qnhno/3aIYgaLu7weA22lGBJq6fZxZuEAgAWiD1OAG74CMpnkvxRK4SnCBk44pJbtEtpen3eUx3459Ie/OlUGfdOnblKVu5msfZiXkXZGzvngk8QgFN5vZcmyDkL0id9VlrXPN4wizGSm3Iprd3DqGenKbL8RWqtt3zoxMe/t1vOfCDIPlt+25Mrx7Xw3pF1x4l3LLdn6Iw1E0Pe0GjykzXrx66s6FV4clinnSaBgu6mJPyufGdI4jT3e8UTQkGCtBUj+iDFXYq+cMFXKY0mU7mjHFN4MLGVX3hsevcY3L3tRZpKUbtsFp3XD61K0GlJTppMEJWAbIl12pL24etyZMqb10dea/KDfkbdRt4szDqyVZEV3jr6GxoEqm5VAnCbN6f9529rk0nqp+Wd7KDb31btXJDUzT1k8qIi7VmarNwbX+Mpo61Uzs+v6rNra4xtGQP6eGmkHFDw9shhxxiRNMnFV5eGKUhtPqO5YsAVDh2gwAi0b1NKjA6cIpBTlye8dls+TNjH9wrEOIWfzUKpkzEPfQawPeF/h6w30Z7eQZlpYqeVPnrHDaNZONmbUdXvCe5/rpRUM9HskJKv7ISW7VA1VAeJlbM+1hAUA19SEZc1J8ugIAzBFWdqNeVzn4f36PYMiRKOo964dFNb+RN6snJ4xYYPpZR/whdfRzzl5el2euBO2Nqd9CTbpMcxXbIOoBztZM+/bBW3SNEBoAILQs1Y7RTHyGiGQdM7kocYhcIwFA9Zs26mNkgJnVKh1Wc1f7Y1UAmP6gJd4zD0DyOkYN7g7OSJSIAJCzGkBi4czBhQWphyl5jgLA978bVxDhj2OyghIAoGJ0PEw9+d69oY4RGsZHA2UAgAnDV8OiwYz/Sw6ACoXn4cMKZRIANFWNAoaSyd8gAFmT+hQRcueiPgCILxRG8yXDpbnGEKIy5cfm4Is9k/fcTYjqT71Qf85wac70BwFe1K7przln3IygvgYBMF34yyH1z8mB3jW9x9sIIVKI6NWN9T1/mX8afLlrAQ5ITjcu/jGdHtWB0e1nmdYbm6dEPuOGP/YUGzMphym0TBj8kDxHcoGjeu3g/w+5W0M+dIq2P2fKobfAOa9yQHy62Qqt4QAQbgfGUFZhW7XAaqB9HjWD3iP6j4RkaoZFd5C/iZ5+Ogwh/orwDI+WvA1/rFTSPFoiI49TATDuU8rKlZFWPWyNj65cGbxnCxhuVFl55+nJnndV8oZz3nBPcYLeZZkoQEurJr6ekCsSZpzTfd+eZMXaKdC6mitvFz81DVaNNVWcd3TyR3Obv3xjoPNvbkkkcpy8H5B5rbao+LwlTz7qvzrGO+Dbpj0mPvWjh399LpbfxH3YHbHHSXSgET/715txLwlu+IzbF7XHmXO/moDsdrXKP61oLDP+Vt5wRW80U8Qk+WNcvabc9Bim9vULBtxYMkfVKd2vtDX62OZuwh80PVJrwMkPL57YvZz7p2S1/83bpx5zwplGuX5sfqfcUpkjCDJrpM0NCisAYHlAoK3kOB2a1JOAE4jL7Va9Gu8cmEOP51hd6zmZEb3hHtXPOJz3hotpat/j5gc0h3CqesCil09P7/FNTImcYEdJmkqG1nuNPnLFW5tJ8IPbCjL7/xJLpq4eGwqrIQQwZuh/wVrdhffM4lJG1TnLPAGy4KAuJIGj4FsTYvvh5JumimbEO3aO96ngt3+168J83zMDUV0mj4BhV3PzeqW2S/a9uribC5b8IEefSdlVFoh/1ld83kph1wx2F++Aix0sdjbOrphQE7mI+90cvRnR1A1zRRUIXtUaXjNtQuDl+1TOpK5P4TSAJ/VVvdF6TfqfL81mdHvDQOFBSipIzg9imtCcK+pgcysmV7Ea04bcvcEPBPnIZsmQbcRDctlUoH5HTc/7gZKfXS0YsvXTCgMkrBGSJKQxmbKMYCTaBONhEge3aNxFKzMOcUrhTsv1kzfGRB3OpWZSxgQ2VzbpHxNIDoIGnPOGZ1bdU5xiF3FU9aTlmMBTWOGWQwhPKumZVrB+NoserDdccIOTe4aHEMtGhhCcNZ74NwkAC+bey/uHGzsxFbAeQvBevFvEmYarQCukBk2pcJw2fvFQfqUvHjjaI2oKkgNOeLDgaHQHpxa+k7NwzpRf+QRDtmkWYuJlFxRGtU1f73lhwSv7V73voN5YEpxVxAfGoq7gH4XNAxEH/Fky+z+TvvdrGP6TcjHvLgfvZAr57oWKNHfuqrvv7FxzuS9qjzOTO2MfPz2vWGCeeOOXrynFvIOZQ2wxXyUFxP4yBNncPsEBDxZP+Eqdz+furcOqRX1jjd6Nw5+C+8aEYpFZPZU5HT+5UzAdc+MsBAGAFcAuAHjMSJ/6Ffik4eo7V/Cp352nFULW+P97COERlzKq/i1ugSenesK9dvLeZBhvIw6rsMJP/IkMO5z3hrPecM4NnmTMwVvjQOF1E8sbdEu9hdRswxNIJ6klOB1xkQD9kGRICkBMKzaN+HGmEhpELd6t9rDn699lAPOIw9deX5nFll7U8/EfXpVjn7fY42TRl5VQYsn9NeO6FgYPFbH2OLOJNEPTsp9k6oqCF55let+H0bukzEYrp6pztsi+Bx+Yb1Q34tFsEaUd2c24/HAN+9YbsgMORgIkpTr5bnlD3YR7OXucVGilAIesulb5LXygRQy4cVeDc8sLjiL452jpwf9uvqCiwB5Hz5YoiUHpunV+fUQ0GjXjEQgoQICzuHo+pSvwCeOSNU4ozVI0bWZGl7/UjHwS06b+Le6Ia6InfKCZnp6eeQKvixtYT7jX4Q/nCfc6x2ERhuH+6NcRfd2jlAb1PcYXBxjGBHqcKXOYyDodKnCGcBEC+iEloCrV0lZFqLTHe6AQQOz6pC6KLT6t5RF73Nez3qfJXOeVVXxvRQvJdzBzY87qGBa93lqLyXmVvLxJvxbUdNpsgoLubVkbr/VNLNl/XfJgj716C2lGB6eWM69sna003X1xlz0eDQKzOrIVqLk3KLXf/TDXHmdjElBR+XSxGJvDPrs6wtrjwvZSgEVl50HNX8Zms8/b44pSRAQgEX44OBfQNp2rzzaWjLyBLxCC5dfXYopPAaSzbrPFly0DxmAnALwNYJxhDH1KV+BM4/Kn/boxgWCNE4ZhCqaPzigVRSb9h5QKWM2lCjpRGzO28S2efMkTrkrezJzOnbw33OrtBwZcwV+uZBiGYZrotxoMCx6H1xxg3HGEFq9jIMuiNe43XcmzLO/Cu1Wcmbjo5lbDYaW+SosH3o1HEwqSpnI14tvwz8/vmFpV2NS1a07kI+NSfBNeu9t3RaFQ3Sk8PqNcOLpacMDJzOyxRUsD+/ktOfsqZvZyDnjxv8yO9vnuAOE/Ka9//37ZHie1NZ0/LmCeeaPytcd613zft8keZ8o7Kn7/6JTiOmbvb+7154V4BzOHCs5eXCUF0D/Lx3Ka6Ukb02F69mmNzJ8a2NucDMf6TD8jY/Q+OcAX744IPWTTunceyfMZ1UGe061WMEfKoLjNfKvCPr4ZXMyoukW4uNUgWeIBgCEzx2u9K4OR4TQJlnjKsu2RNC4VOB0OU2Zv4fsyOqFOeWN5GtVRn1F14Cialti/eBY97MjHkUcRRWt1P6XhsDHj+OJOPW7qLexxj+qOcUK4Z++ChkjT5S1ygyC7Ue/Ykc8Wouo51B1wxoHdxfK/d/eX3fN5pfnFpmac8NC0+KMv/+I7fcab/TTvDNCi7lr6i8eZ+gdceCei9r0tkbaXupWBRYIL77y6tgtKc6F87Xg3OBI7eYzbff6ksvudzYDIgQigYT6w2wXuI4vL8nK3fr9/ZT1Hw411sLO+jNkwoMl1QerPWJhWWgC4FWAze+MuXTifUfXUoN3n0wH6ghxqphd8/Z7Fb61l+o6/SE2np2a8IC02a4Xz3nBP8c3ggic87m26PrMPF1pFmq7kWU+4++n6eaFa3XMH+u3oJtxTO0pxbN4AeU338rU2wwPYunvyxwFc7867VZyZuATF+ffK+hJoq15f+TmpiC/hn0HEAZdV5ZbbSrrHav+gfF4WMP0aj/E8GOsThcLIp8fKfpociK6+p9RBvWfNogh+e9vXT3X9XRb/2kNO3rftKPtV93JRC3CiWrYgHnXApUbgcaa8C08d98ljHq53wH8qCJ/4owm+gStqbVklGM0Yd/XcB95qeSIEZN81hWlBwljypsOUXRtt2xjyYdaY6ZVq+SZjtu70SBLh0kMDSk5EysvfV+/PuaPfcHoYcXPocMMss3Hb+pAN3h1eyct6q8BGdcfw5N1oxsG70QxRcaz2CsuVRayhEvhG//q8+wpLSyFUpQKy08oiwda7Y/zV4B7rzMmtkZRolbFjtPr4AE3F8esvq6WMZxmGYc4rYIZebxGoaEFg8OeFgWaA2VbCOWwrMPIm9vR4/xY/DfH/A1OqX3Am1BkdAAAAAElFTkSuQmCC;" vertex="1" parent="1">
          <mxGeometry x="1270" y="1390" width="361" height="709" as="geometry" />
        </mxCell>
        <mxCell id="nJraD3ANBiAQbve93qyU-148" value="" style="shape=image;verticalLabelPosition=bottom;labelBackgroundColor=default;verticalAlign=top;aspect=fixed;imageAspect=0;image=data:image/png,iVBORw0KGgoAAAANSUhEUgAABLAAAALFCAYAAADTHhqHAAAAAXNSR0IArs4c6QAAIABJREFUeF7snQW4VFX7t5ddmGBjByoq2B0oiC1iKxYqdmF3YQGKgV2omNiNit3dAgYWdne9r991r/e/z7cZz4GZORN7Zu7nuriAc/Zee617rb1n1m8/MdE///zzT9AkIAEJSEACEpCABCQgAQlIQAISkIAEJJBRAhMpYGV0ZuyWBCQgAQlIQAISkIAEJCABCUhAAhKQQCSggOVCkIAEJCABCUhAAhKQgAQkIAEJSEACEsg0AQWsTE+PnZOABCQgAQlIQAISkIAEJCABCUhAAhJQwHINSEACEpCABCQgAQlIQAISkIAEJCABCWSagAJWpqfHzklAAhKQgAQkIAEJSEACEpCABCQgAQkoYLkGJCABCUhAAhKQgAQkIAEJSEACEpCABDJNQAEr09Nj5yQgAQlIQAISkIAEJCABCUhAAhKQgAQUsFwDEpCABCQgAQlIQAISkIAEJCABCUhAApkmoICV6emxcxKQgAQkIAEJSEACEpCABCQgAQlIQAIKWK4BCUhAAhKQgAQkIAEJSEACEpCABCQggUwTUMDK9PTYOQlIQAISkIAEJCABCUhAAhKQgAQkIAEFLNeABCQgAQlIQAISkIAEJCABCUhAAhKQQKYJKGBlenrsnAQkIAEJSEACEpCABCQgAQlIQAISkIAClmtAAhKQgAQkIAEJSEACEpCABCQgAQlIINMEFLAyPT12TgISkIAEJCABCUhAAhKQgAQkIAEJSEAByzUgAQlIQAISkIAEJCABCUhAAhKQgAQkkGkCCliZnh47JwEJSEACEpCABCQgAQlIQAISkIAEJKCA5RqQgAQkIAEJSEACEpCABCQgAQlIQAISyDQBBaxMT4+dk4AEJCABCUhAAhKQgAQkIAEJSEACElDAcg1IQAISkIAEJCABCUhAAhKQgAQkIAEJZJqAAlamp8fOSUACEpCABCQgAQlIQAISkIAEJCABCShguQYkIAEJSEACEpCABCQgAQlIQAISkIAEMk1AASvT02PnJCABCUhAAhKQgAQkIAEJSEACEpCABBSwXAMSkIAEJCABCUhAAhKQgAQkIAEJSEACmSaggJXp6bFzEpCABCQgAQlIQAISkIAEJCABCUhAAgpYrgEJSEACEpCABCQgAQlIQAISkIAEJCCBTBNQwMr09Ng5CUhAAhKQgAQkIAEJSEACEpCABCQgAQUs14AEJCABCUhAAhKQgAQkIAEJSEACEpBApgkoYGV6euycBCQgAQlIQAISkIAEJCABCUhAAhKQgAKWa0ACEpCABCQgAQlIQAISkIAEJCABCUgg0wQUsDI9PXZOAhKQgAQkIAEJSEACEpCABCQgAQlIQAHLNSABCUhAAhKQgAQkIAEJSEACEpCABCSQaQIKWJmeHjsnAQlIQAISkIAEJCABCUhAAhKQgAQkoIDlGpCABCQgAQlIQAISkIAEJCABCUhAAhLINAEFrExPj52TgAQkIAEJSEACEpCABCQgAQlIQAISUMByDUhAAhKQgAQkIAEJSEACEpCABCQgAQlkmoACVqanx85JQAISkIAEJCABCUhAAhKQgAQkIAEJKGC5BiQgAQlIQAISkIAEJCABCUhAAhKQgAQyTUABK9PTY+ckIAEJSEACEpCABCQgAQlIQAISkIAEFLBcAxKQgAQkIAEJSEACEpCABCQgAQlIQAKZJqCAlenpsXMSkIAEJCABCUhAAhKQgAQkIAEJSEACCliuAQlIQAISkIAEJCABCUhAAhKQgAQkIIFME1DAyvT02DkJSEACEpCABCQgAQlIQAISkIAEJCABBSzXgAQkIAEJSEACEpCABCQgAQlIQAISkECmCShgZXp67JwEJCABCUhAAhKQgAQkIAEJSEACEpCAApZrQAISkIAEJCABCUhAAhKQgAQkIAEJSCDTBBSwMj09dk4CEpCABCQgAQlIQAISkIAEJCABCUhAAcs1IAEJSEACEpCABCQgAQlIQAISkIAEJJBpAgpYmZ4eOycBCUhAAhKQgAQkIAEJSEACEpCABCSggOUakIAEJCABCUhAAhKQgAQkIAEJSEACEsg0AQWsTE+PnZOABCQgAQlIQAISkIAEJCABCUhAAhJQwHINSEACEpCABCQgAQlIQAISkIAEJCABCWSagAJWpqfHzklAAhKQgAQkIAEJSEACEpCABCQgAQkoYLkGJCABCUhAAhKQgAQkIAEJSEACEpCABDJNQAEr09Nj5yQgAQlIQAISkIAEJCABCUhAAhKQgAQUsFwDEpCABCQgAQlIQAISkIAEJCABCUhAApkmoICV6emxcxKQgAQkIAEJSEACEpCABCQgAQlIQAIKWK4BCUhAAhKQgAQkIAEJSEACEpCABCQggUwTUMDK9PTYOQlIQAISkIAEJCABCUhAAhKQgAQkIAEFLNeABCQgAQlIQAISkIAEJCABCUhAAhKQQKYJKGBlenrsnAQkIAEJSEACEpCABCQgAQlIQAISkIAClmtAAhKQgAQkIAEJSEACEpCABCQgAQlIINMEFLAyPT12TgISkIAEJCABCUhAAhKQgAQkIAEJSEAByzUgAQlIQAISkIAEJCABCUhAAhKQgAQkkGkCCliZnh47JwEJSEACEpCABCQgAQlIQAISkIAEJKCA5RqQgAQkIAEJSEACEpCABCQgAQlIQAISyDQBBaxMT4+dk4AEJCABCUhAAhKQgAQkIAEJSEACElDAcg1IQAISkIAEJCABCUhAAhKQgAQkIAEJZJqAAlamp8fOSUACEpCABCQgAQlIQAISkIAEJCABCShguQYkIAEJSEACEpCABCQgAQlIQAISkIAEMk1AASvT02PnJCABCUhAAhKQgAQkIAEJSEACEpCABBSwXAMSkIAEJCABCUhAAhKQgAQkIAEJSEACmSaggJXp6bFzEpCABCQgAQlIQAISkIAEJCABCUhAAgpYrgEJSEACEpCABCQgAQlIQAISkIAEJCCBTBNQwMr09Ng5CUhAAhKQgAQkIAEJSEACEpCABCQgAQUs14AEJCABCUhAAhKQgAQkIAEJSEACEpBApgkoYGV6euycBCQgAQlIQAISkIAEJCABCUhAAhKQgAKWa0ACEpCABCQgAQlIQAISkIAEJCABCUgg0wQUsDI9PXZOAhKQgAQkIAEJSEACEpCABCQgAQlIQAHLNSABCUhAAhKQgAQkIAEJSEACEpCABCSQaQIKWJmeHjsnAQlIQAISkIAEJCABCUhAAhKQgAQkoIDlGpCABCQgAQlIQAISkIAEJCABCUhAAhLINAEFrExPj52TgAQkIAEJSEACEpCABCQgAQlIQAISUMByDUhAAhKQgAQkIAEJSEACEpCABCQgAQlkmoACVqanx85JQAISkIAEJCABCUhAAhKQgAQkIAEJKGC5BiQgAQlIQAISkIAEJCABCUhAAhKQgAQyTUABK9PTY+ckIAEJSEACEpCABCQgAQlIQAISkIAEFLBcAxKQgAQkIAEJSEACEpCABCQgAQlIQAKZJqCAlenpsXMSkIAEJCABCUhAAhKQgAQkIAEJSEACCliuAQlIQAISkIAE6o7AK6+8El544YWw6667FjS2jz76KOy2225hoYUWCoMHDy7oXA+WgAQkIAEJSEACEigfAQWs8rG1ZQlIQAISkIAEKkTgv//9b0B8+u6778JXX30VDjvssPDhhx+G6667LnTv3n28vfjnn3/CVVddFQ444IDwn//8J/z0009h0kknDW3atAn8bt11141iVrt27So0mtJfhnE98sgjYccddwwnnnhi6N27d0EX+f3338OBBx4Yvvjii3DLLbcUdK4HS0ACEpCABCQggVIQUMAqBUXbkIAEJCABCUigqgReffXVsMMOO4S33norik4IWlNNNVW44YYbwoYbbthi3x577LFw0003hUsuuSRsueWWYbnllms6Fg+uoUOHxrZ69OgRzj777DDXXHNVdZyFXBwOd999dxg+fHj466+/wkMPPRTefffdcN5554U999xzgk39+eef4Y8//ggXXHBBGDNmTBTA5plnnnDfffdN8FwPkECWCXA/cF9PNtlkYeKJJ86rq3///XcUuNM20UQTxTb4u9GM5ws8EPs1CUhAApUioIBVKdJeRwISkIAEJCCBshFgc4k4061bt+iF9csvv4Spp556vAIWG7ABAwaEI488Mqy44orh4YcfjpvRxH7++eew8847R4FrzjnnDLfffntYZpllyjaGUjf88ccfh5VXXjn8+uuv4dtvv21q/vzzz89LwFpkkUWi8DV27NgoZGHrrLNOFMQ0CdQqgc8//zxsv/324dlnnw233nprWHvttSc4FO4DnhMXXXTROMfOPffcUeTu3LnzBNuohwN4Zn799ddxKO+88064/PLLw6mnnhr/j8cqLw00CUhAAuUkoIBVTrq2LQEJSEACEpBAxQmw0WRTNSEB65tvvgkLLrhg+P7778Pqq68eHn300XH6imiDgEUY4gwzzBDFLkLv8vXYqPjAW7jgp59+GseBQMdGPF8Bi+bwwjrppJNCv379YusKWFmZVftRCIEPPvigSXhFtEpEWLwJJxRijGDTv3//eP+3b9++yaNz5MiR4cknnwzLL798GDJkSHyW1LPxkuDOO+8MPXv2DFNMMUX8kxjPlU033TT06tUrCoKTTz55PaNwbBkngGcgL24QXNPGZ/c000zTkB6TGZ+ygrqngFUQLg+WgAQkIAEJSCDrBIoRsNiEPvDAA2G66aZrGl5awOKHm222Wbj22mtrcnNGCOBOO+0UCJksRMBi3His4HmGEKaAlfXVb/+aIzBixIiw1157xV8hSCUeiRMSsHgGHH/88eH0008Pk0wySdh8882joI3h4cg9RWgu4cV77LFHTT4b8l0xt912W9h9993DDz/8EPbZZ59xQrNhgNA988wzx+cLnDQJVIsA9/uZZ54Zfvvtt3G6MP3004dTTjklLLrootXqmtctAQEFrBJAtAkJSEACEpCABLJDIF8Bi2TthBw+99xzMfSF3FBsSBPLFbDIkXX11VfX5CaVcEjGdvPNNxcsYMEDz4uNN95YASs7y9yeFEng8MMPj4IUNiEBi0IQ2223XfS0Iv/bHXfcEZZccsmmK59wwglh4MCBgfsLYQuROx2GXGQXM3ka4j7PTEKL33777XH6+Pjjj8cchHi69enTJ4oEbdu2zeQ47FT9EiCv3UsvvRS9BHnhgjdg4ilIaoGnnnoqzD///DEdACJWI+auq4fZV8Cqh1l0DBKQgAQkIAEJNBHIV8DiBPLXEG7Yt2/fsNpqq4WFF164WQGLEEI2qoTi1VoIIQNqjYBF6NBll10WPUz0wPJGq3UChQhYVNxElMKo4HnGGWeMI8y8//770RMJQadr167hxhtvDDPOOGOtI/pX/xHyOnbsGEOQqdi61VZb/euYo446KvLB7r///hiWrUmgkgQQqPiMHj16dNh6663j5xapBDAELTwHEaHJDcnvFlpooUp2z2uViIACVolA2owEJCABCUhAAtkgUIiAhUcB4UR4V+Qam1O+DBN2V4tJ3NPjIeEyHlh8wS80hPCzzz6LSaq//PJLBaxsLHF70QoCxQpYeG0deuih41y5UQQs8oQ9+OCD0ZuF3ELN2SuvvBK22Wab8N5778VnDB5Z5sJqxUL11III/P777+Hkk0+O3pXTTjttuPTSS2NetsTIhzVq1KgoXuGpRV47vAW12iOggFV7c2aPJSABCUhAAhIYD4FCBKyWmqHyHh5Hd911V5hyyilj1bITTzwxzDbbbDXJ/oUXXohi3BtvvFGwgEWuH6qtYXpg1eT02+kUgXwFLDbEhA/ihUVYIDl18OBIW1rAmm+++WJVvjXXXLPueC+xxBLx2UGodUsCFiwQDF577bUYunX99deHdu3a1R0LB5RNAnxmkxIAb0hyWhImmPt5TT5H1jJ58FZaaaX4QkerPQIKWLU3Z/ZYAhKQgAQkIIEyClhU3hs2bFisqMWbXIQfNr2zzz57zXJvTQihAlbNTrsdb4ZAvgIW1UmTcEDyXt19992xCmHa8E7cZZddwr333ht/PHjw4LD33nvXHXcFrLqb0robEKIUYb7ktWvTpk246KKLYhhh2hSw6mPaFbDqYx4dhQQkIAEJSEAC/0egtR5YVCPE++qjjz6KIQb9+vWr+bw2CljeHhL4H4FiBKxVV101kKg81whLIlSJ5wVhSQpYemB5n1WHAPciHpAIyBRgWW+99WJOOsSsxBIBi+qEBx10UKAIg1Z7BBSwam/O7LEEJCABCUhAAuMhUKyARbLyRx99NIYJIV7hdcAXXPK/1LopYNX6DNr/UhEopYBFn6644oqw66671rWAtcUWW4Rbb701hlK++OKLYbHFFvvXdFDk4qSTTgo//vijIYSlWqy2UxABquVyL5KvEVt33XVj6H9SgID8WBQaWGCBBWIBl6WXXrqg9j04GwQUsLIxD/ZCAhKQgAQkIIESEShGwMJ7gnxX++23X/zyi+cVlQkpBT/NNNOUqGfVa+bll1+OSdzJT1NoEvcffvghnnvbbbeZA6t6U+iVS0RAAatwkFRwo0Ir+a86deoULrjggrDiiivGhr766qtwww03hOuuu64pp5A5sApn7BmtJ8CLmmuuuSZQEfObb74JE000UczfSNVMXlBdcsklsSrhOeecEzbZZJNYlECrPQIKWLU3Z/ZYAhKQgAQkIIHxEChGwHr++edDz549Y6ntueaaK27IVlhhhbrh/O6778ZcXk888UTBAha5RXiTjeeFSdzrZkk07EAUsIqb+tNOOy0ce+yx4a+//oqeK9dee20U+E899dQoCCAQJKaAVRxjzyoNAdYj3wN++eWXcRqcYYYZosdkjx49SnMhW6kKAQWsqmD3ohKQgAQkIAEJlItAoQIWOa9IxIznFSLPwQcfHOaYY45YcSsxxBvyauB1MPHEE5er62Vr1xDCsqG14RojUIyAtcgii0QPxA4dOowzWu4rwuYGDBgQyMFTrzmwGDRj7d+/fxzvJJNMEoV+QgrJJ7TccsuF119/PSCUYwpYNXZT1FF3n3766bDvvvsGvI432GCD+FKKz29s0kknDSuvvHK8T0kRoNUmAQWs2pw3ey0BCUhAAhKQQAsEChWwSND85JNPRm+CUaNGxb9z7YADDoilt0kSO/nkk9ccewWsmpsyO1wmAsUIWOR8uuOOO2LunLSNGTMmenMQmovVs4DF+AghJM9Q2qaffvqw0korhUMOOSSGaCFqnX322aF3796GaJVpDdts8wQee+yxWFCBz/Htt98+nHnmmYFKodyjibjKCyg+86lSiDCt1R4BBazamzN7LAEJSEACEpDAeAjkK2D95z//CYMGDWoKiyHB64EHHhjzZiT2+++/hyFDhoRDDz00hs8RNqOANdz1J4GaJZCvgEUycpI/f/LJJ1GIOeuss+LmOG3vv/9+2HDDDcPbb78dN8XXX399mHPOOWuWTWs6vtdee8XcWAgEJNLGK2266aZrTZOeK4G8CRDaeu6554YjjjgielqR63HHHXeM53/xxRfRC6tXr17hu+++CzPNNFO4+OKLw2abbZZ3+x6YHQIKWNmZC3siAQlIQAISkEArCXz44Ydh2223jcmE8QTYf//9w/HHH99sIvZvv/02LLroojF0kE3X+uuvH5ZccslxeoDX1c033xwTwvJlt1YFrGeffTYmYh85cmTkQyWm2WabLS/aH3/8cUyEi80///zRC22NNdbI61wPkkDWCOQrYNFv7vftttsuDgGBGyE7bWkBq2vXruHGG28MM844Y9aGXJH+JAIWYh8FMQgjTL8MqEgnvEjDEiBUcL311ovekHgE4jHZrl27Jh4IXMOGDQu77bZbDHvlM+zhhx9uWF61PHAFrFqePfsuAQlIQAISkEAkcN9998X8VXxJRZgiHw2GtxQbynnmmSdcddVV4+SwWWWVVcIzzzwTqECItbTZoi3EHhK7r7baajW1KUsSKzN28nxh8803X7jpppuiWMeYyWfTkv30009RuCNPWGL9+vULhx12WBT9ajEfmLdMYxMoRMAi7xXrn2cE4UbcN3hlJcZmGA9N7rPu3btHDywSRdej8RzEaxXLvfcRC7bZZpsYYkiOLIS+WvRUrcd5a5QxjR07NnTr1i16Q/LChrxsuZ/pn3/+ecx9xYspRC5edGm1R0ABq/bmzB5LQAISkIAEJJBD4IUXXoheReMz3riy4UwEG/JCbbzxxmHKKaeMGzP+j9g1YsSI2AxJitm48sW4S5cu4bzzzoviT60YnmVsqvG6aslWX331MHTo0DDzzDP/6xA26+QRSYxNOuySTcGmm24ac4zk68lVK9zsZ30SYP3y55hjjgkDBw6Mg6SC3u677x7I49ScGIunBsLvddddF3PjERbHPUGI0ujRo6Nonnh7EqJUz4mh8araZJNNIrfjjjsuhl5jiAFUKOT5i6cmYYR4s2oSqCSBtIDFC5utt946emGnTQGrkjNSvmspYJWPrS1LQAISkIAEJJBxAh988EHcmCYCFt4TJILFqESIEZqw+OKLN4XRZXxI43TvnXfeCfxpycgFsvTSSzfrLXHvvfc2ebLh2TZ8+PAYdjHttNM2NbfsssuGWWaZpZaQ2NcGJEAFUfLjPPLII1HQfe+99yKFNm3aRE8NxJjOnTtHISvttcFzgTAjwm6/+uqrGJKEeLP55pvHHDr8m2qleHWRPy99b9Qb5rSARcJ2PDHx0DzhhBOiuI+HFjmHLrvssnobuuOpAQJpAYt8dBQbyPWGVMCqgYnMo4sKWHlA8hAJSEACEpCABCQgAQlIoDYJPP744zHsFSOnG5XJcm3vvfeOnkQIUrlGXh2q6uF1RZhcYlQlRLRBwKr3cNq777474HWJqIdQh6fVm2++GU4++eQ4dkQD8uPlVmqszRVjr2uNAAIzQvNDDz0UPSHJd0XOxsTjGm9qvCQJM8SzsmfPntGzUqs9AgpYtTdn9lgCEpCABCQgAQlIQAISKIIAYtbzzz//rzMJFcQDqyXD24icWGyUE9tggw3GyatXRHdq5hQS1t9+++3h+++/j0JVYoQfb7nlljGBdqdOnWpmPHa0/gggqOIJidck+SqXX375WDmUkF+Ea/6NB+YWW2wRxer27dvXH4QGGJECVgNMskOUgAQkIAEJSEACEpCABCTQWgKEE48ZM6apGaoOki+w3j3QWsvN8ytDgJD/vn37hieeeCKG/y+44IIxLJgwYgoLrLjiijF3Y7pCYWV65lVKRUABq1QkbUcCEpCABCQgAQlIQAISkIAEJCCBqhLAWxARKzFCCXv06BEFLK22CShg1fb82XsJSEACEpCABCQgAQlIQAISkIAEJFD3BBSw6n6KHaAEJCABCUhAAhKQgAQkIAEJSEACEqhtAgpYtT1/9l4CEpCABCQgAQlIQAISkIAEJCABCdQ9AQWsup9iBygBCUhAAhKQgAQkIAEJSEACEpCABGqbgAJWbc+fvZeABCQgAQk0LIE///wz/PPPP5kYP5W4NAlIQAISkIAEJCCB8hFQwCofW1uWgAQkIAEJSKCMBE499dTw66+/xit88cUX4cUXX4z/nmqqqcIyyywT2rRpE15++eUw9dRTh3nnnTe88MIL4aefforHdOzYMXzwwQfhl19+KUkP+/fvH9Zaa61YrrtS9uqrr4axY8dW6nIFX6dr166xbLkmAQlIQAISkIAESkFAAasUFG1DAhKQgAQkIIGKE/jhhx+aPLAQch577LHYBwSr1VdfPUw33XThySefDNNOO21YeOGFw6OPPho4B0PgGj16dJOg1drODx48OPCnS5curW0q7/OfeeaZMGbMmPEej0B31llnhVlnnTXMOeecYc0114xMFllkkdC+ffvI4KuvvgqrrLJKePzxx8Mcc8wRFlhggXDNNdeEzTbbLNx1110BIerII4+M11lsscXC9ttvH8uTTzrppAERjeNHjBjxr3707Nkz8ujVq1feY/JACUhAAhKQgAQk0BIBBSzXhgQkIAEJSEACEmglgVtvvTW88cYb4aijjgoTTzxxK1sr3en/+c9/osiFJ9SUU04Z2rZtG7777rvoncb/EbgIxZxxxhnDN998E73XEAARBGefffbo2dauXbswcuTI2CnOm2uuucK3334bvc1+/PHHePzXX3/9r04T3onYhafc+uuvX7pB2ZIEJkCA9Yk427dv3yhyl8rTMh/wF154YfT2XHLJJUOHDh3ifVQLxnOA+/2vv/4qS3d5tkwyySTxGfTxxx9HLoZelwW1jUqgrgkoYNX19Do4CUhAAhKQgAQqQeDTTz8NO+20U1h33XXjpln7HwG80vr16xfOOOOMsN1224lFAmUngBC74447hrfffjscffTRUZB5//33y37d5AKIwYhBiMbzzTdf2HLLLSt27dZcaMiQIVFsRvzLtV122SVcffXVcVzF2txzzx2mmWaaGGp9ySWXhD59+oTjjjuu2OY8TwISaFACClgNOvEOWwISkIAEJCCB0hHAy+PDDz8M66yzTvT80P5HAG8veKy33nrh/PPPD1tvvbVoJFBWAosvvngUknfbbbew0EILxWtVq9gDXopZ8sgcH3jEpBVWWCEgNOXa/PPPH3MG/ve//y167pL8gPDAMxTvq2R+im7UE+uGACLp888/n9nxECo/dOjQsMcee0QxV6seAQWs6rH3yhKQgAQkIAEJ1BEBPD0233zzuAE855xzKprQPesYSabPF382yYhZlUx2n3U29q80BD777LOwzTbbxJxsF110UczRpuVHgLDH4cOHR49JcuVpEqgkAT4XBg0aFJZeeukY2t6cIXiSl/H2228Pa6yxRnjnnXcCYjXhqITsJnbooYeG6667Lv68lIbwSh9mmGGGcMUVV5SyadsqkIACVoHAPFwCEpCABCQgAQm0RIAzA4CaAAAgAElEQVSE6Ag0V155Zax0qP2PAJ4bJNnfZ599wsEHHxxzY5EPR5NAKQiQ44pQveWWWy6KpAqk+VMdNWpU9Fbbd999wxZbbJH/iR4pgRIQIHfkXnvtFXr06BF23333mFOxJeO+xpsy9/5Oe1gmvyuX16XPlhJMeiubUMBqJUBPl4AEJCABCUhAAmkCVPCbbLLJ4mbQL7vjro3XX389vkUn1w5VCuXjvdNaAoSprrzyyqFbt24x1xr3npYfAYTle++9N1Zo7d+/f34neZQESkQAkenmm2+ORUDw0NUkkA8BBax8KHmMBCQgAQlIQAISyJPAU089FasR7rzzztErpKWQiDybq7vDRowYEQYOHBh23XXXsOGGG1qJrO5muHIDevfdd8MBBxwQ5plnnjBgwIDxem9Urle1cyXCLg8//PAoJm+yySa103F7WhcEKBjA2sP7ivtYk0A+BBSw8qHkMRKQgAQkIAEJSCBPAkm4HJ5GF198cfQ40v4/ARI433nnnYGkvWeeeWbMW0TFNk0ChRAYO3Zs2G+//cJ7770XbrnllkCica0wAoQ6P/zww4EcWArthbHz6NYTwOvv/vvvDxdccIEJ/VuPs2FaUMBqmKl2oBKQgAQkIAEJVIrAF198ET2MOnToEI4//vjQpk2bSl26Jq7z/vvvh5NPPjmKD3vvvXd8A2/oV01MXSY6ScVPcjbNO++8oV+/fmG66abLRL9qqRM8o7gH8bxae+21a6nr9rUOCFDVkmf/YostFvPW+RlZB5NaoSEoYFUItJeRgAQkIAEJSKCxCHzyySdRvCKUcJVVVmmswec5WkItH3/88dCnT58YSjK+BL55NulhdU6A6mIPPPBArDKGB9aMM85Y5yMu/fComHrTTTeFW2+9NZx77rlh1llnLf1FbFECLRD4888/o3cyHrjDhg0LyyyzjKwkkDcBBay8UXmgBCQgAQlIQAISyJ8Am0Q22CSZvv766/M/sYGOpHocJclPPPHEuJnZeuutw6STTtpABBxqIQTw2Dv00EPD0ksvHe+taaedtpDTPfb/CHz66adhxx13jGG83HOaBCpJAO8r8kNuuumm4ZBDDvGZX0n4dXAtBaw6mESHIAEJSEACEpBA9giQC+uOO+6I+WUOPPDA0L179+x1MgM9GjlyZKyE9thjj4XtttsubLTRRiZ2z8C8ZK0Lb731VjjttNNCu3btwhFHHBFmnnnmrHWxJvrDc+m6664LDz74YBSPNQlUmsDll18ehg8fHoudLLnkkpW+vNercQIKWDU+gXZfAhKQgAQkIIHsEvjjjz/iF3VEmt69e8fNt/ZvAiR2R8Q655xzooi11VZbmVTahdJEIMmZNvfcc8fcVzPNNJN0iiTw1VdfRQGQ+6xLly5FtuJpEiiOAKG/hNZTvKNr167FNeJZDU1AAauhp9/BS0ACEpCABCRQCQKnnHJK+P3338MxxxxjsvLxAH/kkUfCYYcdFsNKqN440UQTVWJ6vEaGCYwZMybstttu4euvvw633XZbTNyuFU/gqaeeChdddFEUi6effvriG/JMCRRIgNBVErfjPXnqqaeGtm3bFtiCh0sgBAUsV4EEJCABCUhAAhIoM4FXXnklnHfeeeHggw+OlQm1lgncd999YfDgwWGHHXaIOVKsTti4q2XUqFExbJCqg6wH8jVNOeWUjQukFSMndPDZZ58NRx99dNhzzz3D5ptv3orWPFUChRHAy/auu+4K+++/fxRPN95448Ia8GgJ/B8BBSyXggQkIAEJSEACEigzgV9//TUMGjQoPPPMM2HgwIGKWOPh/ffff4eHH344HHDAATFhd69evcIkk0xS5hmy+awRGDt2bMwd17Fjx7DXXnvFhO2KV8XPEpXfuJcQA7m/rPhZPEvPLJzAzz//HPbYY4/w22+/haFDh4apppqq8EY8QwJBDywXgQQkIAEJSEACEqgIgUcffTRWXjrrrLPi34oy48f+0ksvxQ3PscceGzbccMOKzJEXqT4BhJZ33nknHHTQQVHopUKloW6tn5cHHnggCoE33XRT6NSpU+sbtAUJFEAA7ys8rwYMGOD6K4Cbh/6bgB5YrgoJSEACEpCABCRQAQLkwCKHzzXXXBPzgKy77roVuGptX4JKaYQ87bfffmHbbbet7cHY+wkS+Ouvv8IJJ5wQbrzxxijyEnI7wwwzTPA8D5gwgT59+oRffvklPn80CVSSwLfffhsrDq600kph++23N7dhJeHX4bUUsOpwUh2SBCQgAQlIQALZJEAekE022SQstthioX///tnsZIZ6Rd6e119/Pay55pph1VVXDZdeemmYddZZM9RDu1IqAsz1PvvsE6644opYaZBKZYa5lYYubKebbrpwww03hA022KA0jdqKBPIg8OOPP8YiDIjTF198sZV482DmIeMnoIDlCpGABCQgAQlIQAIVJEBC9759+8Yqe7179zYXSB7sX3311ZjAm3Cyzp07h4UWWiiPszykVgj8888/oV+/fgGPu2HDhsV8V+bIKd3sLb744qFHjx4xHHfyyScvXcO2JIEJEOAFxFZbbRV22mmnmNNQk0BrCShgtZag50tAAhKQgAQkIIECCLBZP+OMM8LJJ58cnnvuOcWYPNjhQfL888+Hp556Klx77bXhsssuC0suuWQeZ3pILRAgWftbb70V57V9+/a10OWa6eMtt9wSxYNvvvnGip41M2v10VGe2yeddFLMu/byyy+HSSedtD4G5iiqSkABq6r4vbgEJCABCUhAAo1KICljz6bdJNX5rYIPPvggClfzzTdfFLOmmWaa/E70qEwSIKSWapNUJfv888/DFFNMkcl+1mqn3njjjbDyyiuHd999N8wyyyy1Ogz7XaMEKMZA+DdVLxdeeOEaHYXdzhoBBayszYj9kYAEJCABCUigIQj8+uuvYcUVV4zV1nbYYQcT2+Y56yTDp5oVniXnn39+DCmceOKJ8zzbw7JA4O+//w7MIxU5n3322ehVR9igVloCp512WqD6KWGZbdq0KW3jtiaB8RCgYMDAgQNjKLChgy6VUhJQwColTduSgAQkIAEJSEACeRIgvIKk5JdffnlMbrvEEksoYuXJ7rfffgtDhgwJt99+ezjmmGMiO5JUa9kngNcVgsrgwYOj5+G5554b5p9//ux3vMZ6+NVXX4UtttgihmUusMACNdZ7u1vrBKggyn3+9NNPhznmmKPWh2P/M0RAAStDk2FXJCABCUhAAhJoPAI77rhjDLG46667zOtU4PSfeeaZMfn3pptuGk455ZQYJjXRRBMV2IqHV4oAnlcjRoyIc4V4dcEFF4Q555yzUpdvmOuMHTs2bLfddjG/HgLhlFNO2TBjd6DVJ/Dxxx9Hr+JFF100eslq5SFAPs0//vgjr8b5XKSAQz18Pipg5TXlHiQBCUhAAhKQgATKQ+Cxxx4L++67b+jWrVsg5MdEt/lzpkQ7IsiVV14Z1l9//RiOOfvss+ffgEdWjAAhg7fddlv0CNp7773DRhttFCaZZJKKXb9RLoRn54UXXhgLRTz++ON6vzTKxGdonFQdXGSRRcIJJ5yQoV7VX1e++OKLcPjhh+c1MEK0mY8ZZ5wxr+OzfJACVpZnx75JQAISkIAEJNAQBCg1vttuu4W+ffuGLbfcsiHGXKpB8gaaBOB4YuFpctxxx4V27dqVqnnbKQGB999/P9xzzz2xGtmRRx4Z1lprLYXaEnBtromffvopbLPNNmH33XePoq4iYZlA22yzBJ544okonpLXjvxXWvkIjB49OnTo0CGvC6y33nrh6quvDm3bts3r+CwfpICV5dmxbxKQgAQkIAEJNAyB/v37R/GF/E5a4QSoUMjbaPKtIAS2b9++8EY8o6QEyHf16quvhuOPPz4Q1sbfeF5p5SHw888/R29EQriOPfbYMPXUU5fnQrYqgWYIsP6WXXbZuPYQUeshXC2rE42nJfnFVl999ShKUcykS5cu43T3zjvvjMeQH5I0BUsvvXRWh1NQvxSwCsLlwRKQgAQkIAEJSKA8BNh0HnLIIeGII44InTp1Ks9F6rxVGJJfiY07IZlrrLGGXgBVnPOXXnopViJbfPHFw8YbbxwWXnjhmIdFKw8BvF6o+IaIxWbW6pzl4Wyr/yZA1UE8r5566qlw6623+twt8yLB05J7HO9WckGuttpq/yrWsM8++0RPOELr999//7qpRKqAVebFZfMSkIAEJCABCUggXwIkuV5++eXDDTfcEBMwa4UToPrafvvtFxmSH6t3795hsskmK7whz2gVgTFjxsR5WHnllaMoq5WXAGG0bFKnmWaaMGDAgLoIFSovMVsvJYFRo0bF8GCeuRTT0MpLAE9tcmbysmb77bf/V667t99+O+yyyy4xVJvQ7XqaEwWs8q4tW5eABCQgAQlIQAJ5E6CqEB4ruP2T02mxxRbL+1wP/P8EEE8QTeB49NFHh5133rnZnEuffPJJ+PTTT2sWHR42CJ3kOXrrrbcCiXpJ0vvdd9+FGWaYIYaSzTzzzDGUB8+nKaaYInz22Wfxd1T/K0eIz/fffx+effbZuLnC4+r000+P19PKS4Bwofvuuy+GIdfTZrW81Gy9FAQI3yZB+EorrRR23XVXPf9KAbUVbfz5559RSCSU/qKLLooCF8/+ejEFrHqZScchAQlIQAISkEBdEEAAoIoTCclvv/32uhhTNQaBJxbhVPfee2/MjYU3UDqkipxMhFi88MIL1eheSa6JcEVOKTYneJwhSs0///zhvffei3+TUJnwPYSqNm3aRCGJ8c4zzzzRM6ocAhYhLYQQffnll6F79+4xYXu5DKFms802i15HjWwItQceeGBYc801o3CoSaCSBPC8wnuYULVZZ521kpf2Ws0Q4LNt2223jS8tLr744jDffPPVFScFrLqaTgcjAQlIQAISkECtEyA56wMPPBB69eoVLrnkktCjR49aH1LV+k+Z8T333DN6ppAnhEqPSVW2J598Mqy66qpV65sXbj2B6aefPpx11llhp512an1jNdwC3i+33HJLGDx4cMyFo0mgEgTwGH700UfDYYcdFi677LIolmvVJfD777/HXGSEEZMPcq+99qpuh8pwdQWsMkC1SQlIQAISkIAEJNAaAj/88EN8g0pFPb6MUkVIK44AIYJssB588MFYBW/33XePDaUFLPKEsPHHg2lChsBIiNzXX38dvZxefvnl+IY7CZPDE4H2qMiFNx0/f+edd2KzXbt2DbPNNlv8NxsNPOzwmvnrr7/CI488En+O5x1hgYQEUsWvOaPiFCXUqSqFl1UjW8+ePcPll18eELMa0QgJxbsQTzwqv5nvrRFXQXXGTB4mXrDw7KQAST2FqVWHaOuvetttt8WQeZ6Hl156afzMqTdTwKq3GXU8EpCABCQgAQnUPAHebCO89O/fP4a5mdC9dVOKIHj//ffHfFh4YR188MHjCFiEoSEU5pM7iLl5/fXXY56p9u3bB5IXIzSSfwpDdMLLi80dlaII3SMXFUaC/nbt2sV/I1pR2nyZZZaJ5yShjIR9zD333LG6FGJZc9ahQ4dA3hlypCGgVcvOPvvsAA9ENDavJ510UhT1Sm2Ijwh75HY5//zzx2keoZc8L3BuRMNb8/rrrw8nn3xykzjaiBwcc+UJUHmQsMF99903dOzYsfId8Ir/IkAFUjxS+UyjAmE9Vn1VwHLhS0ACEpCABCQggQwSQLw455xzYogGf88111wZ7GXtdAnPKHKLkbidpLYIIohZGLmySDauFUbg3XffjWLgt99+G4YMGRI92MrhhfHjjz/GfF2IZeTWQrThur/++mtMWo5nXSMaXnqIsuutt17TWm5EDo658gTIMUhuQYR7Co40qoBcefItX5HKg5tvvnn0/B06dGjo0qVLlrpXsr4oYJUMpQ1JQAISkIAEJCCB0hLAC2eDDTaIX0rxbtFaR4CwPkLv8Gp77bXXAh4ECljFM91jjz2iV9SgQYMqGsJHknhESOavkQUscl+RwH3YsGFNHoDFz6ZnSiB/AldddVXYf//9wz333BNWXHHFshSEyL83HolHLy+6jj322Fh5llBCQs3r0RSw6nFWHZMEJCABCUhAAnVBAC8sQt969+4drr766rD22mvXxbiqOQi8eEaOHBk6deoUw/gUsIqbDXJPffPNN+GOO+6oqHhFbxWwQhg+fHjo06dPzHPTrVu34ibRsyRQBAGen3izImCzBpPCGEU05SklIoA3KrmvbrzxxlhlVgGrRGBtRgISkIAEJCABCUigMAIILhdeeGHMp8Qb73KEaBXWo/o4+rHHHgtrrLGGAlaB00k4H2Fr5OAibHCmmWYqsIXWH97oAhZzQH68qaeeOhxxxBF6v7R+SdlCAQRuuOGG+JlE3rWVV165gDM9tFwE8EYl99VNN92kgFUuyLYrAQlIQAISkIAEJJAfAXJbIF6R6+bAAw/M7ySPGi+BdBVC2FJ23Apu4180JKan4h2hmOeee25TQvpKL7VGF7AoIkD1N5JnH3DAAZXG7/UamMAff/wRBez111+/bnMs1eL03nXXXdFTm9xkemDV4gzaZwlIQAISkIAEJFBHBPC+Imk1yVkHDx4cc1xorSOQFrBI6E4eJ0Iw9HBrnitVF0na/Mwzz8Q3/Ygnk046aesmocizG1nAIok97EmYf+aZZxZJ0NMkUDgBvIERri+77LJw8803hwUXXLDwRjyjLAQuv/zysMsuu8S2FbDKgthGJSABCUhAAhKQgAQKIfDCCy9Er4tjjjkmflGtlnhQSJ+zfGxawKKCFqIgAg3Jwaeaaqosd73ifUO8ImH4p59+GoU+xJNqWqMKWFTSvOaaa6KIQO6xOeaYo5rT4LUbjABFRfr27RuWWGKJ+EJl+umnbzAC2R2uAlZ258aeSUACEpCABCQggYYkQOgGm1f+ICasuuqqDcmhVINOC1h4XpEwH1GAao+EYihi/Y/0t99+G4466qhwyy23hFNOOaXpLX+p5qGYdhpVwBozZkzMOXTYYYdFLyyTZxezejynGAKIp3hdPfTQQ1HEJv+alh0CCljZmQt7IgEJSEACEpCABCSQIrDbbruFP//8M1x88cWGu7ViZaQFrEMPPTTstddegb9feuml6Im13XbbBUILG9k+//zzGKb21ltvhY033jgymWaaaaqOpBEFrOSeJ4T4qquuCssvv3zV58EONA6Bzz77LBx//PGhe/fugQqkWrYI8GIryYe3wQYbxJcN9eqhOdE/BLNqEpCABCQgAQlIQAI1QeC+++6LG4l+/fqFrl271kSfs9jJXAHr9NNPDx9//HGgOiEiAXmeCCdsVE+Dr7/+OgwcODD88MMP4cgjjwxzzTVXZqaxEQUsKg9uueWWoXPnzuG0007LzFzYkfonwNq78sorw+yzzx7Fq4knnrj+B11jIyS8e+TIkbHXHTp0qHqYdznxKWCVk65tS0ACEpCABCQggRIT+OKLL+KbVjxhTj31VBO6F8m3OQGLphBuqEpIqfjzzjsvClmNltj9m2++Cccee2wgYTgeWFkSr5ijRhSwXnzxxTgnd955pwJCkfe8pxVHgGcl+Revvfba0K1bt+Ia8SwJlIiAAlaJQNqMBCQgAQlIQAISqBQBkukSSkgi3XXWWcdcOEWAb0nAoin4kveJintHHHFEFLEmn3zyIq5Sm6eMHj06jhmhFK+frFmjCVj/+c9/Ah6CrEHueU0ClSJADrz99tsvkIOR4gGzzTZbpS7tdSTQLAEFLBeGBCQgAQlIQAISqEEClDK/9957o9Cy1FJL1eAIqtvl8QlY9AxPN3JhPfDAAzFp9u67794wIhb5lsaOHRvatm0bpptuuupOVDNXTwtYG220UQxvmnHGGTPXz1J1iCqQ22yzTTjnnHPCwgsvXKpmbUcC4yVAYYvhw4fH3ICErW+22WYSk0DVCShgVX0K7IAEJCABCUhAAhIonACbC0IIZ5ppptCnTx+9sApEOCEBi+ZIXEw44d133x1D6ahOONlkkxV4JQ8vNYG0gEXbb7zxRujYsWOpL5OJ9qj+duCBB8YE+iuuuGIm+mQnGoMAXlcHHXRQeOedd6KQpUkgCwQUsLIwC/ZBAhKQgAQkIAEJFEHgnnvuiSFuN910U1hooYWKaKFxT8lHwIIOid1h/Mgjj4RjjjkmemJp1SWQFrAWWWSRcP/992cuT1epCFEVc5NNNonrUJNAJQm8+uqrsZDF2WefHbp06VLJS3stCbRIQAHLxSEBCUhAAhKQgATKSOD111+PZe9XW2218OCDDwbCs1oyPKoQS7D55psvhq5hv/76a3j00Udj8uann3467LnnnnHTzs8JcyOxLp5YJHlOSmeTiPupp54KhFhp4xIgrwteazfffHP8BSEy5BhqyTiefFC33357rMqnVZdAWsBaYoklYijtnHPOWd1OlenqPAMIG9xll13KdAWblcC/Cfz0009h5513DtNPP30YNGhQJkOJnbfGJKCA1Zjz7qglIAEJSEACEigzgSeeeCKKHggeH3zwQawWSF4lQv9aMjbjCF4YVQbxLsFI4kxFuIkmmiggTC244ILh888/jzmZaJPfY4sttliYaqqp4r8RyjiW0ueNap07d46hlVRwW2+99cKoUaPCpptuGpO0k9OF8CxsQgIWx8AfEYG/d9111/iH+dAqTyAtYFEdbciQIXGjXW/29ttvx7DVhx56qOm+rrcxOp7sEfjnn3/Cyy+/HNZcc81w/vnnh169emWvk/aoYQkoYDXs1DtwCUhAAhKQgATKSeCuu+7S+6mcgPNoe4oppohHkctl6qmnDn/99VcUBhGufv7556YW8hGwOBhPrL59+0aPH8IJ99lnnzx64SGlJpAWsJhPKnLigVhtW3fddcNzzz0X1wmGeLrhhhuGJZdcMgoCs8wyS/j++++jCIpIsNZaa423y+S+wrOMPESIpbSLF2cWK0NWm73XLx0BXn4gWn344Yfh4Ycfjs9OTQJZIaCAlZWZsB8SkIAEJCABCdQVAQWs2pnOfAUsRoRHHV4xI0eODG+++WbtDLKOepqbxD0rnnCzzTZboGIggilGv/CAxDsM4QpBFRE1+T1emeOz0aNHR8/NpMIiwgLiV/v27WtiNglnpkLkkUceGSvYUQChX79+Ae9ULbsE7rzzzijOP/bYY2GeeebJbkftWUMSUMBqyGl30BKQgAQkIAEJlJMA3j2nnHJKrBKI4Ukx5ZRThkUXXTRsvPHGRV363XffjblIdthhh7DCCitELyJEsnXWWSf0798/jBgxIlZjI9lu165dw0cffRR/h4fKxRdfHJNcExLy1VdfReElnRQaD5ZbbrklhhxW2givxAiHZExzzz13/D+eJtNOO21YbrnlohBAnz/55JNAmCWeLYRifv311zGU8vfffw8rr7xyaNeuXTwXVogGhFZyHCGEbP65xjLLLBPziKWtEAGL87guIYR4/QwcODAT3j+VnrdqXi9XwKpmX7x2ywTI2demTZuYq497j/v4t99+a8qntOyyy4bLLrus6Z6XZTYI4GVK5UGELE0CWSOggJW1GbE/EpCABCQgAQnUPAEElMUXX7wpYfvJJ58c8yyxgWNTV4wRcoQYw/mJx0nyf4SaMWPGxHAlkr+z8Uhfi98n/6ed5E/Sj0QQ4ueVtk8//TT2B+8M+pnk7EJkInSF8Cv6DlPEKhJaw4Bz8HZBkMOjZamllmryVEG8m2666aK3C4b4hYDFNZgXEuDvscceTZ4whxxyyHiTuDfH5Mcff4xJ9tmQX3LJJVFUK3ZuK8281q+HgIWQ+8svv8ShlJJ9cp/RZtr4Oetz0kknbfoxgis/T+7J5L7iXNZssv5Yd8n5nJy0kVwr935sbn5oM8l1V+vzl/Sf+/uiiy4K2223Xb0MqebHwVzccccdsbJt9+7da348tTQAngNJXkaeKckziPs+/bmfjCk5nudJS16oybOlnj6bFLBqaVXbVwlIQAISkIAEaoZAOoQQAYswmkrY+uuvH6699towwwwzVOJyNXkNNgl4nG211Vax/4V6YCWDvvDCC8PBBx8chUU8SbbZZpua5FFrnU57YLVt2zY888wzsbBBKYyiCKwNKn2mDfGUcLikMii/w1PlnnvuCWeffXYUTPFg5N5DlMF7kCIM3IeEYuGVSZv0k+cBRpuIzWPHjg3XX399/BlrEwEWITcpyICn33777RcLD9S6ca/g3YMxPlhtv/32tT6suug/nqWsWT5DqJyrVY4AIhXfGXbaaafAy5EtttgihttiJ554YhTs55133nE6RI4yPnN4gdKxY8f4u+QlVCJovfDCC7GIzOabbz7OuWlhi39zPF6ShP2mRfrKEcj/SgpY+bPySAlIQAISkIAEJJAXAb6MDhs2rEnQqKSARe4SvgC7AWl5quBzxBFHxApbGOLASSedFEWHQvIpERrFPCNiIFSw0Zh11lnzWiMeVDyBtICF+Ei4bq7HVPGtV/dMwoTZyBL2u8ACC1S3M2W4OvdeUjFSAasMgFvR5OGHHx4uvfTScPnllxcd6t6KyzfkqQi6P/30U3j88cdjYRAKPayxxhpFs3jrrbeipyah9hjiOJ7KeB4nhnCO5/JTTz0Vdt5555ioH287XgZsu+228XMwy6aAleXZsW8SkIAEJCABCdQkAcLievToEZ5//vnY/0oKWIRV8baWvFj1uAEu1YJ48sknw6qrrhqbQ3zi30cffXTT5rqQ6+Cxg3hF+A3hiOUwNhW8KUcgIySNkEqShrNZIUF4c8mWCZvE8ycLFfpKySQtYJHg/Nlnnw0LLbRQKS9RlbbwgGEjSe461hPzXG/GesQLDU83BazszC5h2Pvvv3+s6EmeQK0yBD777LP4AgVhl7yKVCZFSCrWEMP4nMAjFCPEHa/OtCjFXPMHYYvcmDx3EM5qxRSwamWm7KcEJCABCb+3FX4AACAASURBVEhAAjVDgC+jiCHnnntuxQUsvrwShnDfffdFzyA3I80vm7SAVQsLi4TXCFKIZAhSeB7xthwvMELU8J7INTZHr732Wt3lsnn55ZdjyCabMCr7vfLKKzH0qdYND4whQ4aE5557rikXXK2PKbf/5AXr1atXuPHGGxWwMjS5Z5xxRgxZQxhvjYCSoSFluit4XhHax8sPQmoJpdXyI6CAlR8nj5KABCQgAQlIQAJ5E+ALKcnGE6ukBxbXJCfQLrvsEisSUiWPCojauARqTcBy/pongMfCDTfc0FSBslY54TmJKNmhQ4fQp0+fur1nGSfPRrxU9cDKxmoll9Laa68dvYYJxyUXklY+AohXVAzee++9Y948qhVvsskm5btgnbWsgFVnE+pwJCABCUhAAhKoPoFqC1gQGDlyZMylMWLEiHHyX1SfTjZ6MGrUqLDpppuGt99+OxsdshdFEejUqVP0NCT5cC0bOa+uu+66mJC5VAnps8gDDyw8REl2r4CVjRnCqxNBBU/OJD9ZNnpWn714//33Y+GC0aNHx/sd8aqQ3Iv1SSX/USlg5c/KIyUgAQlIQAISkEBeBAgNWGWVVaKXAVZpDyyumeTUmHnmmcOxxx5rcvFmZo5QLcLRJmTkEeG4lVZaKeYXIeEu88tm/Omnn47iCUlx33zzzZg8d8yYMXFDSG4qjDwjhAB27dp1gsnGn3jiiZgfiFxX5HaiDdrGqExH5bvmkuySWwivMkTLu+++O5AbqnPnzuG2224LK664YlhsscWimEm43YSMNcO5DzzwwDiH4i3w7bffxk0uxyT9LPfm64cffohl5Jsb97777hv4U+u2+uqrx9xXhB7Xs5nEPVuzS57GHXfcMea/6t27d13mXcsScV6cwJrvCKeddlr0etMKI6CAVRgvj5aABCQgAQlIQAITJMAmn001XgbVErAQWvDoQPAgMS9V9rTiCJAonTlFtIHrl19+GZPeEgqCuIQnCfmYEJtICI+YRG6T008/PSbIZR4QKBCgJiT20DaCGW1y7pVXXhkT8iOC8fdmm23W7CYTMY2+IHx98sknMTcUItbHH38c+43oRE4sEvdOyDiXPFscn7Zzzjkn5mqhdPthhx0W7rzzzrDRRhuVfdP70ksvxWsklbXSfWJs/KllQxxlU7vHHnvEvGb1bApY2ZldnhkUC0D4JidZu3btstO5OuwJLzj23HPP+Czfeuut47NTK5yAAlbhzDxDAhKQgAQkIAEJjJcAYgcb0qFDh1ZNwOLCv//+e0wk//rrr8fS6JNOOqkzV0EC5B8jvwlv2RGzitkgnnnmmeGggw4KW265ZZzDaaaZpoIjGPdSeAfhTUjulkGDBpVduKraQCt4YZLsU8qeMCLmuZrzW4lhU4iAsVJkwhDCShBv+Rp4NuJJyssNwqm18hHAG5tQTbxwjzrqqPJdqAFaVsBqgEl2iBKQgAQkIAEJVJYAHjDrrbdeDCPDmgshxOuCkKyWjDLYeNCQYLc5I6Rqvvnmi5tAwhHw+iFUDE+gdFgcv2ODcvDBB4c111wzltfGu+bzzz+PggrXyNfoLx4UXLdaRtjaJJNMUpQYVOk+w+qCCy4IAwYMiIImlQLxJCrEFLAKoVV7x950003Ro40KhI0gYPF8Qiy59957FbCqvFzxvLr00kvj50P79u2r3Jv6vTwvkHj+jx07Noaf472rFU9AAat4dp4pAQlIQAISkIAEmiWQTxL3rbbaKjz44IMtEiQsitxKr776arPHIOIsvfTSUZAirxHi0hZbbBGo8sXmkFA3jPA3hBQ8O8iDhGjFZoVy6XPPPXcMa8vXEOYIU1tqqaXyPaXkx5EAF08y+l5OQ1R45JFHYhgdYR9DhgyJoX3Y1FNPHas84t0255xzxtxYCBEYoXok6H3xxRdjOCF24IEHhr///jt07949ho/gwZSEEjJvJCHnnFxjfZBYmQ2mHljlnO3qtI0HDN4YbGzx0CN5O8J0PRteoVSOJHecHljVm2ly7fFSg2cbYauFCuvV63ltXfmtt94Ku+++e1zzq666aqz2WO/3eLlnSAGr3IRtXwISkIAEJCCBhiMwIQELsYONAzmOEmvbtm1gQ4vQoVWfwOKLLx6933766aeYgB2RMJkbNnuIeCSBJ7E4gmBSzZD8UUsuuWQUvqaccsootvFv5hbjeNpLBCxEMdYL5+QaYh0CJHmssiRgMd6FFloo7LrrruHqq68OhIUxbjyIEFDfe++98PDDD8dNMbm/4LbxxhtHwZafIQyS/wWBD486BMC0IbgSfrvXXntVfyGUsQesC8a4+eabR0EUwRphOm0I0axDBFvCkBIRFUEaIRXu/AwPTAQhfpblMERzYJVxQeXZNF5w/fr1i6I7LzvmnXfePM/0sEII8NzeZ599wmqrrRY9sBQJC6HX8rEKWKXhaCsSkIAEJCABCUigicCEBKwkLCw5gZA+vHlI8opQgkdOYnj4sMFls3vrrbfGyncYG11EDcIREEduuOGGps0tX5STzT8ePkkurqRNxIf1118/JvvmWsmmmN8jSrAB5jrnn3/+OLM6zzzzhPnnnz8e/8wzzzT9jk0zycWT0EQq37FJSgwvrw022CAmM0fgKLchLuEpxvjqxbIkYCVM8eZjfSGyIMjNNttsMbE9XjYIf/wMwY7fI1YhXvAzfsf/WcOsszZt2owzTYh2tFvvoTaMk6T9jL9Dhw5R1MsVnzgG779evXqF22+/vWlNL7DAAtGbj6T9H330URQNeVYgRlQzxDc9kXiH8lxIV49UwKr+E4mQtqQQA3+bG7H0c0IY/3777RfvaTyw8MzVSkNAAas0HG1FAhKQgAQkIAEJNBFgA3/22WfHnEdYbg4sQoYI9yOMBrvrrrtieBmbe6pBJZXI2MBfdtllMZ8Wm37emp9xxhnxnMknnzwQBkIYIdc74ogjwnnnnRcFBAQlNorYr7/+Gk455ZRYshtDTLrwwgujoPToo4/GakiIPYnx1phjEJrSX7rxuqGqIgLWU089FcWzxNhE412z6KKLRq8kxDEq8mFsyOnnIossEkW2nXbaaZyVQj+oaEduEMaXFtOockcf6BMJcBNjg37FFVfEUAxC7EgunhgiG4Idm2YSRR9//PGRT2J4BHEdkmfzdjwxPK7ghLCCqEfFP1imjbmACxuTtJGYF5FmxIgR4/ycNukr48g1co+RvBsxM9eWX3756OF0zTXXNP0qiwLWvzruD4omwL3fUmgRIhZiH+sxCQ3m+HRFy5Z+XnSHSnAiHojHHnts9MxLPMsUsEoAtpVNEMLMc4xnDy8dtNISOOSQQwIvcfC6wrMSz0itdAQUsErH0pZCiF86+ZLKl1veDGkSkIAEJCCBRiSAV8UOO+wQhg8fHoefK2BdcsklUQRJhJW+fftG8YRwIEQeRCUMD5eLLroo9OzZM/4fgSoRXTgWIQkBCwGKN+kPPfRQ3OAiGhFShBF2hCCGWIXxtp2+IcYQyoUwkhawOD4RsNKeMeTnQXCjT/fff38U3BJDwCJkLBGw+F0iYOGFkYTPvfDCC2G55ZZrOo/j8crq1KlT/MJPHqik3xxEv7je6NGjo4dKYghD5AZjw3/LLbdEL4/EaBMBCk8UhEFYJl5fiFPk/iJckwTG5CRJbOWVV459IPcY4thuu+0Ww/cwNnl8v4EBzEmGnxihf4ydjTmiF0nbE2ODCHtyWCG04WGXiGJs6ElmTfLul156KYpZicGP0Dy82FgrlLpnE3T99dfHULxqWVKFMLk+YbBs1gghRKBMDPaIdvBm3GnxEVGWNQ5Lxs2cJ2Ira5M299hjj5ifh/CmxBAkuWf4HcIkm0PEWQwhB89FhMtnn302XjN9XjLPFC5IFzhgfRPOCVvuj6Q9zsWLEWES++6778bxOER85L5DRMbLj2INiYCUXJfqboRO0p/EEGNZZ4yXeyHtpUibeA5yX9Nmeq1wPsIsOex4tpBfLTHWK31B4GZsaQGYYxZeeOFY5IE5ShvXo+gDRogiuXoSY45Y15yDp2XuufQFD7n0vcq5eOBxLz///POBSqwYzyvugyR8SgGrWnfv/67L84/7ESGf4hJa6QiQEoAXJryEOuCAA6Jwy/2slZaAAlZpeTZ0a7iAE/5wwgknxA9EvsAhZGkSkIAEJCCBRiNAuB9hf4gdWK6AlRtCSMghG3osLWAhtAwePLhJ0GpJwGLzfOqpp0ZvB0SXtIDF7xBBCGNIjL4NGzasaAGL8SEg0AZWrIC1xBJLRNGI7wuVELAQopLKj4UIWMwBghaCBUJHImAhzuHNte+++0aRDhESESuxNdZYI84nQg5hYDBLixb0h7BQzk2EKdrEW65Pnz7RayVZKyussEK46qqroiBRLcsVsBBGEDMQavCsSzzGWMsIN4wvV+xEHMVTDaERQTTtrYdIhWgJZ36HCJQYoiViJZ5pMEP4SoRJBCxyacFu1KhRUURJDNEHQYVjCMFD6E0M0Y22GAP3D3OXzA8CD56SGH0h+XJi5Oxik8r9yZwQrpsIk/QBYYD5RGRdd911m85DaEIIxfuvR48esRJouk08HLmXWCtsgBPhiDYR7Tp37hzuvvvu6L2ZWLdu3WJfEK4QQxGmEyPEkN/hwci65fmRGEJaUkQCkZxCA4kxJ7TD+mMTzrwm40OkghlCGgIxzxYM0WvgwIFRlOXeYh8AbwWsat2tzV+XZxQCPeHhrB2tNAR4FuEFTVVHnpN4uRk2WBq2ua0oYJWHa0O1imjFDcsXZD5o+RJDDD4fbum3rA0FxcFKQAISkEBDEyg0BxYbbjZ9CE9pAYuwPTaZifdRSwIWsNl8H3nkkf8SsPgdG+K0hw+eLggjCEjFeGDx0gqvIv5g9S5gIQSQN4YNSVrAQhRBzGDuMMSMHXfcsWntI3ogSrC5Z9OId1EikHAuoZ4IjnyHSn7OsSRXJvEvlghYWQwhTLz18FwiAXniaZevgIUognByzjnnxLGmvfXwMsI7KjE8ghA5CclsScDCGynXW69jx45x7uCd663HfcB3WF6+IsYgbiWiGAJW4kWUK3YirCHOIGAxr+SNSwQe5g8RDdESzzyqjyXGePAOQ5xEFEp7bdHmzTffHO8lxCM2wMmaYFwIRhiebWkvPAQyuODpQXgxnmuJ8UKZ5wfPFTwdk9Bkfo9XGmG7WPq5gjcanm946MAMMZUNOeuU340ZMyb2Ebv88stjiBRG5AV8k2IEidiJlxsiZpKoXw+s6n00PvDAA3GN493JukmHoFavV7V/Zfa/fPZyH+GBhVeqlQbLN68KWOVj2zAt8+GHqz6Vcvjg5QNOAathpt+BSkACEpBAMwRKJWCxCeaNOcJH7kYzHUJIuB6baDb2bKTH54FFm3il4B2D6IDAkg4FSosSHJskjU+HELJB7927d5OHWb0LWIR44kVHTp+0gMWGHqEhCcXJFbAI6cRbi41iroBFVTm8YxABLr744qZVVIsCFkILXn2IQFi+AhYeTnhuJZ5AlRawuA/waCLkEfGF0NpyClgI0nhCImJxXxHCm1g5BCw8ovAOxKMtXwELUQ9BjzXPek8LWPzuuOOOa8o5lxaweJ7wrEo8PRMBi5BP8gHSByxXwGLTzxpQTCnvRynrmvXAnJJzUCsNAYRlvDcJ+UUcRCQ2bLA0bFtqRQGrvHwbqnXifvkyy5shBayGmnoHKwEJSEACOQQKFbB4GURID29t0x5YhOuw8UxC1lrywCKHTZcuXaJ3BJYWsAjzIlF6kuMGDxbELr505+aw4dxEwOKFFDmHkkqEaQGL0EhChRKvkHoXsNIhnmkBixArEuwnSdpzBSzCxAgpSTx1Eg8sNvPkFiLnEXOGZ07i7VOLAhb5lxCfEstXwMoNIaymgMU84qGS5D0rhwcWfBBq8H7CiwpPjXIKWIRdwhgvqHwFLJ5BCEqITpyXFrD43TrrrNOUmywtYKVz6zGmRMBC2MLbLAnr5JmThMHCgrXP73MrUSZc8FJMKluO74OGvtEGa5HnH23j4YZgQ/4tQofxlMGbDY/B9HpNt4sYyxrguvVkOBrw+UFIKC8utNYTSMJ2+czEi5R8jVr5CShglZ9xw1yBRLTkhyCBpgJWw0y7A5WABCQggWYIFCpgEfZEbh8sN4SQfEHJhm98ObDwfsA7gs0XmzbCdghDY8PIz5Nqd4hitIMnxKGHHjpOAve0gMXnOjl73n777divciRxz0oOLIQo3pyTFoEwwdwk7iTpxluHTXFawIILG3ByLLHJTsLJkiWBKIlnD6JUkrifDTIbagSFJPl8OiyMDTZrAEESq4UQwnoQsJiDcocQIrLg1YjHHR4x6XDTcnhgFSNgseY22mijGGbGvZAWsPgdbRKSiaUFLHKbIXYj2mK5+dKK/aDgPuAZxj02PkOQQhREDENcxwsGwYowSnLsESrKc5b7Cc9IcqghuuUa1yFpP0JdrRnri9BPPn8QVxDFEfPwMCTEDbGcyriMmxcZ6cIY3MPkrSNvH6GvPPubE2Q++uij+PxivnMNkYyXGVwzC8bzuhwVAPlspNoun7F4XrHum+ORBQb12AcFrHqc1SqNSQGrSuC9rAQkIAEJZI5AoQIWYTaDBg2KwlOuBxaJ0pMqai0JWCSwJrEzCaLxOmDzRh6lDTfcMApUtI+QgiGmcC1yKvHnjjvuaPI64feJBxZCCwIMleKwehaw2JCRi4kk+Gy+cgUshA08qfDKaEnAIiE3HjW8yEsMIYBNPp4heL1RRTDx8GEemDdCychRRl4kjDVAUnCEA/pVCwIWYgybZLzxk7VSTBL3anpgVULAQkhhXknIT/hgFgUsNv2EUiLmklQ/LWDhOUi6EJ4rWFrAQrg466yzmgpOlErAytzDPcMdQsDimUORAEQ/nv3MIUIVVS/TRgEDigIkRhg6obycT343hDBeduQan218vhACnWt4+ZIvkGtmwXh+HnXUUfHZVKqwPnI98xxnfZPvjc9S8r9plSOggFU51nV/JQWsup9iBygBCUhAAnkSKFTAoqw5AkmugMXbY7ybCechQTYJYtkkYukcWLz5xtOADQuWDiFkU8Hb9CQhdJIEm5Ae3iBz7UR44NxEwEKUSIf11LOABXdCKhGO2KTnClhUZSNfFVzH54HFhp75SozqbogUbCzZSDF3CFb8f5NNNomiIhUde/bsGUMKE6MIDh4whPogqnFelpO4s6lDJE0q4NVKCCHVB+GMp2IlBKzEW495zg03LYcHFl5GrEGeI/mGEPJcYR0jiCMA5CZxJ/wusdwk7uTgw6sSU8DK88PCw8pGADGWzzA8ypZZZplWX4eXD6xxQmy7du0ahSw+O7TKElDAqizvur6aAlZdT6+Dk4AEJCCBAggUKmAR4keIB6EdiBm8Acd4k03oC38I/yBBMnl6JiRgsfEk6TgeQYS/JZtKzksLWHiBFFOFEOGre/fuTUTGlwOLMbz77rvR8wsvgHSF4qyEEDIQvM2o5kYIX66AxSYeDy3ErZYErOZEiSSEEFGA0CuSlidzh2iYCIS5leU4Bq+7Aw44IIoJFMvJsoBVqyGErEnCfwjlrEUBC49Akq3z/ODZkVuFkPsN8ZqNfL4CFmuvpRBC1j8iZa9eveI6TgtYiIGE7yHE5QpYPLfwPsPwIiUMDaNfPI8QBMbnIXPffffFkEs8vxgnYj8CMPcqHqLcW+T6w4OP0GiOQVQlVx9VKMlnRi4ucvYRCky/CbFLcnBxX5InkOca4cQIx3jtED5NNUyM8/EuevXVV5v9JOCavESgYmW6umQBHxslP5Qx8pxBwCw0PxMh0bwQSUIxEe8RcOALC8bIH47jOcaxiDmEnZJvjLx/GL+HO+fyWcD5MGbt8m/O4Vj6mbxkoX3COJmH5JnJXPFzxH9CQ1mLyQub8YHjePLALb/88q3iy4sH7iHyQhLWimcsa1erPAEFrMozr9srKmDV7dQ6MAlIQAISKJBAoQIWGyNCdvhSjrdP2ticUT2KTV///v2jGIQhUhG+QN4X8rZQzp4wkMT48s9GjQTvSWUwfkdYCF49hD2wKeR36Y0Am8Vu3brFinJsEtPt4a3CBpVNLNX3EkPAYvPKhobNCSJc0hf+T14cvvCzkSmFgMXmklAmwmAGDx48TlWtRRddNAo+HMMYtt5666bKcmyA2FxhbDST0Ez+Pz4B65hjjokeVGzmWhKwEHGYn379+jVxaUnAYu4QKUkcjuUKWGw22Yyz+eL71SeffKKAteSSUWBMBFi8i5KKgWxuCcdE0CDPUTq3DwIGOZs4Bo+3JO8Y3NNVCGtRwGId4UFJTi3+nStgcd9xXyIWlELAQmxAFIMplhawEInwEGWDj6U9sBDKya2EEeaMxxvG/XTiiSfGxOI8J1oyxHtECzz7uCcQkcgZyLgI3WXe8VClPUQQjkEwQfzgd/wcEQfvMcQS1gOCBGuC5yH3Lm1zHX6G0ML9x7OC9jHO5+dJ4YrcvnJNcgBzr2ZFwOJZxbOee4UQ5kKMe4vnPaGCcEQIhTEVNHm+Mx+IU4Qq8plAjj+ex2uvvXYMX6cqKSwR0VifiFUcR8ESOOIBTC4yuG+11VbRm+m9996LXeRcno/kaORFDMb6JrcZYhn94fONFw3NGZ89CJuJt2spBCzuI6o3Ev7L525zIZSF8PXY4gkoYBXPzjNzCChguSQkIAEJSEAC/yNQqIDVGm6JgEUoWiHGhos3yYSuJUIA5yceEWwsk3xNSbtsGtm8XHvtteHjjz9uuhybCsKj2JyyyUA4YuOSGJtThDmEuqSqIb9j84g3B5tfvB0I02NjlBiiEZtU3s6zaUgb4sO6664bN1lpAY4NK2F7tDlq1Ki4MUrapC3axBD22FglxoaEvuBpwOaHUBE2aBg/w9OFDTybXDxAEmPTSughG11yWbEZTreJwIB3BmGgbOISo5+IkWzU8KpjHGnObNDYgCaWRQ8sWDCHbGIZT2KIo2xUmYMkr07yO45HJEWYRUREJE3EToQGQt5ghiiLAJgY3noIUGx4mZtcAYtNLYmUEUOSggWcyzp5+eWXmwQsBM3E0gJWbpvjq0K40korxT7gwcVaIHwyWStwIGwXERLRIAmr5JrlDCFEXGCNstFOLJ3EHZGA+ysx2LK+WJvp3Hr8viUPLEQEqq0xXkQaRItEHEcYIgw3CaFNBCzufUK4EtGKewAvHQxRiPlmLrXSEmB+EPkRsHi+8JxqFEOwYg0jQLbWA4vPQPJSkvyetY0nbksVMxuFb7XHqYBV7Rmoo+srYNXRZDoUCUhAAhJoFYEJCViIKngOIcwgYuB5xYYZEYqKgwgvvL1mQ04oRVoMomN4PLFBackboFWd9+SKEGDOERDxaEm8wsZ34bXWWitceeWVoX379hXpX3MXyc1rhLcFoh7hWsOHD286BaEQb4skzIeKXYkhUhFqRaJwxLt77703ekokhvCDCIXXTrpNPGLwMsQ7A+HlpJNOGue+2H///aN31ZprrtkkJtEm3h4ISWw68cxLQsL4HV56eDdynxGGh9CSiLach9CGkRR7zz33bOoj9yoeiIwDsYzzEq8bxkzoLuJqItokJ+KhkghajDvtrYdARyVRvATxBsObKuFC5UIY4l3EeXimJIZHCIIyIi7tIR4nRtgeIi2ehrm5ehg7ghPzhPfngAEDms5j83/CCSdELxP+RuBKBDoERJ5vPLsQr5LiEDDh2H333Te2k6wV2mLMicCpgFWZ25dchqx71iEFIhopVxOfmYwZT7DWCFjc0zxzyVfH8yHxIqzMDHqVlggoYLk2SkZAAatkKG1IAhKQgARqnMCEBCxCWfDUIdyJTTKbZTyfXnnllRhWxiYUAYuwDbxcKIeeNja7bLTx9Cil4aGBZxKbnnTerGKvQf/wtki//UeMo/IhG96kVD1hKYR9JaGIbK7ZWCPksfFiI41HD5Xt0sb5iCWEliWGJwgs2WjDNh1WWew4snAeHBA+02Gdle5XKRNzI8rguYX4lWt4vLFOEtEk+T0eOwhZCDl4HKVDtZL8O4QS5hqiGZ5A6QTkHIP3Ef3gdwgyaY9DNr6J6IKQlHsPsu74w/rKHQM/557O7QseTAhUGN+bGUNi/I6+cF3GzvMhGR8/Y/OM+EOYVXpNMza8G7kWoXFpD0DGx/XwECS8L20IoeQF4hoIgunx4ZnG2PG45F5NC+UIjIRSMea0yAhDxDQ8MDHuvREjRoR99tkninyMD1PAKv9di8cpwiWCLV5Y3DeNZuQPxOu1WAEL71D+kBcNYRixWssGAQWsbMxDXfQiLWDxhgl3S8qLahKQgAQkIIFGIzAhASurPLbddtsYPodQki6xXmx/yduFGJEk9KUdNlcIUXjELLXUUrHpN998M4pcbODZFCNkkcuKsDA2vklYFoJW2jifDXy6gh8CB+fjVYO3TTo8sthx5J6HEHLhhRfGkK1SGR40SQhm0ibhaYwNjwIMwYG8L7BB4Ky0JQIW4gwCZDFGdTvEyCS3UDFtTOgcRBl4EuKXa0neHsbQHEP6RZhjYohaSVJq2kTMYj0imCF6pUUxxCIEmrSgBSeEOtYjaz8ZN/cFa5v+pMWqCY2t1n6vgFX5GeMFCOFuJL0nzLMRrTUCFl6xFFXBO5o8b6uvvnoUwrRsEFDAysY81EUv0gIWD8wLLrigqm7udQHVQUhAAhKQQE0SqFUBC8GJnCkIToRWVUMkqYUJR9QgBxieYqUyxA2EKsS3xEgITajp6aef3vQzvFz4GfmUKm2JgIXQSWVMPHwKNcQhxplUHCv0/HyOhyWhbel8V8l5XJecWIn4mdseIUPkZEo2rAhSeLJQpY426Tt55wjPI9Rv5MiRTU107do1iqaJ4EgbhDRSCZS8bHhJEY6EkZ8KcQtBDEG33Im/qdLHfBUbgpp4ajGeXHv//ffjfCKs5hqhr8xDkqRdD6x8VnDrjiHkk5BQlvE9SAAAIABJREFUBPFi57t1Paju2XgM9u7dO9x9990Fe2BRuZIQYJ6zhMjiyTu+AgPVHWljXl0BqzHnvSyjTgtYuPrzIb/MMsuU5Vo2KgEJSEACEsgygVwBi4TJeNM0t8HL2jgI+6F6GWFKfnGv/uwQfkVOKNYQ3ix4FiACEXaZJMOuVC8TAYv8TyTVT8LCKnX9Qq6DF1RLAhsCZEtrG0EpPS6Em+R4/k4qbSJOcY10mCPXS46hrwjAXIdj+B3nJnmtOD8RiPl9uQUsPL/oSzrZfiE8OTYR/nLPI3cfouE888zzrya5Zpq1Alah1As7Hm8+QsDxdORZ0YhGOCw5sAifLCSEEG9XPNfY0w4dOjSKWFr2CChgZW9OarZHaQGLN3NnnXVWqz4kaxaEHZeABCQggYYnQG4bQhCSintsXgmRIzdOaw3xgmTJuQmiW9tucj4hUTvttFPAq4JQCq26BBIBK6lCiFjAxozE3XhidezYsSmvUrl7WksCVrlZ2H5xBBSwiuOWz1mIo3hmksKF6o6l+LzJ57pZPKaQEELEXT7reMlEDsru3btHz7ViPEyzyKLe+qSAVW8zWsXxpAUs3Kqp/JDktqhit7y0BCQgAQlIoOIESLTcqVOnsuRf4o0yZewJEymXPfTQQzFk6pprrgk9e/Ys12VsNw8CuQIWuZMSDwEEpauvvjp069Ytj5Zaf4gCVusZNnoLCljlWwGI2iTsp7pno1fMy1fAIs8iRQnIvcjzjeqojSz8lW91lq5lBazSsWzolnB7JsElru0kb59jjjkClYyoIKRJQAISkIAEGo1AbghhMv7JJ5888Ic35a3JAYSIQS6dcopLiHCErVGFCTFOqw6B5gSspCd4DODx/vzzz1ek0pgCVnXWQDWvSmggf9JGeDFVDfFWITyQ3+N1us0224xzHF6o7A3YFyRGiFvyf6rj4SlEzjGtdQQIXSVn04MPPhjId9bolo+AxWcw4dDDhg0LJ598cuSX5bDoRp/TZPwKWK6EVhHgxh8yZEisnnLcccfFDzDyARDTT3LKPffcMyYjJRZbNbtVqD1ZAhKQgARqiECugEUuDfJCrrPOOtFbhvxFJIDO1/i8ZWPy4YcfNp2C502vXr3ybaLg47jm+uuvH7p06RKOOuooE7oXTLA0J4xPwGKOzjnnnEDicbzlyi00KmCVZk5rqRWKOZx44okxt1faWHvpECteZueGXLEvQBDILQaRVG5sBAEryW32wAMPBF4KlMsoKsGz4JhjjglUYi2nUXyAvV06B1/WCn5MSMAibBCBFQEWMZb9qiGD5Vw1pWtbAat0LBuyJT7M+DJDGEM6iSUweJDxh1js6667bpyqOg0Jy0FLQAISkEDDEGiuCiFV25LPx0ITNvNy6I477ojhDWz++KKNgNVclbVSQubznYpMhCwipGiVJzA+AYveUNmO1A2LLLJI9IKnala5TAGrXGSz2S5VSQklfvPNN8uSZL5eBSye74T5/vLLL1EcITk4XlFJdcpyzDbX5E9SPbMc10janHLKKeMzZ4oppmi6zGWXXRYWWmih6AmaBTFrfALWV1991ZTg/txzz61YDsFyzkkjta2A1Uiz7VglIAEJSEACEqgIgeYELN72tsYo701y2Z9//jluKi+//PIwyyyztKbJCZ7LJgxvajwHCLPgLbVWWQITErDozVtvvRXXRNu2bcP1118fN5fl2MgqYFV27qt9NZ5jpANhw48hnBNRsfTSS0ch/ZNPPomCBSGBSaVBhBqEm4UXXjiMHj06Hp/8H0Hsyy+/bApJrDcBK6kySUJwwiIphDE+a847LZ85JwSd+zupXsm85N7vSRXOdKXMpPJlrjddPtfM9xgic+add94oqFfr84I8a3xukRMsXYWQ+UnCXxETCcPXao+AAlbtzZk9loAEJCABCUgg4wTKLWAx/HKHECaICU1hM3rGGWdET6xyCCMZn86qdi8fAYuN2XPPPRfuvvvu8PTTT8d8Lsstt1zJPSEUsKq6FCp+8bSAhVcNogDJwamIiQDw0ksvBcLJllhiiabcQc8++2zMi7vWWmsFikHw++T/CDuvvfZa2HfffeNY6knA4h5EoOPegwHjTIychYT1IfqRKyyxfv36FSXyJN5Oo0aNCjyfd9555zDffPM1tUt457333hs22mijGKrOPGF4Z1IN99FHHy1qLRES+u233+bljUf4OaHN7dq1K+parTkJr9TevXuHe+65p0nA6ty5c9P8IPydfvrpgYq+Wu0RUMCqvTmzxxKQgAQkIAEJZJxAPQlYbAZWXXXVKIaQEoBcXlrlCOQjYCW9wduCjdldd90VvQsI6SmlKWCVkmb228oVsFiLhGa1xuqxCiGCCKLVKaecEu+9xBBIEIw222yzKP7x0mH//fePAtDcc88dnnjiiTDXXHMVjJPcw3hv4YmFN1WbNm3+lY/st99+i95viGZJEn48tfCUK7aACKGkO+20U3j33Xdjn3mZ0aFDh6Y8x+SVoqofxucFwubw4cOrIhSlQwiffPLJgNh38MEHR2EVLzHEU602CShg1ea82WsJSEACEpCABDJMoJ4ELDC/8cYbYbfddosbFXJx4VGgVYZAIQIWPRoxYkQ49NBDw8wzzxzw8FhqqaWawrta22MFrNYSrK3zcwWsrbbaKorYrbF6FLAIFVxggQWasCAo4e102mmnxbDvxPCc4jmKgLXJJpuEK664Inqo1ZKRF5HKkhjCHInjk6qSjzzySNhrr73CyJEj4xgRsbp27Ro99nbdddeKDjMRsOjDLrvsEoYOHRr7ccEFF1hYrKIzUfqLKWCVnqktSkACEpCABCTQ4ATIDUPFwbfffjuSIKyklDmwaLNSIYRcCw8DKicSqnLCCSfEZPJaZQgUKmDhhYW3AZtlQrYGDBgQqIJZClPAKgXF2mkjV8C65ZZbQo8ePVo1gNYKWC+++GKTR1GrOhJCWHHFFVsdZkvYIKHVhOxhhAoiICNQUZE9bWkBi5+TI6zUXpKtZTKh89MCFl6e5PpKG+GKeDq9+uqrMdwQIyff/fffP47IN6HrtOb3eKgxJ+TAwvA622abbeKz0LDB1pDNxrkKWNmYh6r0ApfOdDnucnWCN4Czzz77OLHgzV0LN1Q+SHBF5d9JMshy9ct2JSABCUhAAuUiQJ4TNvuDBw+Ol6h1AYsxkMiZ3DV8Pg8cODB+tmvlJ1CogJX0CG8INnF8D7v00ktjHrPWVgdTwCr/fGfpClkTsMjvRm4lEnGXwvAmwyunNXn9EPSpNIhxf62++uqBe685SwtYPEd5wVFvAlYybj77DjzwwICgjnXp0iUWHiHBe7mNkMENN9wwrhPmhGq9iZhV7mvbfvkJKGCVn3Fmr7DpppuG2267rez9oyIOVZKSt9AtXZAPD6qa4ILLm0Kq6fBlS5OABCQgAQnUGoF6CyFM+FMOfttttw09e/aMIpZWfgLFClj0jKTugwYNiiGfhx9+eFh++eVb9YJQAav8852lK2RJwKKSIeFppawcN8MMM8T2SHZejFEZdu+99w6vvPJKFMHI+USxi7XXXnuCAhYeutdcc01VkpwXM9bknAl5YCXH4bV78cUXR49dcmPxDOIzo0+fPq0SDPPpe1rASlchzOdcj8k+AQWs7M9R2Xp4/vnnh5dffrls7U+oYZIdLrbYYmHaaaeNCQ/5UkVeDYyfdezYMcaJ8yaDOHJNAhKQgAQkUCsE6lXA+v3332PelmHDhoX+/fuHZZddtlampGb72RoBiyTPX3/9dbjxxhtj5bFjjjkm5sQq1hSwiiVXm+dlScAidJCwvCRJeCmIIm6Qp+qQQw4pqjkEKxKbk++Jl+7kVyJJeEuW9sAi9xVjSlcPLKoTFT4pXwGLbpE8nnDKs88+O4pW7PsQ+BDvymnM6UknnRQT2CtglZN0ddpWwKoOd68aQiz3vOiii0axijeElHtGyPryyy/j20LcPnE7RcDafPPNwxZbbBETHVJ1Q5OABCQgAQlkmUAlBKxzzz03fj5W2nibTkLeVVZZJRxxxBHx8kmJeJIX//zzz01hI+m+8Qaeyli8meezHA9tPusRxdhk5H7GI7xQNWv66aePYSC0S+WollIMsFniewOJ5uvJWiNgJRxgvO6668aKZbzA5CVhMWFTClj1tLImPJYsCVh4OxGdkYQPEsJMkYJce/zxx2OVOYw9BmFs88wzT9NhiE38jDxJrRWwCM/lOYXxLEbYH581Qg6s9PhhzXwQwvfZZ5/FX5FDDaEvHyskXxXPNgpY3HzzzbHyIbnJuL4CVj6ka+sYBazamq+G6C1fsngjQaJIyssidPElF9UeEYvY93Slj4aA4iAlIAEJSKCmCFRCwCKXyEwzzVRxLnj1UHWLzWFSfQpxhIThq622Wkz2/s0334zTL0Qn8lyS2BchitLyJILH8xoPBoQpKpyl82qx2ePzn/AeNiGEL/JdAEGrORszZkxMGrzMMstUnElrL8j48DZH3EO0Y5NOeBPVvO68884Y5kSuHnLIFFMBknZJMn3YYYdFfrwo5MVhoTmxFLBaO9O1dX5WBSzuF0Sq3ATi0CXfGxEcGAIT6z79TEDo4DlDTr/WCFjsT7p16xZISj/55JOHU089NfTt21cBK4cAQiEVAXl2YXxm5ZsH66ijjorh6vkYSeIplDLFFFPE+Uf4f/311xWw8oFXY8coYNXYhDVKd1HM+YLMBydu7yQC/O677+IHBF+AKUlLHHxLX2IbhZPjlIAEJCCBbBKohICVpZHjUYX3E3/z+c3neK4hzLB5TN6Ks9HAa4qfIaTwGZ/2Cko8s/g5RvsIYS2JLknbXKfWjHHjlc4YYIgAyEbvjTfeiOOGaWsELHjQNrlh2PSTm5Q8qAiJhVgiYOHBtdJKKxXlxVXI9Zo7Fi8/vPPxtsDrBYEPEaE5I8T1jz/+iOuG74yEUSaGJ0jnzp2jSLjmmmvGzS5rs1OnTuM0hShK2OxBBx0Uf057l1xySZh11lnjeeQ/6tq1a7PrEua8kCXvbC2uyywLWKxl9gS5VikBi4qsV155ZVwziM1ffPFFfIaNzxrNAwsW8Pl/7J0JuFbj+v/vTMlPE2nQgFRSyRySyJwikVCZMhRKg6LiHEoSlepIJEedCpUkxylDGhBxUqHIVEjmSmTM9L8+z++/9m/Z3v3utfc7rbXe731dXdXea3iez7Om5/vcA/cIeY5LanhgeZ5byfadP3++C48mcTvPSRwdEM2YP8oDq6TUw7+9BKzwj1Het5D45WnTptm9997rys2SxJHVR6oV8iHFw0phhXl/mQiACIiACISKQL4JWKGCH9PGpCpgeVgWLVrkEk8zocQrorhJtx+nJ2DlEjFCEOIRE1tCwzZs2OAEvkSGB58nkPKtSJoKz2rXru3CVqkYykQZrzcm2/zMbwhWeBwiMGJ4s3F/4zVIOxC4iqrIyfE+/vhjq1WrVk7EvqDjhCDYokUL5w0JV7yLMETkt956y/FFOEaMQ/hLxRAbvQVoRGzCkFu3bv2XQ3KdMn5NmzZ1v2M7BEjGE1EiXQIW90KXLl1K3KW///3vLlQNcRQxmPlIcZaPAhZMuH8QefGS9RvjyL3DMwjRvrAQjTCIA0NRxv2FeEVy+M6dOzvxivsST1+idrhPJWAVd1VG7/cSsKI3ZnnZYl6g5NzgRYHLLy+ADz/80LkGs5JIvgteJBKy8vLyUKdFQAREIHQE/AJWw4YNXVgLOaNSMXLA4IFMCB6G90lhbxF+zkc93st473iGWIEXSGFjQjFjxgw3gXz22Wf/Up6eiUXXrl3/5KnD5JbQQbx3KE2OB0sio+qdF+5G4mWEBqoMszDFOZnUJDLEhIsuusjwtCE3Jm2jklUir65UeEZt33QJWAgAiAMIOCSeLkkYYRgErKiNWxTay3c0E3/EOjz++O4ubJkQsDgm+fN23nnnv5yP5wTiECIXhsBB27B0CVgci1Do0uTNQ/iEE4Iqz/sgYXF+AQvBCw+uXISBp3JNliSJu3cexg1vKHKPYfSZara8R/CChP/atWvt008/db8fMWKEE7OSCVjvv/++84zkPXf++ee795t3ragKYSojHP59JWCFf4zUwgQE+OAeM2aMkcDW+6DlRUDyRB5eJfkYE2AREAEREAERSDcBv4DF++mxxx5LOYSosIA1derUhJ4Dixcvdh/zXrJjPEdYpU4ULoZXMx4iiEa8V2+99daCSSKeKOSipEoWk1vP8Djh//yhCMull17qwmc8Q/QiFwwJlr2E60z0mJAycUFA+eijj1wOGypFeUbpefLIcF4mg0wM8QahbXiGsB//L+ytwWSW8C5yaiUzRESqYXmGqMcEsjijTQh1/v7dfPPNLjdXYYMHPMkDRkia32BBn/AgZ+wKJ1FnP9Ij8Dd9LWzpErCK62+y3ycTsLz+FbU/nktMZBMJkVwzRX27sV9RHlYsXCZKRu+lokgmejIW7MvxvT+psIn7vpkQsErLLJ0CVmnb4O1XWgELIYj7PWpWGgGLPuLtybsC47lP5UdPcCrMAI9FFj2KErB4Pj711FNuEWfChAlODPOH6LLIc+WVV7oIHnlgRe0KK769ErCKZ6QtQkqAD+Fhw4a5Dz3yIOChhSs3H1eUiE4UFx/SrqhZIiACIiACMSPgF7D4SKesNzk5UjG/gEXCb8SX5s2b/+mQeCwxSfBCpRCMSJRenPcXK9+EeKxZs8Ydj/xGjz/+uPN0LsoQB5iUMBHxh3nQTlbV/aKX/xh4eTCx8CqB8Tv6gUDTrVu3hN4YnIskvStXriyofMh+vOuZxDBZSeZFgccX1am8KmF4d1HenbwpyQye//jHP5wAiCFGkvycfRN5jdA3PAcIaaFcvCdEIdAg6OE1zvVQOEyNY7MtQh1iHN5whS3MAhZCEpXFzjjjjCJxUhUMbgsXLizYhusL4ZLvOcYkkSF2XnPNNbZ06dKCX9epU8eFvCGU8u/CxjjgxbFs2bI/7cd2CJdNmjRxQih/c6/ixYFHh2dvvPGGy9vjN2+/ZNfLK6+8Yu+8807BJoivJ598ctJrjP5RqQ0RzbP69etbs2bNiqy4yTXGNYkAncgQgLmnmNRzzyBiI/5ynmTGebn3PeM8CAUI0BKwEpNjzkGESLJnpben3wMrnwUsnhXdu3cv8lIsTsDiWcqiAmGlFP8oHAZNlA5hoXhiScBKestH8pcSsCI5bGq0R8BbyWOVkw8ZynPzEYVL6vHHH19Q8ULEREAEREAERCCbBDKdA4u8IQhYVMHyjLBB8rlQ1h1xheTWvBOpwFWUOMC+eEIhRDHZZ6KK2MMklhCzZMaE++yzz3ZCl+fpgiBE6GAyMYn2sWLuiUKcg1V0QhWTJbrGo4y++EMPCUtB9CouQbZXdQyRCAGJtAP9+vUrNv8TScARADxxgfBJJqzJzofnAB5w8PSMCRthkUWJenzP4FWOsEf+Fk/4Qqg84IADnAdfmAUsBDcSmnsed4muG8RREl8j8mCMQZs2bVz/iuLCduRggid5UDHyJ5FEHQ+4ZF73LHAiynr7sS9VMrneubaZ2PKHa5fx9a5hUlXQF+5hzxC6uM6T3RMrVqxwY+wXsDgOwmsy43zct+RR8gxOCKdFeajwvYvINn78eHv44YcL9iPvzxVXXOHEFDz9GA/uF9qNyMwY0Nf77rvPCbqekdeKNnCfEFbqGQzoA23MhIBF/xD2GafijOuAqnR416TLA4vjXHbZZS5fkmcI8HiZJstpxTZ4ZvK8pE14FAWJ/pCA9b8eWKUVsFho4TrlGcsCCM/ERM8c7uVevXq5Z6oErOLurOj9XgJW9MZMLS6CAB97vEj4mPeST/KBScloPop5efNyCfKCEWQREAEREAERSIUAEz8mkJ4RmsdqcSrGpOnUU08tyIFFGBqJa/lYJ7kxkzDyxCBWkXfLexcWdU4mskxi8V5iwoZXEAtA5EeqUqVKkU0lnAtvGjwIvJA8PE2YICOq+SeD/oPQzldffdV5hvDO5nzHHnusC1303tGJTuolzUZEYD8mLEyq582b54SkZKFnhPTh9YQnCRMZvGjw5OHfyfajH3DxklczeaayVXH7kReHsCBEQI7P5BbvF3K0JDPGDY8EkmSzH2MIEwS65cuXO7GNyRoTYC+vWCrXUmn3RaDkWvaMa5z/Jyt1z7gj0HkVAxkzwlLpm1+ATdQmvKLwpOBaRpTF24rzIZwWZZyPfDpcW14FM8aNySxiZ6KQQ47FfvzxxE5+RlsRTQkJTZZnlWuU7RAfMc5Rt25dlx+uqPOxHVU4EY/xMIMR2+IlRa64ZO1ElMODDO8t2sw1Q348wmS5h4syohW4rjzBjnsJoebBBx9MKDrzHGOB2BOweF6kmsR969atBUncES4Rr4MkUef5R1sRsmFDeHOiaAtPJIIBQt6TTz75pwp4PENgRJ84Dt6x3F+eeUJmsvkCYiZtxgOO64LxoKBAMmOseV4i8HMOnp88Y6JktBvRtGfPnq7ZPCd5vgYx8lV5IYQcozgPLMQqxGreTYwFYeqcl2cxoifHKmqMuFYQuHknMcb8H49GWTwISMCKxziqFz4CvExYmeNjkNUrRC1e1riYnnfeeW5lqagVLYEUAREQAREQgXQQyLQHFm1EwOK9NmvWLDcBZkKG8EHIEj9LNgFjsoxYQrgaydX5yOcYd9xxR5ETdSa9vGOZvBE2yGSYCTDeE4gFXjL3O++801UP8xtCEJNfvMII/WA/VtL9OakScWc/JqR47eA5QzsRPVjBRwRJZmxDaA9CF/1l8jtlyhSXV6UoY5KJFxQCFB5ieEBdfPHFTpRKth8eMXjC4AXHOZnUIti0a9fOTaSK8khjQgh/JmZwRaRjYsZkmHA8OMGTcQqTBxYhOwhKeBshXhZl9A8veSavhLLiDcS4ISr4Bd7C+7Mf1xriJqIZ58MbjmunOKGAc3Bf4AHHfohejB+hil5Fu0TtJXyTe4pvR8YT8QMvMYQhQuuKMq5RrisEau8eHDRokF1++eXFCsFwoX+E/CJ04pmIR1AyprSTEFXuJ8QgRLbTTjvNsUp2T/A9jGjIvYtxbRGqhYBG1EIi4zlG+HGmPLA8ASuICIIIgceeJ2ClqwohApbHJOizn3uVxQOu0aA5sGg31wVV1T0BK2o5sPBq7NGjh7uXMa77IGPHtv4cWEE9sHjG8CwmbJtnJOIy135x8zglcQ96JUdzOwlY0Rw3tToAAVZYeOHyYkLp5/8o+ax28MIgX1ZxIQcBTqNNREAEREAEROAvBLIhYDF5YAKIEOTlvCK/EPmnEuVY8hqJmDN9+nTnjUI+SYx9EF8QbIoSvsgrwgQSrw8v9w4TXxaN8NhCXPIStfvfr0zWEK7wQvIqi7EfIhsVyJIZ+zGp98KG8EwhJ0+y/RAUENdYuPLyJuEdQ5hbMhGKvEmIF4gWXhU2RCPCrfh+KMoQvZiU4vHtVSWjr4gFxfWPdhJ2RpgZohdeHUz0/BZGAYsQtyFDhjhPlmQeRnimIMjhLYPBES8hvHiK+gbjeuH+IWwQTz/Gnkny6NGj3fglC1OEJ5U5vfsBngg7hQXVwmPJfuQ7I+yIa5TrGQGT+yKZ8Z3JvYRXjbcfIhLXWlFjT//Yj+sfzx/EMs5HfraWLVsWyRMBGS8UvAoRxzBy3OGVybWW7J5nWzydEKm5XuHBubhuYVo4h5DXZwlYiUe/NAIWR4p6CCHPVnL7ed7EmRaweBdxD+NRiVjOszFZnj1vtCRgxfujTAJWvMdXvTNzHwm82En0jms3H918cCFk4YKOdxYrowot1OUiAiIgAiKQLgLZELCY1BM6yCQfEYEQCSbBeFUUZUxA8Lxi4oznDyIC+a4QFfy5bwrvzyIQHh+IEQgK7Ef4DgtE5DAqyhCFmKh7IUKIDySYZiLCBLooQwgiJxCCHNsy6adfCCHF5eZikoiYhCc2xjueviab4Hve23jD0D+MUD08vxo3blxkOwkZ5Hx4SGEIAYiAeAohpBRl8MSjjG8TL4cRHBEnCvcvjAIWoimCUlFhdYgthP8hCCE4YnhOkXw5WbgY44zohbjKtc23mbcfHi9FGR5deExxfZIbiv3w1sCjMNl+jANjj3eel+Cc/fAQwXsukSEAk0uKsScPD2GxGF5ahIUlC4vkfGwPP0JDuW8J92U/wmKTGbnjaBOeSOyHBxtjgIdYMuMaJj+X5+1DNVKEh6K8rrxjIazxXCAMFk+vTOTAioMHFl6veMUlKibgHxcYIvoiAEXVA4trEPGK6wLLtIDlPYfxYm3VqpXL7xbEJGAFoRTdbSRgRXfs1PISEuBDCrd+3LWZWJAPg1wYPBCpilO1atUSHlGbi4AIiIAIiEBiAtkQsPxnRkxi0o1okmxBZvHixXbhhRe6Cr4Y2/NeJDF5cZNnxAEvdASPJjxPEGuSGe9dvJG8KoVMuvH6IJQL75GijJw8LDQx6cMQr5gsIbYlqv7nHQfPG/IxMYHBypcv7yZcCHbJchjRF0JUmKBhiF3sRxuSJcAn5Iz9EDMwxAuqIeO5k8z7Ci+2Ro0aFXjAcT7243yFE5pHTcBico6IBBdPFMLrHY94roVk4T8IQ3ikeQnwETupUFhcDjGuDXJcIdQgniE+MjZ4cSUzxB08tPCAI9cOhicWIXlF3UeIUIhyjJe/UiHiMQJTsuvM8yxD8MAQ3bgfaGey+5Zz4kHFObmXvNC/4nKIIQQjIuIlybggPMMSXsmM+w4uVHL07kEJWP9HzO+BhYBImFsyL032xEOPewARN6oCFmGQN910k/NUxTItYHG9ErKI8MezPKhJwApKKprbScCK5rip1SkS4AXCy4YPLD50eLmTDJPVKFaHk7nDp3hq7S4CIiACIpAHBPwCFhO/dCVxZ7LkeQh5GBGfqFKXLDcQEyZEFt5/t99+u9uVdx2CCQJBUWILE2cSWBNORdUtjDxNhOcxmU5zCRxDAAAgAElEQVRmeBMx0ce7BAaIVuTn8s5f1L5MkkjSS4JgjBw8LDh5k6ZE++FZRrggHtcICRgeXrzb8ZJJJpogepEDx5vUI1jRN36W7HuAhTC8WhDbPCNfFoJgMiMsErERryEM9ohlhKElsqgJWISaEmKIWIqRzwmvE0JBk9kHH3zghCMvlxoCJyJKcTl2EL0Io8MTEeNawxuR6y9Z6CDJoPEGo8okhucV+5EDLZloiYcYXoXcS55nEqGtiKDJ7kG8ETk2Oa68diJAIWAly13FPYiXnseBa5JQXjwTkxVb4J5HuOJewpuK71vuB66/ZIaHGdfc4MGDCwRWr714b6aaxJ37xhN74uCBFTQHFp5+iFc8/6IqYOHVikceYiqWaQGL8FZv8SPpRVvolzwTyIPHPE9VCEtCLhrbSsCKxjiplRkgwOoXoQh8IHsrYYQU8pFLCEGyKi4ZaI4OKQIiIAIiECMCfgGL6nXkUSouZKe47hM6lEjAImdTceIA7znC2pi8kgMHoz2875i48wfvI4QgQu6YlOE1wwQAjy0ScXuGIESIF4ZA4HkfMSllQspEGQ8vqg16Hk0cj3ORxJh/4xnCfnirsLLOxMg7Dp40iEBefi7YeTl/EjFC0CM/CmKSv/Ii4Yd4WSczJkdeYmVvO7y1mKQVlS8LMQARg4moF/6HaII3G0IlIkwy47heX+GFeAWboiwqAhYLgohChFPi0YQhzNA3BK1kxoQeQQjuGF7xxxxzTIEYWdS+eLIhjnHNeMZ1R2hrshBOxAQEQwRPjPAvRCGOVdgDzjsuwg6hqBwbzySM6xfxDKGNqoNFGfccIaNewna+NdkPUZjk7UUZ9wnhWtxznJ8QVZ4BnD9ZEnyENfbDW8bzoMJ7kTx3yUKMuS7Zj7Hw7l2vbfLA+r9RKk0OLHj27dvXiZhRFbDwbKJoh5cjMKiAxfVP8nXv/g6axL20AtYnn3zinjksvEjASvrojeQvJWBFctjU6HQR4AXCRzYvE8QsHnSsdOECzgoZHzMyERABERABESgpAb+ARTgTH+/JyoYHOX5RAhZhSMWFr+D14CW29s6F94Yn0pCsnHcggg4TcY5HslwmwJQz9yYs7ItoRcgbE1oEInL6IF5QKQohgP4iQCFm8E7F2BYxA88mBCveveyHlw2eWYsWLSoIG0Mk8J+PBSUEgqJCrBDnmEh99tlnztPEs5tvvjlp/iq2Qzhjso7XkGeIBYggRRmeQkzA2IfvCAxRDm8exAX6hycOIhecEA7wDvNychEi54lzeF8xGfbnP8JTh3MgWOCNhOhI/8JUhTBRDizY00ZC8DwjFxnjkCzsk20JTUWAZOKJKMREl5DVZGIL+1HpkWvHC/9D9CJ0MJknlFc1EOGXaxvjOxBBF2+xoq4zri9y8Lz88ssF4g5iJUImXolFmSdeIZRyDSDw8p1Jfi7E7WTGdQYL7ku4sB+eiAjORRn9437huva4kEOIKoxEHBRlPCM4NuIY/y5scRSweP6xkB0kMbifh1/AIncdSfuLS0XC2CPuci/nm4DF+7BFixYF76BMC1i8P3hG4aUoASvI10W0tpGAFa3xUmszSICQBV5ilPRmlYSXC6EVfFTy0C2uklAGm6ZDi4AIiIAIRIxAtnNgRQxPrJuLgEV+K/I4IYgQckWIJwJIYcMTh9/7E7cjbuH5hhBBjibPwiRgEbaKeOkPsaS9hNFRKc8zBCXC6xDxKKpDPlJEPhKY8zvCU5nYM6H1KltyTAQFPNMQOgsnN0cow5MInoRv+rniSU9IHiITopKXN4f7kePjXYjXHAUCvDxwtBVBglDVogxRlTYSQkc/PPMqKha1H+1DvEOc88Rc/k9YbVFJ4v3HQuDyvPVgSBsKi3oIWwionniLRyJeMrD2DCEUARkRqnCOLoRSBCu2wduSim+ewQ9uCNRxFLC86o/FJdAvPL5+AQshlHDLIBb1KoSl9cDimYAgTVgvlmkBi2cRFTd5FkjACnJlRmsbCVjRGi+1NgsE+OCkWiEfOIQf8MLnowFXVNzRWemWiYAIiIAIiEAyAhKwdH2km0CYBKyS9g2BDiEEjyAS/+P5hJcUIYCeN5r/mITKUdUP8aZwfigmp6tXr/5LLjhvfxYdEZzwiPFynyGS4QmFeEN+nMKGF2AyL0YEHr4NCxsVBJN9FyJEIlj5RT0m1FT8DPI9ieceAhOG11Wiogl4TCKU4qGJsT3J5f3eiHgUcv3Q/8KhjrAivBjWsPHvR0EE8tgxRpkQsBhnhAa8w4ozPDoRi7iOYIiYQvGKwoao6IUcw5hccxSd8AwhEZYIkRwHrzo81vCMgxuL2BQP4PecC5ELr1KO5eUcw+sOz0I8fYIKWDAkZJQw4zh4YHFPExYbJDQepoSdIwBjmRawCHk/55xzXGi5BKzi7qzo/V4CVvTGTC3OAgFe/nzs4HpKBSXCC3EzZtWQpIC4YstEQAREQAREoCgC2RCwmJBS7S4VI1SNyQXhf8kM7wxCXxAV8AAhbAuvBTyNSJ7NMVjsIZSGST1hZITiESbFO5XJ4bHHHuu8krycPKm0Ox/3jbKAlY/jla0+433FJN3LbVfUeb3cXmzvNwSdRCIi2yC+EdKK4JIJAcs7R7LKjX7hCXGNtqRLwOLYeJmxSE0bEOt4nuFhyLOR6AzCopkDIGrxb4wQ6c8//9z9O6iAtW7dOldtElETwwsPz7womd8Dq3Hjxm6eROGD4gwPPryhCOvDMi1gqQphcSMS7d9LwIr2+Kn1WSCAmztu7KwW4m7OCh1u77zsDjvssCKTvGahaTqFCIiACIhASAlkWsAidxRh723btk2JALl1mLzWrFkz6XHwRsADhfxXhNQzucMzBo8EPDc4BivyhB/hqcDKN14fLAB54UdMAMlxVNxEu7QdIucUeb7wwCE0jdxZiTxW/MdnokO7iuo/uZkIxyL0rLDhVcMklNAYFr2YVCMoeiIeQh9Jwkm27fEiJAxuhBTCkzAyePIz2oynN+FvCxYsKDgd7AmTC5uAhSdPsmp9JR1HvLMQERhDLzcUP8NLBxEFxowVnPk5P2NcGAdEUkQGrkG8s7zcZCVtg7YvmkCmBKzSME+ngFWa8/v3QdR/4YUXXNGLZEZIJwvgXpXNqAtY5H/D2y1ZPjY/D8QunpUSsFK94rS/BCxdAyJQDAFWpviYwo0YV1kS8fIxzgc6D2+qyJDsvbgEpQItAiIgAiKQPwQyLWCde+65Rj4VQltk/0uAcB7Cy/CowMsLMaS4dzPbEWaGSJLIEPhYuPLnevK241yIJ3wPIKAwwUdQQdDD24Vj8nvPi4Xz8G/+5rh8V5DkHe80fkZb2J8cRv4k2hMnTrShQ4eGSsDCQ4WE355HSjquQcLXuJ6pJElydoyfIfDhCYPnCt9bjCuJ+/kZoXPkCUNAJSzvpJNOclUC4yBgPfLIIy4XmBcGCQ+uG75FEVVJHr5ixQonnBCK6YUQsh1ekAjFCKp4QyIcIIpyzSKmco8giBI+yL85rl80TTSeErASX+V4tPG8R1wNKmCxLYJOcVVS03FfpfMYfg8swjSpEBvUsilgcY1fcMEFLsxUIYRBRyg620nAis5YqaUhIMAHJR9NQ4YMcaGFfCCxCs6HAivhrBgWVb0mBM1XE0RABERABLJEINMCFhN3QvqYsMviTeDOO+901cvC5IGVqAphvEch+70jjw8hugicniHSUr0Tz0KeAXg0egIUoW+eIap6uZ7w+CFiAO9IfoZYhbhK3i++a/k3oXn+5O3ecYg8YKwRCzMlYOE1R3iZl3C/KNIkmPeqhabLA4vjUB2W9CAYwkfXrl2tb9++BelCCHsm39XFF1/scjh5RQNYzMZKI2Axd0D8oehAlMwvYFGtnT4Enfew4MI+WKZDCLl3eF5y7UvAitIVFqytErCCcdJWIvAnAuT6IP8H1Xb4m48Bwg+YSLA6SIy7/4ND+ERABERABPKLQKYFLGhOnTrVunTpkl9g87C3ErDycNBD0mWeY1RnJIw1EwIWHokjRoxwuaASeTn6MRDOi1cNolu6BCxEwCeeeMIJfBgeaoiChEp7ghriHv0nRJVz421JmGrv3r2d6FcaAYtUJBSLKi50OySXQUEz/AIWfFi8Z85TnOGJetFFF7nFfwyBkNxhiQonEErNMQkThjlzrJKacmCVlFi0tpeAFa3xUmtDRIAXGPkXeEhSvYQqJ7i184ecJFRVSVaSOURdUVNEQAREQATSTCDTAhaVnwjJoJKbLN4EJGDFe3zD3LtMC1iE2k6YMMEJU8UZIZIsEuMNFlTA4lsc7ylCdT3zVyFEfEJAQ4wqiXGMzp0724wZM1xbqHjHonYy8+fAYsF75syZkcuj6xew6CtewEHGDu9A8v1R5RFjPKggmcjrjhyAeP4R5SIBqyRXZf5sKwErf8ZaPc0gAfJY8HDmZcZKAbkIyONAUlZyD7DCU1R+jQw2S4cWAREQARHIEYFMC1jktCGBriz+BCRgxX+Mw9rDMAtYs2bNctUCCxui0oABA9yPKaRAmBuFHTyxBHGE/SgKwHc6whjf6SU1ctWRy4rjBBFa/AIWed1oF7kMo2SlFbBIv9KkSZMSdzUI10QHlQdWiVFHagcJWJEaLjU2zARYKcArC+vRo4crscv/eUmxAoSrLKs0xblIh7mPapsIiIAIiEAwAhKwgnHSVsUTkIBVPCNtkRkCYRWw6C0RD4nyL5Gbyvse97aj4NIhhxziICH8U1mc73Y8sG6//XYX0lYaI9cYaUXwJMMjFkGqqJxQfgGLJPwIbeTCipKVRsAiBHP48OEuf3BQ89KwwIdCWiU1REpypi1evFg5sEoKLwLbS8CKwCCpidEjQJJNvLAoIc6DmxcpqzyDBw92SSFVNSp6Y6oWi4AIiEBJCGRawCL3FUlx5d1bklGJ5rYSsKI5bnFodZgELKpTUpWRfErpMkQw7i8WnktjFG8i8TtiGHmzyEvYunXrhIfK1xBCxEKqLb777ruOC1U1/fMg8o7hzeZVDmXhf9iwYa5i6ymnnOK86EpqzLtwHiBZvJK4l5Re+LeXgBX+MVILI07g8ccfd27CrAKQM+uoo46y6667ziWMZOWG1R+ZCIiACIhAvAhkWsCqW7euS6BLaIws3gQkYMV7fMPcuzAJWHC6/vrrbdy4cQXI+K5GEMEQLbxIB7yw+B0CVaLvbEQTfkcV8eXLl5d6CDZs2GD777+/E2BYTOjfv7/deOONTnwpbHETsMi/SLQJ4lRRtnXr1oLqjXimValSxQYOHGh9+vQp2IX50fnnn2+ff/65+9lzzz1nLVu2LPWYsKNCCFPCF/qdJWCFfojUwDgQoGoJlTeoOLJkyRIjZ1azZs3skksusZNPPtkJWapaGIeRVh9EQARE4H8JFBawmNhQaSuI7bLLLm4zEgUzEWIixs+effZZFxbBO0Q5sIKQjMc2ErDiMY5R7EXYBKxVq1bZunXrHEqeiywQ9+zZ0/0fDy1CzurVq+cqCeKhyjc2ycL9hrjF4jLeXFTBO+GEE0o9ND/88INblCYRPQIaz+lu3bq5xPF4EvktbgIW+b8QsI477riE/PCoQozyBC7CLEmnwrvQP+ch3A8POKpMYukQsF599VVXyRCBUR5Ypb68Q7ujBKzQDo0aFlcCCxYscKVkebliBx54oIsLP/bYYxOWk40rB/VLBERABOJMoLCAVZK+UmId8YqiILwj1qxZ46rajh8/vuAwErBKQjTa20rAivb4Rbn1YROwwsiSZzWi2YcffljQPKoaDh069E+hcnETsOhssiqEK1euLMg7xraEWyJ48X7z24oVK5yXFuJkugQsHAe6d+/uHAckYIXxrkmtTRKwUuOnvUWgVAQWLlxoVE+ZN2+ei+UnZxaJH0kyiZBVp04deWSViqx2EgEREIFwEEhFwArSAwlYQSjFYxtPwNpvv/1szJgx1qhRo6x1jPAr8tUQ/kNOz1tvvdXuuusuu/rqq2306NEuDEsWXwISsIofWzy67r33Xud19dVXX7kdqHjYq1cvu+KKK1zYHN5H+SJgffbZZ+4Z8cgjj7g+Y1R5JOQdj7jCxhwILzb2SZeApRDC4q/bKG8hASvKo6e2R5oAqwO4zd59990uvBCX6MqVK1uNGjXcqg0hhjVr1ox0H9V4ERABEchXApkUsBAUKBNPrhVZ/Al4AhY9rV279l9CkzJJgMk31dsIZX3rrbfspZdecpN0CViZpB6eYxcWsG666SbnDZqKEQJ95plnukMg7BB+d8EFF6RyyJzvixcW3j7XXnttQdU8ntPk2CLsmwVqPIEo5PT222/bSSedZDNnzrRKlSrlvO0laUCyKoSMK6F7zGFYqEfYQ/jG84owQsI9E9krr7zixp9rTQJWSUYjf7eVgJW/Y6+eh4gAeU3mzp3rVivwyCKOnpc7yXlZvSGmPh05sljl2LZtW4h6bi7pJS9+/hQ2Pmxor/93fBDQD3j4+8IqMD8j5t5L3Mn+GP9nWxJ9sk06WIYKohojAiIQOgKFBSzyhFDEIx1WtWpV69y5s8ufKIs/AXJnkj+N6sYlMd57XmUvL9E1+zOx5DuD9y9/k8eHyfWuu+7qDk+Ca/bl24MJaGFjuxEjRjjPcb1PSzIi0dvWL2BlovVxEbC8++aBBx5w3kSFv7f5nj/iiCNcyB0CcP369V3i8kTJ3lPhjMfkZZdd5u7Lb775xgnOVESfM2eOSzRP4vXTTjvNnnzySbdozr2PiMa7hPsa76kmTZq4fIu0me3IJeV9S0+cONEQMXluYOecc44dfPDB7t8bN250YiRCFsbY8twhaTtMijKqEzLXIfcVlo4cWH4PrAMOOMCeeOIJ13dZPAhIwIrHOKoXMSCAyPLyyy+7+HC8sXC7/fLLL61NmzbuJde0adOUwgZ4kbGKS5LLMNmhhx5qlNjlpVnYeGny8vWXTCZ/2Pz5861atWpGfL1nvHCZ1PFhTkUTQi0QAXmJ8/G/dOlSF3e/5557uhDNKBsfBPSf5JT0t7AxEaHsMBVd6C+u7Fu2bDESbpJ7jQ8myj1jVIhZvXq1q4qpUJAoXxVqe9gI+AUs7jdCv7p06RK2Zqo9ESFApTQvPClok9mHySTvDCbPnpFbjevz8MMPd98beIIwmSVnDPbGG2/YsmXL3PXqF768/ZmYcrx0T76D9kvbZY8A3xkkO3/ttdcKxNB0nj1OAhZcEK4QYPBAQvzx8jqlk1myY/H9R1J6vn0Rp9555x33Pcy3P23zPCr5fkaw8gqEkMye+5lnA16etBvvMbbznh0I26+//roTqooz3nkkbOfc5AfDC6soI3cYAj28sHQLWHzzP/PMM64tsngQkIAVj3FUL2JEAEGBlY2nnnrKrbBjvGR4kbBCgZiFF1JJjSSJrMLwsgqT8XFMfxN5YHneVv7fIcaQh4OXs78vrCR7K8H8HjHGW03mpc0fXs6sTiUqqRwmJsW1hX6R2BnBMxE3+kfVHT48EKYQsdavX+/yqzEpoTKO9yJHOMTtnYmLV/msuPPnw+8RRAnzhRs8CQFgMghPPkxZyWMFlY8+DIGUVUQ+lPjAQ2hlQsjHIBNEVijxsuTD8rHHHnNltxEUqZgkiycBv4BF+Ajjrgl/PMc6rL3iHemF8fivPd4bTEb5GX/jmcHE13ue4X3FO5P3bSIPrLD2V+1KPwGuFSb/JNlGyPjPf/7zJyGLby/ei4SO8Q1BfjbemezHe8/zhPe3jMVU79slbgKW10++QxGPJk+e7Lx/vMqJ6R+hcB5x3Lhxdvnllzsvz+IMNnyDsjiNpVvAUhL34kYger+XgBW9MVOL84jAo48+6kQK/v7ggw+cIEMYCjH0eGaVJEcWqy/+FVg+XBEyeLDzNyu7fKwyaWfVhg8RvHZYNUEY4iOX//Ohy79lIhBnAohLeC5wX3D9n3jiic5joUGDBk6gwtuP+88T/agSh3cbbvh8jJHfgvuV+wVPOO4j8jwcdNBBzqsQoQsvOu65oMZEkpAd8tHss88+QXfTdjki4BewEJFJ8IuIXBpjkseqOJMirjNECU9sQKznD4sf/M1zmhVvT3jg/1zDXIssGBAuwuSR7SWglmY0tI8I5B8BxAUWUvmW9MJSocAzh8Ucnnc8X3hOIWDxjKpbt25CD74HH3ywwBs1rgKWd4WwQMu7n8XCzZs3F4QQZusKYqyI5iAKA++rdD3z6QvfOH6BqmfPni5ZO0YERNDFYjywyKlHYat0CVh4DrKQyIKjBKxsXW3ZO48ErOyx1plEoFQEmHwQTkjcOeLSv//9bzdpZhJ79tlnu8SQQULi/AIW4YiE5zVu3Nh9fOAN8vzzzzuvnDfffNMll+eYePDg1ovYxblxIacttCnKhlcMk0C8bDzjY4tQOoQLBD3PNm3aVJATIFGfmQgiSMCODzxyC/CxwBjxIcdHA0n64Ue4JKEZJLNkhYnJ6CmnnOJ+LxOBIAQQQrhfyU8hCzeBwjmwEDdLO3kgJBjxknBrFjTwkCGvB8bzClGK1X7+xlOQiQTPdiYvCK48w3l2M4HBKwLvGkRXPDXjbnge8/7jnQc7uBx//PFuMolHKt4jjA0ekojKVMlikYZFIxgz+eRZDT/emeQxg6u3L+IgITUkOG/ZsmXccap/IpAyAb6HPAE+7gKWHxbPFb49sxkJwTkHDx7snlckVydsOB3Gc5HvXn8Ser6fE4UcF3c+FuoJV167dq3bNB0eWESd8MzHi14CVnEjEL3fS8CK3pipxXlKgA9mPEIoMzto0CBHgRV2PqZx08W9O5n5BSzELxJNEoaWyDgXx/b+9m/jX3mL6lDgeYDI5I/Jp1+8PKkC6Q/R5EOLyQkriYkM4YtcAYSU8UJnsoRA5uWpwuuBlzNjh/DApJYJE5NMJqFMIPl9nA1BlAIFnTp1cvnJzjvvvILuMiEfMmSIW33jQ2vkyJFuco3hndSnTx/nOUI+BXKZEaaHFxT/Z1KJUMjHCVwREvPB8L7Kt3CEKI4r1+1tt91mw4YNS0vzPY+qIM9gf9hX4e29Z7v3DklL40J8EN5zLE6wcMBqPF4BTOJYXGDBhpAnwn15viAw8k7Fa4KJJp5s7MuzmokQ7wxPOPT25fnDog73JO/WqBuLV3h5UyG5sNF33pGElBU2hAie7eTxpIoy3g+Ep/MMR0SFF9xJ/n7ppZf+ySM86szU/pIRyFcBq2SU0rM136Xcl4hmhPWdddZZ6TlwGo+yYMECt0DDgjGWDgHLn8RdAlYaByskh5KAFZKBUDNEICgBJkV48UydOtV9jDOhZ1WdD2u8pVg99lx4/cf0C1h4/VApRBU5glLXdqkQ4MMJwRDvBiZ6hN95xu9wH8fDhIk2k0QvMT2eDXix4eXmhUZ5opUXouDlPSPslY/iOBofc7jW46kHCwlY0RllJg9UX2L1m2tXJgJhJ4C3Ht8UhOAUNhZ3WJzBe62wMUnkGU+oFF6BCF0UYOEZzncLf/g5z3g8Sf2ezmFnUtL2EVrFYpbnKdu2bVv3DPcqtyHkUb0tmfHMwDMQr5a4Gc9CT0jJJw+sXIwjURvt2rVzpybPFIsqfq+pXLSp8Dl5NvTv39/uvfde9ysJWGEYlXC3QQJWuMdHrROBhAQ8byw8f0ioyUMfrx8+mqi0R+nb3r17/yl5pl/A4sPyoYcecvm0ZCIgAuEmgMiHVxqTPoQ6CVjhHi9/6/AqZBKP56FXWjysrecdggcknjN4OWJ9+/Z11Wv5HRWlKCxC6A8eNbxvEJZ5nyBQkwuF6xNPJLxcuV5ZBZeJQL4RwMsRoc/zJkak8QvY3CvFFU3B6w9RMGgeoSgx5hsWD0hMAlZmR84vYLFoPWPGjFB6PxJZgrgmASuz10Ncji4BKy4jqX7kLQEmt4QVjho1yoW6scLHhxOTByqf8DfhEX4Bi5DDsWPHJqwOk7cg1XERCDkBvB8kYIV8kCLcPN4dhPTiIelVrMM7Eg8QPP/wnMEzhwk1Yhzej0zUmYx7k228J5m0sz0/j6tXJP277777XCicl8QYbxsEB/Jr+Y3QOfJpsWCEOMhEjXyI99xzjwv9ZzI/cOBA997G44b3NkYYHkLitGnTkl5VVDa95pprCrwscnUJUqwikfd34fbgbcG1Q7/h5a+OyPON6wumMEbk4PdsDx8EYby/vOqIePQSTs53EKJpcYboyvXpeUIVt71+n3kCeAOR47VDhw6ZP1meneGjjz5yaSq4NzHuz1mzZtnRRx8dOhISsEI3JKFukASsUA+PGicCwQgweWCFnHK9iFjkt/I+8qh6hvsweYgQrTBW1RG8ZCIgAtEhIAErOmOllsafAEKIX3zxqvPileY3hBiEPYQZxBs8Tvg3+3sJjxFuEAP54x2HbRB4eL8nM7bjmEEEnEyOCt57/fr1K/YU5HxEtKBftJsKdp7h2UceMi/sEA9zckfi9YeQijfjzJkznZc5+86ZM8cuuOACl7+SsKPijMk8+RK9XDvFbR/W3yOIci2Rk4x8mggT/qrUs2fPLhCW+QaEI7xhiZCKeFpSQ2zFc7+467Ekx0WIxMMTYbfwfVOS42jbxAQoPOG/v+B90003ubx0PFvCZOkWsFh8ITE8XsDKgRWmkU5PWyRgpYejjiICoSDARzKrmuRa4KPOW/3m4c3PvdxCErBCMVxqhAiUiIAErBLh0sYiIAJZJMD3RZBJcaKiAl4zvd95RQg4pvfvRD/zF5rxvm+Sddn7FgpSCCGL6Ep8KgRPhE6EPRYvEVIR9Dwjfxl9hQke+BQk4N/kHSNPGSJeSY1CNogCQTgHPTaiFYUSglw3QY+p7f6XAF6yl112mU2fPv1PSFq3bu2EX89zNCy80i1gUYWQPGt4oUnACssop68dErDSx1JHEoHQETj//PPdSuNrr71mX331VUH7cLknCTwJ370k2KFrvBokAiLwJwISsHRBiIAIiIAIiIAIFCtziEwAACAASURBVEeA8FuKB1Bd1W8UECAs2ctzWNxxsvX7dAtYqkKYrZHLzXkkYOWGu84qAlkjwErj3LlznUcW+SIwwhZwwW/fvr1bofHCGLLWKJ1IBESgxAQkYJUYmXYQAREQAREQgbwj8OSTT7ocexTYKGw333yzCyUMk0nACtNohL8tErDCP0ZqoQikhcDSpUtdWWe/4VY7fPhwV1mKZO8yERCB8BKQgBXesVHLREAEREAERCAMBMi7h0g1dOjQhM3p0aOHq/hHUYOwWLoFrJUrV7oQQsJeFUIYllFOXzskYKWPpY4kAqEm4K9CyETYe3HhZtyoUSPr2LGjtWnTxvbdd19VJwz1SKpx+UpAAla+jrz6LQIiIAIiIALBCJA6hIqxyYzIjNNOOy3YAbOwVboFLApXURxg0aJFErCyMH7ZPoUErGwT1/lEIEcE/AIWHldUIcH+9a9/uRBDEh0SE9+1a1c75ZRTrGHDhqoKk6Ox0mlFIBEBCVi6LkRABERABERABIoiQNqQhQsX2oknnpgU0oQJE1yIYViSuadbwKKiaYcOHYxKjPLAit/9IgErfmOqHolAQgJ+AatwFULCCydOnGgLFiywTz/91KpWrWq9e/d2FW7OOeccV7lGyd51YYlAbglIwMotf51dBERABERABMJMYNu2bVapUiX78ccfkzbz0EMPtdmzZ1udOnVy3h2qZPbs2dMee+wx15bnnnvOWrZsmVK7Pv/8c7cgTy4wCVgpoQzlzhKwQjksapQIpJ9AMgGLs1GS+YUXXrAZM2a4qiWUWeZnZ5xxhnXq1MmaNGlijRs3Tn/DdEQREIFABCRgBcKkjURABERABEQgLwmsW7fOpQX5+eefk/Z///33d9XIEbJybcuWLbMLL7zQ3n777bQJWKpCmOtRzez5JWBllq+OLgKhIVCcgOU1dOvWrS7p4QMPPGBTpkyxzZs3O0+smjVr2oMPPmgHHXRQaPqkhohAPhGQgJVPo62+ioAIiIAIiEDJCPTv399GjRplhBImsx133NEGDhxogwcPLtkJMrA1XmMDBgyw0aNHS8DKAN84HlICVhxHVX0SgQQEggpY/l1xL77xxhvthx9+sPXr19shhxxiJ5xwgl111VUuP1aNGjWsTJky4i0CIpAFAhKwsgBZpxABERABERCBCBJACLr00ktt2rRpgVp/xRVX2JgxY0JRuCndObDkgRXoEojsRhKwIjt0argIlIxAaQQszrB69Wr79ddfbfjw4e7fJETE9ZgKJ3/7299SjlMvWS+0tQjkLwEJWPk79uq5CIiACIiACCQj8Oabb7pF5i+++CIQKPLdslB99NFHB9o+kxtJwMok3fgdWwJW/MZUPRKBhARKK2B5B0PEYkWjY8eO9uWXX7of77vvvq7SCWGF3bt3F3kREIEMEpCAlUG4OrQIiIAIiIAIRJhAly5d7OGHH7bff/89cC/mzZtnrVu3Drx9JjYk9xXeYOThxdKRxF0eWJkYqfAcUwJWeMZCLRGBjBJIVcCicb/99pu98cYb9s0339ikSZNcAkji7HfbbTfr06eP88bae++9Q1HVJKMwdXARyAEBCVg5gK5TioAIiIAIiEAECFSuXNm2bNlSopYefvjh9uijj1rt2rVLtF86N6YC+rnnnmubNm2SgJVOsDE+lgSsGA+uuiYCfgLpELC84yFakRNr5syZruzt0qVLbdddd7VddtnFVTQZO3as1a9fXwMgAiKQRgISsNIIU4cSAREQAREQgZgQuP/++61nz572008/lahHZcuWtTvvvNMuv/xyl9s2FyYBKxfUo31OCVjRHj+1XgQCE0ingOU/6ccff2xz5syx66+/3n788Uf3qwYNGliFChXstttus+OPP9622267wO3UhiIgAokJSMDSlSECIiACIiACIlCYALmvFi5cWCow559/viGAsQidC5OAlQvq0T6nBKxoj59aLwKBCWRKwKIBrPjMmjXLlixZYq+++qotX77ctYvQQoStM88804laMhEQgdITkIBVenbaUwREQAREQATiSIAcUmeffba99dZbpeqeBKxSYdNOOSQgASuH8HVqEcgmgUwKWPSD/Fj82bBhg7388svWv39/+/TTT51LMuGEJHzHU0veWNkcdZ0rTgQkYMVpNNUXERABERABEUidwAMPPGBXX311icMHvTNTjXD69OnWqlWr1BtTiiPIA6sU0PJ8FwlYeX4BqPv5QyDTApafJBVQ8Mrq16+fc2l+//33XVWUSpUq2YQJE1zVwnr16lmZMmXyZwDUUxFIkYAErBQBancREAEREAERiBEBKoTfeuut7s8vv/xS6p6R0/acc84p9f6p7EjkxoUXXmhr1qxxh1EVwlRo5se+ErDyY5zVSxGwZcuWWbNmzRyJa6+91kaOHJlxKiR7J0fWs88+a9ddd51t3brVeNnutdderuLIgAEDjEn5DjvskPG26AQiEHUCFEr4/vvvrW7durZ27dqod0ftFwEREAEREAERSIHA5s2b7cgjj7R169a5KIjS2oknnmgzZsxwqT+ybcwVbrjhBpc3VwJWtulH83wSsKI5bmq1CJSYQDY9sBI1jgTvEydOtGHDhtkXX3zhvK923nlnF2rYq1evnLw0SwxRO4hADgnIAyuH8HVqERABERABEQgZAcSfn3/+2Tp37uwqghc2oiG+/vpr92OKK/EdUZQxT6hVq1ZOejho0KCMCVgs/j3//PN28MEH56RvOmn6CUjASj9THVEEQkkg1wKWB+WHH35w3lgvvfSSvffee/bdd9+5BO/XXHONHXvssS5XVrly5ULJUI0SgVwSkICVS/o6twiIgAiIgAhEi8C///1va9eunWs0Hk5EPoTNiNTo0aOH0VYsHSGEzC86derkCku1aNHCFZqqVq1a2Lqu9pSSgASsUoLTbiIQNQJhEbDgRj4sXi6sFhG3T+L3bdu2WcOGDa1jx47WpUsXtwpUtmzZqGFWe0UgYwQkYGUMrQ4sAiIgAiIgArEjEAUBi8JPF1xwgcuXmy4Ba9WqVS6n1zvvvOOKRzHf8NKoxG6Q87BDErDycNDV5fwkECYByz8CxO/ffvvtNn/+fFu9erXLkVWlShUXD8+qUc2aNV0lQ5kI5DsBCVj5fgWo/yIgAiIgAiIQnEAUBCx6k+4QwrfeesvOO+88Q8iSgBX8eonKlhKwojJSaqcIpEggrAKW1y3EK160s2fPdt5Z3377rQsp5E/79u2tcePGErJSvAa0e7QJSMCK9vip9SIgAiIgAiKQTQL5KmD5QwglYGXzisvOuSRgZYezziICOScQdgELQIQRbtq0ySZNmmSPPfaYrVixwolWu+++uws1JEmlvLFyfimpATkiIAErR+B1WhEQAREQARGIIIEoCFhfffWVK+b08MMPO8LpyIH14osvWtu2bW3Lli2ucvNTTz1l9evXj+AIqsmJCEjA0nUhAnlCIAoCln8o3nzzTfdCW7lypXsBIVx169bNJXgnCXwuSv3myaWiboaUgASskA6MmiUCIiACIiACISQQBQHro48+squvvtrmzp2bEQGrefPmLol7jRo1QjhCalJpCEjAKg017SMCESQQNQELxLgA44XFi2fr1q22YMEC++2331xixssvv9yOO+4422GHHSI4GmqyCJScgASskjPTHiIgAiIgAiKQrwSiIGBt3LjR+vTpY9OmTcuIgHXooYfanDlzXHEoWTwISMCKxziqFyJQLIEoClh0ioqFiFY///yzTZgwwcaMGWOffPKJVahQwSV679+/f7F91wYiEHUC48aNs759+9ovv/xi++yzj61bty7qXVL7RUAEREAEREAEMkggCgLWokWLXML1L7/8MiMCFgvdVCE87LDDMkhah84mAQlY2aStc4lADglEVcAqjOyll16y3r17ux8T1z59+vQcUtWpRSA7BLjuTzjhBPvpp58kYGUHuc4iAiIgAiIgApEmEAUBa9myZXbRRRfZmjVrMiJgVa1a1RYuXOiKQcniQUACVjzGMee9+PHHH+0f//jHn9qx1157OUVdFg4CcRGwoLlhwwYHlVWV6tWrhwOwWiECGSagEMIMA9bhRUAEREAERCBGBKIgYBFhQW5bbx6Z7iTuBxxwgD3xxBPGvFQWDwISsOIxjjnrxR9//GEPPfSQTZw40fAQKFu2rH3//ffGz0myfeSRR7qHUsuWLa1MmTI5a6dObBYnAUvjKQL5RqBfv342duxY+/XXX+WBlW+Dr/6KgAiIgAiIQCkIREHA4rtm4MCBNnLkSNfDdAtYVCMkv1bFihVLQVC7hJGABKwwjkqE2jR16lQnUJEgr1mzZq5kKblacAddvXq1E61OOeUUmzJliu2xxx4R6ln8mioBK35jqh7lD4H77rvPevTooRxY+TPk6qkIiIAIiIAIpEQgCgIWOT2vvPJKe+aZZzIiYJF+gXQjVapUSYmldg4PAQlY4RmLyLXk7rvvtkGDBrnk2kuWLDFcNHfaaSeXo+WVV15xVeLef/9954k1dOhQ93CS5Y6ABKzcsdeZRSBVAi+++KLLgcXzVkncU6Wp/UVABERABEQg/gSiIGC99tpr1rVrV1u5cmVGBCzmpnxDKYl7fK53CVjxGcus94SHzaRJk1zY4KuvvmpNmjQpaANV44g3bt++vfsZSbdHjx6d9TbqhP9HQAKWrgYRiDYB5cCK9vip9SIgAiIgAiKQTQJRELBYmLv++utdmgQs3SGEXbp0sX/+85/OyUIWDwISsOIxjjnpRTIBiwZR8QGPAQlYORmev5xUAlY4xkGtEIHSEpCAVVpy2k8EREAEREAE8o9AFAQsRoWInttuuy0jAtZBBx1kcKhdu3b+XQAx7bEErJgObDa61b17dyMvC4p2YQ8sCVjZGIGSnUMCVsl4aWsRCBsBCVhhGxG1RwREQAREQATCSyBfBaxffvnF5Q1lnrrddtvZ0qVLXa5mWTwISMCKxzjmrBeIWDwkBg8ebLVq1SpoB1UIScZ36qmnugdH3759bcSIETlrp06sKoS6BkQg6gQkYEV9BNV+ERABERABEcgegSgIWJ9//rn17NnTZs2aZTvssIMtWrTIWrRokRIkcl5RWGzLli3O0UI5sFLCGbqdJWCFbkji0aD169fbtdde6x5GDRs2tAceeMCOOuqoeHQuor2QB1ZEB07NFoH/T0ACli4FERABERABERCBoASiIGBRCIw8VR999JFLPUPl+j333DNoFxNu5xewWrVqZTNmzLA99tgjpWNq5/AQkIAVnrGITUvwvrrhhhtcLPP2229vHTp0sPHjx7tqhLLcEZCAlTv2OrMIpIOABKx0UNQxREAEREAERCA/CERBwMJLikgdCoNh6U7ijlfXSy+9ZIcffnh+DHoe9FICVh4Mcja7+Ouvv9qyZcusV69etmrVKmvXrp0Tsij7LsstAQlYueWvs4tAqgQkYKVKUPuLgAiIgAiIQP4QiIKAtWDBAjv33HNt06ZNGRGwjj76aBcRVL169fwZ+Jj3VAJWzAc4m937/fffXYzxxRdfbJ988ol17NjRRo8ebbvvvns2m6FzFUFAApYuDRGINgEJWNEeP7VeBERABERABLJJQALWFuvWrZvdc889VqZMmWyi17kySEACVgbh5tOhCRv87LPPrHfv3vbII4/YGWec4cIGa9asmU8YQt1XCVihHh41TgSKJSABq1hE2kAEREAEREAEROD/E4iCgPX222/bFVdcYS+88IJrdbpDCCVgxe92kIAVvzHNeo8Qr0jAd/PNN9u6deucaMXD4oILLsh6W3TCoglIwNLVIQLRJiABK9rjp9aLgAiIgAiIQDYJREHA+vDDD+3KK6+0p556SgJWNi+OCJ9LAlaEBy8sTUcYIXZ5w4YNLmzw7rvvNiZaO+64Y1iaqHaYmQQsXQYiEG0CPFd/+eUXu+mmm1yhDJkIiIAIiIAIiIAIFEUgCgIWKWgGDhxod9xxhwQsXcqBCEjACoRJGxVF4LfffnMPnREjRtgRRxzhypTutddef9r8xx9/tPXr17vkeRUrVhTMHBGQgJUj8DqtCKSJAALWtm3brHv37nbXXXel6ag6jAiIgAiIgAiIQBwJREHA+uCDD5wH1tNPP22nnnqqTZ482apVq5bScJCTuW3btkaFQ4UQpoQylDtLwArlsESnUSTFI3Rw69atNmrUKPcA8hsC15QpU2zs2LF26623Wps2baLTuZi1VAJWzAZU3ck7AgohzLshV4dFQAREQAREoNQEoiBgvf/++05kWrhwoR133HE2depUq1WrVqn7zI4SsFLCF/qdJWCFfojC2UDcPRGv+vTpY+TAuvPOO93DZ6eddipoMOIVwlaXLl3cNvfee6/Vrl07nB3Kg1ZJwMqDQVYXY01AAlash1edEwEREAEREIG0EoiCgLVgwQKXimbTpk2u70rintZLIJYHk4AVy2HNfKdefvll69Chg33yyScu19WQIUNs5cqV1qlTp4KT4xL6wAMPuPDBSy65xEaPHp35hukMRRKQgKWLQwSiTUACVrTHT60XAREQAREQgWwSkIClEMJsXm/ZOpcErGyRjtl55s+fb+3bt7fvv//e9czLzVKuXLmCnuKB5f2+d+/eErByfA1IwMrxAOj0IpAiAQlYKQLU7iIgAiIgAiKQRwQkYEnAiuPlLgErjqOahT4RW9yjRw/74YcfAp3toosuskGDBgXaVhtlhoAErMxw1VFFIBsEPvroI9t///2Nohj77LOPrVu3Lhun1TlEQAREQAREQAQiSiBqAlalSpVcMvdmzZqlRFw5sFLCF/qdJWCFfojC2UBKuX/33Xcut1UQ23nnnW2XXXYJsqm2yRABCVgZAqvDikAWCEybNs0uvfRSV4VQAlYWgOsUIiACIiACIhBxAlEQsFiQo7oy0T0HHXSQPfLII1avXr2UyEvASglf6HeWgBX6IVIDRSA9BCRgpYejjiICuSBA4Yzy5cu7U69evdqJWDIREAEREAEREAERKIpAFASspUuXuoJfCFkXXHCBjR8/3nbdddeUBtUvYFWuXNkWL15sTZs2TemY2jk8BCRghWcs1BIRyCgBCVgZxauDi0DGCXg5sPbbbz97++23M34+nUAEREAEREAERCC6BKIgYPmrENatW9cef/xxa9KkSUrQ/QIW3usTJkyw7bffPqVjaufwEJCAFZ6xUEtEIKMEJGBlFK8OLgIZJUDIdrVq1VzeQYUQZhS1Di4CIiACIiACsSAgAWuLseg3b948QxyTxYOABKx4jKN6IQLFEpCAVSwibSACoSVw1llnuVVJQgklYIV2mNQwERABERABEQgNgagJWLvttps99dRTdvjhh6fEUDmwUsIX+p0lYIV+iNRAEUgPAQlY6eGoo4hArgh4IYQSsHI1AjqvCIiACIiACESHQNQELML97rrrLitXrlxKkCVgpYQv9DtLwAr9EKmBIpAeAhKw0sNRRxGBXBGQgJUr8jqvCIiACIiACESPQNQELHlgRe8ay0WLJWDlgrrOKQJZJrBt2za76aabbPjw4e7Mffv2tVGjRmW5FTqdCIhAKgQkYKVCT/uKgAiIgAiIQH4RiJqAxeg899xz1rJly5QGSh5YKeEL/c4SsEI/RGqgCKROgATQxJN7lcskYKXOVEcQgWwTkICVbeI6nwiIgAiIgAhEl4AErC3WrVs3u+eee6xMmTLRHUi1/E8EJGDpgigg8Msvv9jq1autadOmBaVG33jjDatatapVr15dpCJM4I8//rDFixfb8ccf73ohASvCg6mm5yUBPkI7duzokrj36tXLRowYkZcc1GkREAEREAEREIFgBCRgScAKdqVEaysJWNEar7S19rXXXrMJEybYb7/99icB6/XXX7eDDjrIdthhB/fzFStWOPFqzz33TNu5iztQlSpVrGvXrm6zChUqOAFNljoB5cBKnaGOIAK5IjB79mw7//zzDTG6X79+NmzYsFw1RecVAREQAREQARGIAIGoCVgstE+ZMsVq1qyZEl2FEKaEL/Q7S8AK/RBlpoHLly+3MWPG2Jw5c1xJ9lWrVv3lRLVr17by5cvbW2+95X5HCNqaNWuMcLSS2O67727VqlUrOE5x++68885Wr149t9mBBx5obdq0KTi/9/PijqHf/5WABCxdFSIQbQIKIYz2+Kn1IiACIiACIpBNAlETsE455RSbPHlyypE/ErCyeZVl/1wSsLLPPDRnZCX/wQcftIYNG9qyZcv+0q66detaxYoVbeXKle53JNTDc+vbb78tUR8Qr1DS8eYqzr7//nsbOnSoE8n83mHsd+yxx1rjxo3t7LPPthYtWrgwR/7IghGQgBWMk7YSgbAS8ASsBg0a2DvvvBPWZqpdIiACIiACIiACISAQNQGLuea0adMMJ4pUTAJWKvTCv68ErPCPUV618NdffzW8w55//nl75plnXLjMm2++aZ9//nkBB4S1GjVq2HHHHWetWrVyKv3+++9v2223XV6xKkln4UrIaI8ePdxuyoFVEnraVgTCQQABi3uZ/FfXXHNNOBqlVoiACIiACIiACISSQNQELOZ3c+fOtYMPPjglnhKwUsIX+p0lYIV+iPKzgT/++KP98MMPLmHxCy+8YGvXrnVeWZMmTbKPP/7YQdlll12sXLlytu+++9oxxxzjRC2EGVWZ+Os1s23bNufZdsstt0jAys9bSr2OAQEELJ6NfNgh9MtEQAREQAREQAREoCgCUROw6Mdzzz3non5SMQlYqdAL/74SsMI/Rmrh/ydAlcS3337bCVmDBw+2l19+2b755psCPohZJKDHSAJ41VVXZTX5fNgHSiGEYR8htU8EiiYwYMAAGzVqlPPAIm/hunXrhEsEREAEREAEREAEiiQQNQFLObB0MQchIAErCCVtEzoCGzdutEWLFtmSJUsK2vb111+7uGnCDvFUINTwsssuc7/n323btg1dP7LZIAlY2aStc4lAeglQdOO6664zhHwJWOllq6OJgAiIgAiIQBwJRE3A2nXXXW3+/Pl25JFHpjQc8sBKCV/od5aAFfohUgOLIkB4oT/R+08//eSqKW7atMnOOOMMF0q4ww47uN0rV65s9evXd5UUKT+Pt1Y+Gcnxmzdvbm+88YbrtnJg5dPoq69xILB69Wr3/OI5JwErDiOqPoiACIiACIhAZglETcDq0KGD3XfffW7elopJwEqFXvj3lYAV/jFSC0tIAA+szZs322effWa9evVyOWNef/11l1Nrxx13tAoVKlidOnWcN0PVqlVtjz32sEaNGsW6oiFMnn32WTv55JMlYJXwetLmIhAWAniWItzPnj3bWrduHZZmqR0iIAIiIAIiIAIhJBA1AWvnnXe2BQsWuEX3VEwCVir0wr+vBKzwj5FaWEoCiDaE25Azi6qGVDIcN26cy6PF77bffnvnpVWrVi074ogjXL4skpzvtNNOsRSzFEJYygtJu4lACAggXJUvX94J8g0bNrS33norBK1SE0RABERABERABMJKIGoCFhyVxD2sV1N42iUBKzxjoZZkkUCXLl3smWeecWekQt+3337rRC2sbNmytmHDBttuu+0KXFjjUNlQAlYWLzCdSgTSTOC4445zQjzVV9evX2+77bZbms+gw4mACIiACIiACMSJgASsLdatWze75557VKU+Rhe2BKwYDaa6UjoC5Jbh4cbfniFoEWr4t7/9zf2oevXqLq8WhocWLq5RMwlYURsxtVcE/o8AeewIeSYUWjmwdGWIgAiIgAiIgAgUR0AClgSs4q6RKP5eAlYUR01tTjuBDz/80OXNwkgM36lTJ/fvn3/+2T7++GOjKkaDBg3cz0499VTr2rWr+3e1atXc78JuhB/NmTPHzj77bNdUJXEP+4ipfSLwZwLk7Bs9erT9+uuvErB0cYiACIiACIiACBRLQAKWBKxiL5IIbiABK4KDpiZnj8C6detswIABTtxaunSpOzETSMIOsZ49e1rLli2tcePGttdee7kk8fwJm+G1gQcZiRElYIVtdNQeEQhGgCTuPHsuuugiu//++4PtpK1EQAREQAREQATykkDUBCyqxy9atMhatGiR0ngpiXtK+EK/swSs0A+RGhgGAl9++aWr4oe9+uqr9uSTT9o333zjKh1ihx12mO2333525JFH2gknnODyZ9WoUcOFIYbFFEIYlpFQO0SgdAQ8AatHjx7OG0smAiIgAiIgAiIgAkUR8AQsokXuvPNOu/zyy0MHi8X1c8891zZt2mSHH364TZ8+3erWrZtSOyVgpYQv9DtLwAr9EKmBYSPw008/GflolixZYg888IAhbi1fvtxVPCxXrpxLsoyAxUsCQatevXq2//7757wbErByPgRqgAikRAABSzmwUkKonUVABERABEQgbwh4AtbBBx9s//rXv+yAAw4IXd/9AhY5hvl/8+bNU2qnBKyU8IV+ZwlYoR8iNTDsBMifNXfuXPvqq6/s4YcfdmXuEbn4P3bEEUfYMccc40Ssk08+2Qlc2a4gRg6sefPm2emnn+7apBxYYb+q1D4R+DOBL774wuW+4vmiJO66OkRABERABERABIoj4AlYLLCPHDnSrrrqquJ2yfrv/QIWJ3/uuedcepZUTAJWKvTCv68ErPCPkVoYEQLkpnnrrbecJxai1pQpU9xk08s7VaVKFTfxZPXjrLPOciGGhxxySFZ699133zkhjfZJwMoKcp1EBNJKoHPnzs6tHjFaAlZa0epgIiACIiACIhBLAp6ARZoTcmemmlsqE5D8Atbee+9ttDlVTzEJWJkYqfAcUwJWeMZCLYkhAfJk3XXXXYb3xPjx410P//jjD/cHj6wOHTq4nx1//PFutaFMmTLuT7qNaooknJ84cWLsBCwm9H57/fXX7euvvzYSQfL3gQceaHXq1CnYZNq0adaxY0fbaaed0o05K8fj+uD6KWyErXrXmwDImwAAIABJREFUlvc771rib4+T/2dZabBOkhYCBx10kHFtYxKw0oJUBxEBERABERCBWBOIWhL3Zs2aucU6vnNSMQlYqdAL/74SsMI/RmphDAjgAcXDFFu9erXNnj3b/RtPrU8//dTq169v++67r/PIOvXUU534QgLDatWqpaX35Ow66aSTCiopxiGEkGqQzzzzjBMI/QZP8gQh6OABt+eee1rlypULNiEJP7kAtt9++7SwzfZBjjvuOPvggw/so48+cqeuXbu2C0mlyqRXYICf0+djjz3WFRuoWbOmIdzBAjGPPw0bNsx203NyPgQ7GH3yySe2++67u2ti69atri177LGHkW8BcY/rhhxTcPEqieKxyKrlxx9/bBs3bnTFGnJlErByRV7nFQEREAEREIFoEoiagNWuXTvnKUbUSiomASsVeuHfVwJW+MdILYwZASbQW7Zscb0iEfxrr71mzz//vPs3+bEqVqzofteqVStr0qSJm0yff/75ToQorZGT68orr7TJkye7Q8RBwNq8ebOrVrJu3brSYonkfuXLlzc86ghZxfAkQ/DkukG4Q7DCEOjY9rfffnPXELz4m+35g3CTDwYHiiksW7bMFVTg3kOswvCChBti6MqVK52g1aZNG3cfYnz4tW7d2l5++WV77733rGvXrmlDxthwXyOqBTFPwGLsbr31VuvXr1+Q3bSNCIiACIiACIhAnhKImoDlVVnmuzYVk4CVCr3w7ysBK/xjpBbmAYF3333X1q5d64SsBx980E2oESIQJJiAk7+KyTV5cIhfZ/JLSdygxnFIIO95gUVdwEKUGTt2rF1//fWOFUaCykqVKv0FCUIP2yBKIB7imVW2bNmE6NgOVhUqVHAiESGIHBOxh/A8vHDgzrkwQkP9IYx48LCf1ybOyX6cVyYCfgJ4w+GJyb0dxDwBCxHy2muvtdtuuy3IbtpGBERABERABEQgDwnwrYz3/cUXX2x8Q1CFsGnTpqEj4c+BJQErdMMTygZJwArlsKhR+UoA0YrqhYgeTz31lPMKWbNmjfMAIRSqatWqTlwhNOzoo492L6IgieARUM4991x74oknHNqoC1gkyr/66qsLcnrhanzDDTc475nC9tlnnzmhiZc34Zvw8+fE8m+PYLVixQo74YQTXJjeo48+au3bt3fhnXwI4NZMRclGjRq53caNG1cQjsb4EGLGfghd2KGHHuoELc4bZeOapNImfYcFoiDX5bfffutC7hBXizI8l/Au3GuvvRwfhFpYrlq1yoVywgd2hOv5c3shNBJOS/XMOBqri2eeeaY98sgjgbp300032bBhw5z33JtvvmkkOpWJgAiIgAiIgAiIQCICfNP26tXLpk6d6lIkjBo1yrp16xY6WH4Bi+9vimCxyJeKyQMrFXrh31cCVvjHSC3MUwKINEz0yb+DWLB8+XIbMmSIo8Hk18uTRVgUNnDgQBcqlcjIgXXiiSc6IQyLm4CFULR06dKC3EV+BnhIIYzgyQZPxBLEkUTGdmwDW/ZjDPB48bZHuOE4Xv4sxBdPdOG4/Jz9PK8sjuMdM8qXMcLqf//7X1cVpnr16s7DjOuS6woxEFGwKCNcDwGPfG4NGjRw4XvwQejj2oUpfMnpVVjAIkT0lVdeiTK6P7X9pZdesttvv73gZwiCeF0GMUpf33fffe76veSSS9y/ZSIgAiIgAiIgAiJQ1DctC7HnnHOO+zWe2wMGDAgdLL+ART7Xf/7zn8qBFbpRCleDJGCFazzUGhEokgBeVG+88YYTsVhVQVTAa8UzBAJC1qg26AlZeLwgwCDEMHH+29/+5jaPuoCFALJ48WI7/fTTXcgf/STHkUwEwkyA+5YPST7WsJIIWF4IISIpnluzZs0Kc1fVNhEQAREQAREQgRwTiFoOLL6RJkyY8KfiS6VBKA+s0lCLzj4SsKIzVmqpCDjPFYQsPFXwZKEK3/r1611oG5NjjHxNXvLD8847z7kNd+nSxYUdIvbEQcDCA6hPnz529913OxYSsHRzRIEA3n0zZ860Tp06lVrA4n4mJJa/ZSIgAiIgAiIgAiJQFIGoCVhEi5CrSyGEuqaTEZCApetDBCJOgEkxVQYRt/DKwAMLocofjoVnlidexUHAog8IeFSRIw+TBKyIX8R50nxCTi+88EInYmGl8cCiiADXPKGEMhEQAREQAREQARGIi4ClJO66loMQkIAVhJK2EYGIEPBEK7yyRo8e7by1qECCyEWuIc9Y4cBNt379+ta8eXOXgyjVkrXZRoQXyn777VcgYJGjSSYCYSZAKO/IkSNdwQGsVatWBeGExbW7WbNm9uqrr7rN6tata++//35xu+j3IiACIiACIiACeUwADyzSDvCdP3z4cOvXr1/oaCxcuNAVmtq0aZMhYN15550pz0kIISTNyJYtW+yKK66we+65Rwt/oRv50jdIAlbp2WlPEYgEAZKbb9261U455ZS/tJe8WSTSpuoHLw2sfPnyLgwxzIYgx4uYymz8Wx5YYR4ttc0jgIh8/fXX25gxY1yCUqpY8tEWxBYtWmStW7d2QjRFC5TzLQg1bSMCIiACIiAC+UvACyFkEYwFbRauw2b+JO6XXXaZ/eMf/7By5cql1EzlwEoJX+h3loAV+iFSA0UgdQIkfK9UqVLBgfyV9Pgh4YfklcIouduuXTurVauW7bXXXu5neGcVVbkv9daV/AiIViSl//vf/y4Bq+T4tEeOCCA+4X2FFxZWmhBCPur42DvqqKNy1AudVgREQAREQAREIAoEopYDi7nHf/7zHzvwwANTwisBKyV8od9ZAlboh0gNFIHUCRQWsAgh7NChQ8GBqW7IS+7LL78sCDU85JBD7PDDD3fbdOzY0XlqIWJVr149ZdfeVHuEgDV58mS76qqrXHvlgZUqUe2fDQKE+K5Zs8YaN25cagGLHffZZx9bt25dNpqsc4iACIiACIiACESUQNQELOXAiuiFluVmS8DKMnCdTgRyQaCwgNW3b18bNWpUQVPIlfXZZ5/Z0KFDXW4dEr6vWrWqQMyqXLmylS1b1lU+u+2225x3VoMGDWz33XfPRXec15U8sHKCXidNgQA5sLh/CH3FSuOBJQErhQHQriIgAiIgAiKQRwQkYG2xbt26KQdWzK55CVgxG1B1RwQSEUCg6tSpk82ZM8f9urCAVXgfPLEmTZrkStmSVBHjZ54hZuHB1ahRI5cz6+STT7bddtvNKlasaDvttFNWBuGjjz6yAw44wOX3kgdWVpDrJCkSIEx3ypQpdumll5ZYwLrllltsyJAhzgty2LBhdu2116bYGu0uAiIgAiIgAiIQVwJULB40aJDdfffdrossoA0YMCB03fXnwJIHVuiGJ5QNkoAVymFRo0QgvQS+//575+2xcuXKQAKWd/bly5cb+xL6hNcIE/AVK1a46oaekfC9SZMmLsdWly5dXHgTwhJeW5kyPLBGjBhhN954o3JgZQqyjpt2Aj/99JMLx33iiSdKLGCNHz/eevfu7cJ3Fy9ebCRklYmACIiACIiACIhAIgJ8q1M0BhGLiImxY8da586dQwfLL2CdddZZNnHiRLconoopB1Yq9MK/rwSs8I+RWigCKRMoLoQwyAkQsZiAE3q4ceNG55n18MMPOwHJb2XKlLErr7zS9ttvP2vfvr3Vrl07yOFLtA3npJoKpXGVA6tE6LRxDgmkImA99NBDdskll7jrvW7durZ27doc9kSnFgEREAEREAERCDsBL4SQhWZyx1LFOGzmF7AOOuggmzlzZsrVEiVghW2U09seCVjp5amjiUAoCTBxJuE5YYFYcSGEQTqBa/L8+fNdBcN3333XZs2a5Xb7/PPP3R/s2GOPtapVq9rpp5/uvLIQtxC28NpKxRCw8EghjIq8QgohTIWm9s0WAb+AteOOOzpvLITYIMZH3euvv+42VRL3IMS0jQiIgAiIgAjkL4Gff/7Z5X7q06ePg6AQwjL5ezHErOcSsGI2oOqOCCQiQJ4ohCMStadLwPKfh6TvXo4sVj3mzZvnyuAicmFVqlSxXXfd1bbffnu7+OKLnSszubPOO++8UlU0RLS6+uqrnZsxJgFL130UCPgFLK5/clHg2h/EJGAFoaRtREAEREAEREAEIPDhhx/aEUcc4b7P9957b5swYYLLWRs2Uw6ssI1I+NsjASv8Y6QWikDKBAg7YqLsVR5MhwdWskYhmC1cuNC+++47l3jaSwTPBJ6cWhiCVtu2ba1du3Z20kknOe8sfhYkCbwErJQvCR0gBwRSCSHEm/GFF15w1UCnT5/u7huZCIiACIiACIiACCQiwLf4zTffbHfeeaedccYZ9vjjj4cSlASsUA5LqBslASvUw6PGiUB6COBGTALoe++91x0w0wKWv9Vr1qxxeXuwl19+2Z599lnnCYanFlajRg2rVq2a88QieWP9+vVtl112sRYtWliFChUSApCAlZ7rQkfJLgGuWyoI8kHJNU4Ot9GjRwdqBFWECANAwOKjVCYCIiACIiACIiACyQh4ObAkYN3jFspl8SAgASse46heiEBSAoT44bGBeJRtAcvfMCbwiFmffvqpLVmyxN577z0Xk+8ZubEIM/yf//kfa9mypROwmOwXTgQvAUsXfBQJcN1yvVPRs2bNmjZ37lw78MADA3XlqKOOcgIwXooSsAIh00YiIAIiIAIikNcEPAGrTp06Lh/WaaedFjoe8sAK3ZCEvkESsEI/RGqgCKROIB1VCFNvxV+PQDjh+++/737B5J7E7K+99pqL2//666/dz72k7+XKlXNu0PxNmCGlgZUDKxOjomNmikDhJO7nnHOOPfjgg4FO5+XAIvk73pR33HFHoP20kQiIgAiIgAiIQH4S8ASsgw8+2KZMmWJUIwybScAK24iEvz0SsMI/RmqhCKRMIKwClr9jf/zxh/MswUMLTzG8szBELaoa4vq72267ub+pbIi31ooVK9w2SuKe8iWiA2SBgF/Aqlixov3tb39zlTSDmCdg4Z348ccfW+XKlYPspm1EQAREQAREQATykMDmzZtdBfIZM2ZY06ZNbfLkyYaQFTaTgBW2EQl/eyRghX+M1EIRSJlAFASswp1E0MIINySHV6tWrWz9+vUJWUjASvkS0QGyQMAvYJHzjZwUjz76aKAzewKWQggD4dJGIiACIiACIpDXBIhsmDRpknXr1s2l5hg5cqR17949dEwkYIVuSELfIAlYoR8iNVAEUicQRQGrcK8JN/z999/dH5JfL1++3NauXes2I28WSbGx5s2b28UXX+zyZh155JHudzIRCAMBv4BFDqz//Oc/hjAVxCRgBaGkbURABERABERABCDw5Zdf2oUXXmhPP/20y7tJRAMLZ2EzCVhhG5Hwt0cCVvjHSC0UgZQJ+AWs7bbbzvr372/Dhw9P+bi5OgAeWT169LD777/fNYE+kRcLQ+D67bffrEqVKta4cWP3O4xqb1Q4JIeQ97NctV/nzU8CfgGrVq1aNm/ePDvggAMCwZCAFQiTNhIBERABERABETAzIhlmzZplHTt2dKk3xo0bZ+TeDJtJwArbiIS/PRKwwj9GaqEIpEyA3FJMgNetW+cmzPPnz7dq1aqlfNxcHSBZFcInnnjCbrzxRvv222/tk08+cYIWL3H+xqjCcvTRRzsRC0HL89CSp1auRjN/zls4iftZZ51l06dPDwRAAlYgTNpIBERABERABETAzBVJ4jsXw/Pq8ccfDyUXCVihHJZQN0oCVqiHR40TgfQQYOJ8+eWX27Rp06xGjRquel+bNm3Sc/AcHCWZgOU1hyTwc+fOtV9//dVefPFFW7Jkicul9d133zlBixxE5AIgGTzJ4eGDiFWhQgWFHeZgTPPhlIWTuA8ePNh69eoVqOtK4h4IkzYSAREQAREQAREoJGCdeuqpNnv2bFfJO2wmAStsIxL+9kjACv8YqYUikDIBfwhh2bJlXfWzG264IeXj5uoAQQQsf9vo/5YtW2zRokV21113uUqHVDbcuHGj24ywwj333NP9GTJkiBHeRQ4tkl7KRCBdBPwCFiGu5KMI6s7vCVgIrxdddFFB+Gy62qbjiIAIiIAIiIAIxIeA3wOLqAu+f4N+c2STggSsbNKOx7kkYMVjHNULEUhKIA5J3P0dLKmAlQgOK1G8NEkE/8orrzhPLbyzMIQrEsXXq1fPKleubMccc4xR/Q3vLOXP0s1WWgJ+AYuiA5S3HjFiRKDDKYQwECZtJAIiIAIiIAIiUMgDq2nTpq4i4SGHHBI6NhKwQjckoW+QBKzQD5EaKAKpE0CYOeyww+ydd95xB+vbt6+NGjUq9QPn6AjpELC8pm/YsMFWrVrl2EydOtUQ+7zqhmxTvnx5O/TQQ52Adc0117jk8HixNWzYUGJWjsY/qqf1C1iIoQMHDrQBAwYE6o4ErECYtJEIiIAIiIAIiEAhAatSpUqumBFVusNmErDCNiLhb48ErPCPkVooAikTQPC59dZbjZw7ErAS4yQvFtULX3vtNRs7dmzBRoQdkgweI0dWmTJlXAL8W265xeUSOO+881IeHx0gPwj4BSzyro0cOdIuueSSQJ2XgBUIkzYSAREQAREQAREoJGCdfvrpNmfOnFAuvErA0uVaUgISsEpKTNuLQAQJKISw9INGxcb169c7cWvy5Mn25ptvugqHnqDFalbFihUj7dFWejrasyQE/AIW+xGa+vzzzwc6hASsQJi0kQiIgAiIgAiIgJn7ViXf7bhx41SF8J573AK0LB4EJGDFYxzVCxFISuCHH36ws846y55++mm3nUIIS37B4KH14Ycf2owZM1zIIcZqFmyp7Pjpp5+W/KDaI68ISMDKq+FWZ0VABERABEQgZwRIH3LzzTe7BdYzzjjDHn/88Zy1JdmJ5YEVymEJdaMkYIV6eNQ4EUgPgR9//NHFvc+cOVMCVnqQuqPgkcUHAgm5u3btmsYj61BxJCABK46jqj6JgAiIgAiIQPgIfP311y5367Rp06x169b22GOPuRyuYTMJWGEbkfC3RwJW+MdILRSBlAkohDBlhDqACKRMQAJWygh1ABEQAREQAREQgQAEKFJ08skn25o1a1zhoX/+85/WvHnzAHtmdxMJWNnlHYezScCKwyiqDyJQDIE4C1hUB7z++uvtxhtv1HUgAqEm4BewqAg0ZMgQ69mzZ6A2KwdWIEzaSAREQAREQAREoFASd3lgKQdWnG4KCVhxGk31RQSKIBBnAWvHHXd0+b2mT5+u8ReBUBPwC1jVq1e3hx56yFq1ahWozRKwAmHSRiIgAiIgAiIgAoUELOXAkoAVp5tCAlacRlN9EYE8FLDo8mGHHWbLli3T+ItAqAkU9sC69dZb7aqrrgrUZglYgTBpIxEQAREQAREQAQlY1rZtW9uyZYt169bN7lEVwljdExKwYjWc6owIJCYQZw8sQrEoEdy5c2cNvwiEmoBfwKpVq5Y988wztv/++wdqswSsQJi0kQiIgAiIgAiIgAQsCVgxvgskYMV4cNU1EfAIxFnA2m677VwY1rPPPqsBF4FQE/ALWORu69Wrlw0dOjRQmyVgBcIUm41+//13e/XVV+2LL74osk916tSxAw44wJYsWWI847F69eq5fbZu3WqHHnqoIfC/8MIL1qRJE3vjjTesbt26tm3bNref395++23bY489bPfdd48NQ3VEBERABPKZwLfffmuDBg2yu+++2xRCqBDCON0LErDiNJrqiwgUQSDOAhZdVgihLv0oEPALWOXKlbNLL73U7rrrrkBNl4AVCFMsNkK86tixY2AB68UXX3RhEn4B67vvvnMCVsWKFZ2AhWD1+uuv27777ms///yzNW3aVAJWgKulT58+9t577zmBEI6JDMb9+/e3vffe2+bNm+c2+Z//+R878cQTbdKkSa7q13777RfgbNpEBERABNJHYO3atdaoUSO3aCEBSwJW+q6s3B9JAlbux0AtEIGME2A1fp999rFNmza5c/Xt29dGjRqV8fNm6gS//PKLXX311TZx4kR3isMPP9z++9//Zup0Oq4IpIWAX8DigMccc4w9//zzgY4tASsQplhs9OuvvxrFKTwrU6aM/fHHH8bfhc3/c/4tSy+BHXbYwbHHfvvtt4QHZ1zYjr8RH70xwTuYffg70dilt6WZOxr5Y3hOrVmzxp3kuuuus2uuucZ2220323777TN3Yh1ZBEQgJQIffPCBW8j4+uuvJWApB1ZK11LYdpaAFbYRUXtEIAMEWHEnXGnChAnu6HESsHbZZRfr3bu3kRBbJgJhJuAXsJjQnnDCCTZ//vxATZaAFQhTLDbyC1gII3jwrFu3znlPtWzZ8k995PqpUKGCCxWkkMWXX34ZWQZ4CdBfBB/+jYhXnPCDQMS2ZcuWdfvxfwQk/s39tvPOO7u/k4l7nINzcRxZMAK1a9e2hQsXupBVmQiIQDgJbN682YnNDz74oAQsCVjhvEhL2SoJWKUEp91EIEoE4hxCyCrwv/71L5esUSYCYSbgF7DIN3TffffZmWeeGajJErACYYrFRn4Bi3F/+umn7fvvvzfypnHd+O3zzz934gt/mKywWBFVu//++51A16BBAxszZoxddNFFVrly5aTdeemll9x9NGTIECMn2IoVK+zjjz+2gw8+2G644Qbr16+f8zb+7LPPijwOTM8++2y79957Q40OD2rCFRH5SmLsh0jHuzKI4eFMHjXyoSH84VWGp9XGjRsLdud6GzBggP39738vcXuCtEHbiIAIpE7gww8/dBEK3LsKIVQIYepXVHiOIAErPGOhlohAxgjEWcACmnJgZezS0YHTSEAhhGmEGeND+QWsI4880pYuXRrj3qprQQmMHTvW5UarUaNG0F3cdiRwRnC64oorAu23YcMGJ0x1797debQhnpYvX95Gjx5tixYtcl5+5PAbNmyY9ejRQwJWIKraSASyT4BciIMHD7aRI0dKwJIHVvYvwAyeUQJWBuHq0CIQFgISsMIyEmpHPhOQgJXPox+87xKwgrPSltkjgGfWySefbIsXLzZC94cPH25XXXWV8mBlbwh0JhEoEYH333/f6tev7/aRB5Y8sEp08YR8YwlYIR8gNU8E0kEgzgLWTjvtZOeee65NmTIlHah0DBHIGAG/gEVunksuucTGjx8f6HwKIQyEKRYbScCKxTDGrhN+AYvOUUgFryx/wYHYdVodEoEIE5CA1dZV6KUQxT3ywIrwlfzXpkvAitVwqjMikJhAnAUs8pfMnj3bWrRooeEXgVAT8AtYhAE98sgjdvTRRwdqswSsQJhisZEErFgMY+w64RewyE1GFeD27du7hPkyERCB8BGQgCUBK3xXZXpaJAErPRx1FBEINYE4C1gktb3jjjsC5/cI9UCpcbEm4BewqBw3cOBAlwg5iEnACkIpHts888wzdsopp7jOKAdWPMY0Dr3wC1gsHM2YMcOOO+64YitFxqHv6oMIRJGABCwJWFG8boO0WQJWEEraRgQiTsAvYNWsWdMeeOABl8siqsaHNOELrACTi6Nv3752yy23RLU7aneeECgsYN14443Wv3//QL2XgBUIUyw2IuGud11IwIrFkMaiEwohjMUwqhN5REAClgSsuF7uErDiOrLqlwj4CPgFrGbNmtkrr7wSaT5+AatSpUoFJddT6RTlwteuXWuffvppKocp1b6UKD/00EON6k9UfapXr5598sknrroTHyAYZdD32msv177999/ffvjhByfe4YHmGfu+99571rBhw1K1QztlloCSuGeWb1yO/tJLLxWElkrAisuoRr8ffgGrbNmydvPNN1u/fv1UhTD6Q6sexJSAX8AiXcHDDz9stWvXDl1vFyxY4HLZbtq0yVU2Jbce37+p2Isvvmht20rASoVhmPeVgBXm0VHbRCBNBPwCVq1atWzy5Ml2wgknpOno2T+MX8Ai/0bLli1dee/S2ubNm12Cx4ULF9qqVatKe5hS70cS3AsvvNCWLVtm5L85/vjjbcWKFUaib9rk2VFHHWWvv/66tWnTxr7++mvbbbfdDI86z+BC+BG/zxdr166dNWrUyObMmWNc2y+88IJLjr5u3Tr3/6pVqzoUfBhNnTrVOnTo4H6eyBAHKRGPt1MmTCGEmaAav2NOmDDBunfv7jomASt+4xvVHvkFLJ6h8+fP12JJVAdT7c4LAn4Bq3Hjxu7b/7DDDgtd3yVghW5IQt8gCVihHyI1UARSJxDnHFjQ4YWM+FNaw2upQYMGpd1d++WQAJ5riHjLly83Egu/++67dswxx9hXX33l/u95qH333Xe2ZMkSwwMR4S+RIQp+++23ztOtOCMHDKGriGdBzS9glXQCqBDCoJSjv90HH3xgdevWlYAV/aGMVQ/8Alb58uVt7NixbuEFD2KZCIhA+AgohFAeWOG7KtPTIglY6eGoo4hAqAlIwEo+PMkELASPNWvW2NatW0M9xmpcdgl4XnP3339/4BP7BSzEteHDhwcuPuAJWITuTJo0yc4///zA59WG0SIwfvx4l+MPkwdWtMYuzq31C1gUobjrrrusc+fOErDiPOjqW6QJSMCSgBXpCzhJ4yVgxXVk1S8R8BGQgFUyAYtV5Y4dO7qd6tev73JT/fjjjylfU3gJIYRRuckzks+TzJscV6kaAgmr4tdff33BoebOneu8OVavXm1Lly51le9mzpzpPJMee+wxt/2zzz5rZ555pgu922mnnWzo0KFGHh7CMrdt22ZnnHGGPfTQQ/b777/bSSedZJdeeqlxXPJ0eSGO48aNs0GDBjkPpurVq9tpp51mzZs3d3nF2I79CY+Mk8Hl8ccfD9ylwjmwuA6Chr56Ala5cuXsqaeecmGzsngS6NSpk8tVIgErnuMb1V4VTuLes2dPGzVqlCHmy0RABMJHQAKWBKzwXZXpaZEErPRw1FFEINQE4ixgEQ6GF0z79u1LNQYkPn/yySft9NNPd/tYKSZ2AAAgAElEQVSTf+qRRx4pMsysVCf5/zt9//33TgQi/MIz8i7tueeeqRy2YF+OTQ4nBCTPGHtEKQQ4wug4Fzm/CPsgZK5OnTpOdMIjiLxR5BQjvA2hjT8ck9+RQwpj5Z3wuS1bthgTGvbFCLvzktAzoUEg23XXXe3nn392223cuDEtfUz3QebNm2fkhqD9hG4htrVo0eJP40NYImITAtSYMWNcFU8sVQGLUMfnn38+UJf8AhaCI+KgLJ4E/B6h8sCK5xhHsVeFBSwKqPAuSHXxhQUW3lm8g0kMf/nllxsLIp7xHjnxxBPdOwRxN4hRlOXpp5+2I444wr2/ZP9HgO+B/8fee0BLUWXt32dmTCMqZsyiiDkrKkZMBEFRURGMgCJGHHNEHXOOCIIYEQETKirmABhAEUFRMKDiiIqKy/gfZ3zXt377/c59j033vdXd1d1V1c9eiwXcW3XqnOdUnar9nGfvzbvHG/PKu5t3IO9/WXYQEIElAis7d/OfRyICK6szq3EJgQCBkMBq2bKl7e7jGKXVwiTuJDrv27evKYlKMdp68MEHGz6M+Yh+7LHHSmlK56QQAQg2qt1A6EFmQtiFigL+j3KMj36cIpRsm266qY20FgQW9zsKOk+4phBydbkJBLjf/D0oAku3S1IQyCWw4uoXay9/CI9mkwWVKVV2vUGQ+fWX9S+qsbZzXrkEW9TrpeU48EVx7Q2VNZs0VDfOcj4zwl0h6SBH+/fv76hS161bN/t3hw4d3MyZM62q5ty5c91FF11k4bEQfRChbF6xKcdGFhtItMM9yr3lvwfAk2cEVfYWW2xh6vP27dvX9LYQgSUCq6Y3YAUvLgKrguCqaSGQFARCAmvLLbe0ZNZ8xKTVQgKLMZSTxB1V1LHHHmsV6jARWGm9K6rT71AdUw6BhRKOEE5yrEUxJXGPglI2jsFpYo3GRGBlY06zMIqmCCzUuShyUfHwb8h/VLwQ/6FBVPE72pMJgWohwD3JxgDKc1R5kFKo+1CtL7744nY/8nM2EFCcc7wnU7mHua/9/2mHexjjfvbGcZCwEK20R7u1NDblvPq92O+VavZbVQiriXY2riUCKxvzqFEIgUYRCAksXsKnn366JZBOq/FhcMIJJ7ghQ4bYENq0aeMmTZpU8nBmzJhhYWRYkl/yJQ9QJ8aGQDkEFoqAAw880D3++ONu9dVXd88880zkMvQisGKbwsQ3xM5+s2bNrJ8isBI/XXXTwZDAQnmy2WabmULFh51dcMEFplxBqUKuRUiAgQMH/klNBVjk7yOMHTVrsTZlyhS3zjrrGLkQl0FozJkzx5Q0n376qRFuONQbb7yxKWkomkHux1atWjVccvr06ZYKAEU7Ch3eCx07drS+ERYONuAwcuRIt8suuxix16JFC/fQQw/ZpgUqH66D4gkyhPaSYPQpn2LNk5CNqdlyj+H//mf+HoH0yQ1TDM/j354Y8nhwfNhWEnBKYx+S/G1LLtXu3bsb2UZuveuuu86U8eUYCrsuXaTAKgfDJJ8rAivJs6O+CYGYEMhiDqyQwCpHgQXE5ZASMU2RmkkJAuXcKyGBteqqq7qxY8c6iKkoJgIrCkrZOIb8cj5vjwisbMxpFkYREliQMQ8//LARrJ7U4O98JEbu2P3xucqsKBjNmzfPiCFCA+My1mVUM8stt1yDYoycUOTXJMcXVYjZcOC63iDn6AMk1ueff245IQkr4xjyWi6//PL2e94XqG3BDvUOYWVgh/IbAwsIGp9jMq4xldoOSvRdd93V8mCGdt999xlZSc7MQgYJgeKua9eudghkIznNUCNRsZJxX3rppbaBGs7fm2++aYQm4XZsSg4fPvxPl/jHP/5h99pnn31W6rASex4qMBRc/plAMcUGBvcV94wn7xgAhA7He5KR0E+MzQ6IUM4LC+XQJgowfueL8YwaNSqRWEAYH3zwwSKwEjk7yeyUCKxkzot6JQRiRSCLBBZl5ocOHWovfhK1UmGvFOODASUMVfMwhRCWgmL9nFMOgRVWIeSj/sgjj3SDBg2KBJ4IrEgwZeIgPuS9oyECKxNTmolBhAQWZMw///lPd/LJJ5etlMgEOBqEECgBAfJxUYCIDS1s6tSpVgWa9Z/vUgocoNaDyEK5CBGImg8FIpWgMQrLrL/++lZ9+p133mnoBc8oVa7XW289N2bMGCMmIVaTaAohTOKsJLtPIrCSPT/qnRCIBYGQwGLn69xzz3UDBgyIpe1aNBLmwGKnirAFdulKMXam2PVDtiwCqxQE6+ucuAislVdeuUHBEAVBEVhRUMrGMVTC9AoIEVjZmNMsjCIksHC4CZ3bcMMNlSQ9C5OrMQiBGiIgAquG4Kf00iKwUjpx6rYQKAaBkMBip4Yqe61bty6miUQdGxJYlPImz0bU8tq5A0F2fdZZZ9nOlgisRE1zIjsTF4GFcpDS8OyyRjERWFFQysYx6667roUeYSKwsjGnWRhFSGChIEXdIQVWFmZWYxACtUVABFZt8U/j1UVgpXHW1GchUCQCWQ4hJMYf9RWy61KM/BeDBw+2D3ERWKUgWF/nxEVggRo5RUj4G8VEYEVBKRvHkAB62rRpIrCyMZ2ZGUVIYJHriffmQQcdtEBS7swMWAMRAkKgKgiIwKoKzJm6iAisTE2nBiME8iMQEliE3F1++eWOHFJptVCBRZJVEnzuuOOOJQ0HBdZpp53WkItIObBKgrFuThKBVTdTXbOBoiilSAVWTQUWZD7EGbnauC7V0WRCwCMQElgkniZ0/9RTT1UOLN0iQkAIlIWACKyy4KvLk0Vg1eW0a9D1hkBIYFGxj4Tn5ZaorSWGIYFFUsoHHnjAtWvXruQuUWWIXB5YsQSWL/mcWxq65M7oxEQjUGsCi4pDVGyKswpXogGvw86RH+2rr76qOoF15513GpnP/XXHHXe4Qw89tKGqXL5p8BXUKIThDdLLV9TyP2N9HT9+vBUtCO2bb75xH3zwgSUXpo1Jkya5tdZayyq/FbpeMaQabfKH/kQ9jyperOm8H8tZ06kUNmvWLIdjxng6derkllhiiSbvZs7j/UblMP4UMo6jn40d0+TFijwgJLCo0HfXXXe5zp07l4VTkV3Q4UJACGQQARFYGZzUCg9JBFaFAVbzQiAJCIQEFuXZr7/+enfEEUckoWsl9SEksNgJxtG6/fbbS2rrt99+s1LPV111lZ1fLIE1efJkK41N2M8GG2xgbeA0ffLJJw7cqSLDx35SjXLekDI4bpQRx4EMjZ8zFirf1GosJNp/9913rRz5SiutVBSUlEf/6KOP3KabbhqLo1VrAov7napD/fr1KwoHHZweBGpBYJE4ft9993WUtMcgXS677DLL0eZJ+lwEWQ9WX3119/LLL9uvyEfIWuoT0PvjITr69u3r9tlnnz81AVH26aefWi6lV1991cgekoPzjspnrE+ofnLXgM8//9xBhuUaY6HNVq1aWYg4pKAvM881+Lm3n376ydaYRx991NaLU045xW2//fYl3zTfffedO+mkk9zIkSNtPDfeeKM75JBDmmyPimNU92NDpW3btgscz7ukZcuWjvkaN26c22KLLRY4BpU1lcfitpDA4v6477773O677x7Luhp3X9WeEBAC6UFABFZ65iopPRWBlZSZUD+EQAURCAmsFi1auFtvvdXtv//+FbxiZZsOCSyuhKoMIqkUg5g54IAD3LPPPmunF0Ng4dgde+yx7sEHH3TrrLOOu+222xy5inCGjjvuOPfCCy+Y6uD00083564Yw7nDmSKcpxzbdttt3ZZbblmwCcou9+jRw8g2cMDRCg2Cj1wn1157revatas78MADy1K70fbrr7/u3n77bbtMly5dzAluzL744gu3yy67uPbt25tzV0ihkdsGKgUqbqLQo+rmYYcdVg6Udm6tCSwUWBCmPMeybCJAOXRPqFcrhJDr8YwQRgjRhPpowoQJDiKG5yifQabyhzUU45588cUXG4h8fw4EVu/eva0d7l+e5SeffLKhSYpojB492ohyb926dXNz5swxVZa3FVdc0T3yyCMLEEtnn322u+eeexboIuQ86xoJx4cPH+4uuOACN3/+fDuOzQau4Q0i7d5777Xfs+aSV/H8888vSKaFF2MtY02jTa8E/uGHH2zdR8lGvwkLjfLOZX3Zc889rR/5FFvMDWvx7NmzbT3MZ2uuuaYdk48AK+eJCQmsNdZYw/L3cS2ZEBACQqAcBERglYNefZ4rAqs+512jrjMEQgKLkLubbrrJSIu0WlIILPrhQ7lw5FC2QWihGCIcByeI0BUcJ3b0izFy0ey2227mQGIkzcWxwsH0xlxCdHmFBAntURhwfW+E5wwZMsQItnyGSgGHCYcLgiefIzhv3jyHkzhs2DBrB7UbTmhUo09ff/21heWgIMAxvPLKK+10SrEXcsR8+5999pk5hzjV5G7z5zZ1fRxm5gNiEUXDe++919Qpjf4e7G+55RYLs8JwJiEZoxrzR9Ljxx9/3E5pLIk7x+LEMreEX5ETiXsBpxaCVJZdBE488US7z7BqEFjc1zzfrF8QTDyTPOc4FV6xVAhtnjFIb0icpggsnt+jjjrKnXfeeUbuoE7CQgJrq622csccc4zbb7/93Jdffukg2FGB3X///dYnQg5z7Y033rDjwrWSZwQSh7ULAgu1ECow/wxBKIUGKQyBtcMOO9iaDrHO+su6i0GA+U2O3OtPnz7dxs8axbrPpgHGxgbVcdu0aWN5GqOQzp7AYs3bZJNNTDl29913u4kTJ5qyl/UDUgx1F/1lfWA9Yr0YMWKEjRf1Ff9ubOOilKcnJLC4T66++mrDtJphjKX0W+cIASGQbAREYCV7fpLYOxFYSZwV9UkIxIxAlqsQQhwRDglJUYqVo8B66KGHTLX097//3RRXKCe8Ooj8J0cffbTtUrMrj2ND6EdUCwksFEqQYITZ4JjgrODM4UDg3ECIkOeFUBwcNJQLKNJQNBCOhCNVKBymEIGF8uqtt95qSI4PacV4MEgklFBRQiNxesaOHWt9IzyI8LehQ4eWRGDRJ0JWnnvuuUgw4lwzLyjI4iCwcBaZT0hBrBIEFnOGQ87fjz32mBGWhEcR/sR4RGBFmvqKHMSzAsGA7bHHHpGVgMV2ptohhIwL8hpyCIKEtTSqYpRngtBD1iBIH541nvPQvAILAof1CsL6mmuuMRILCwks2oKYCdVHhMlBUK277rp5CSzaQO3qNwlYnyjqsddee1mI4s4772xkGYQQ6yPrlie7fD8JNX7qqafseYOcz1WF0m+IRcKY6U9uni/aYbOC0F6vfCqXwOrQoYMbM2aMqdog/iD0PIG10UYbOUguNgUYC+TWE088YfNYTHXTYu7NkMDy7wFIz6j5xYq5lo4VAkKgfhAQgVU/cx3XSEVgxYWk2hECCUYgJLDIW8LHPLvCabU4k7iXQ2CBJaEc5GQhD0v4IY9jd/PNN9sOOjvUOGVe9YbDAQGEA5ebL8bPSUhgoUYgDA7y5OCDDzZCo0+fPqbSIHSFBME4MCityLMC0cMOPU5XKQQWbXEu1SovueQSu1cgCQkpwlB64cAzNpxKnFHuMcbLznxoKCEIo0SBAOmGQwYWpSiwIArpE7v+UQ3nDyVFIQKLvnAMhgqldevWjTZdqRBCPuBQiaAEgcDi/uE+zzURWFFnPv7jeKZ4xjBUi5DVqIlYB+K0ahNYL730khEjqHdQLEJAcR/mGqQJiiSIdG+QRKg2IbAIA4TQzyV3yiWwwPnbb781ZVE+BRZ9YX3xIYGQ5fzbE1gQa7zzCHcrRGCRaL5Xr16WW4o1LzdHJEo01JaNEVj0g3cASjPUkxBqYIOKrhQFliew6BvvAAirfASWXyd4F0CeVYPAIh8ZY+vYsaNyYMX58KstIVCHCIjAqsNJL3PIIrDKBFCnC4E0IBASWJAtgwYNsl3ztFpIYOHc4Byw416KlUpgoXIi9xahd4Sq4PxALHmVjA8387lsIEpINg/hNXXqVMsJgzOEOis3nIVxhASWTzgMGYRjiTPFuFEJ/Prrr1btCsKDXCvkJuHfEGo4ffkIrJkzZzYoEHAI+/fv71Ag4JQQBkPyZsgxHFJUE1w/n+PItUgYzPWZExw2iKmwwiXjxRkkDA61HCQWTqSvsnbOOedY4mhCITGSNEMO0A4OI2oIlA/0i/7xs2JCYyDdcOggv3DAcw2nEMcdY466d+/eqKIgTgKLfGk4/JB63DvMWVMmAqsphCr3e9R8rJ2hcV9CkEIsQO5QLCCfOqeYXnkCi1A2nh1PmhXTRtRjIatR7UCQs66gUuIdQTJxQpEJU8b4N885BE2oXkI9RWguBBZENhjxrIXmCSyIfEhAyCVCAn2YZD4FFs88SdUx1kv6BnnPefnME1gox+gHilNPYHFN1hM2C+g76xPrNeucHx8KLtSdrGckoi825Js+oZBi/ZoyZYrhRTJ41meeWRLG0w8UtLyP6QvrPu+A0MIQQkIR6TdrKOQ6a2YugQWmbGzwbmBDAeUmmxiEGcZtyoEVN6JqTwgIARAQgaX7oFgERGAVi5iOFwIpRCAksAh/gEzIVcqkaVhJILAgpiBfcOgIr0PFA7mEQwi5hENBCJ4nZkgOjwqIXXJypkB8QTRR9Q/nCzIjNE9gcczhhx9uRJQ3HNow4TE/v+KKKxp+j7MHKQIxlI/Awnkj3ATjWPriEzXjfEMUkQAZJRfhNziCuYYqgFDG1157rYF4QUGEkxmWn8dh43phXq6wLcIq+UMlM/qA8ovrQXRx30K0EnZYLoHlr4njSD4pnEHCOrkGRoJ6yAIUBbkOuD8XUhKVmQ99KjeEkHsHUg/yMKqJwIqKVPzH5SOwuAo5lpgXnhsISVRZ/KxU8wQWhDRkc9RwvlKuB/HE8+DJU57VSy+91MhvyBdfqY/1wOesCq8DyXLdddcZgUUuJoom5PbXE1isC507dzZiipx4tInlI7BQeKJEDM2rp/KN0xNYbAhAcqGA8gQWa+nGG29s67In31CRQtxBIvH8oYhlHKhNCf2DnC/GUG5BupGcPsxTGLYBwcl7gTWdZx8yFCVtaCGBRZ+ZG9ZEr8pcf/31LR8XJCDkO8a4aJOx8V5nQ4I5jNtEYMWNqNoTAkIABERg6T4oFgERWMUipuOFQAoRCAksnHPyKZGvKa2WG0I4atQoU0GUYqUosHAcIHZw+nyCYIgf8k5BNuUauYxw3iBzUBOEVb3IpwTZtNRSSzWcxu85DgeM3Cc4hjg/kGP8juvgwKCSwNj1p4KYN4glnG0IGtQUOJ5h0nWcLZ8InNAUnGTaZTcfQgXHFaPPOFiE7hC254kdyCicPsL5yJcDCUZ1MEIZQ/IKfAifwVkFJ1QEOPg4iuTBwghDIVTGE30oEnAA+Zt24yKwIMRwsukHhBnXQEXnk1SDU1NEAU4i4VMourAoBBYkINhyHZx9KioWQ1jl3ks4qCjGCpFspTwDOicaAoUIrPBs7n/CUFHyoASCEEFJFaoSm7qaJ7A4h+elkOqoqXaa+j3J0Qlr9s8exxNCCGFMn3lGWHMge7zx7HMvQ8DwJ8yBBYnEepJrnsBiPOTtg8SChOffWD4CCzKGYiP0xRepgPAK++Kvw3MM8YYThHoT5ShroyewmDfmAsUq7bJWMz7aZR2FKCJskHWTdRICyyuzuAabDqibeFdA0LMxAdHEmsxGAOsr7aOUwsAAQhNCn2uwacRYWFupRMgaQB8gw8nXFZonsFgj2BiBWEcdxjrsCStCPCEYWa/9+kIbzAfvddS9HOMLjDR1H0T9vQisqEjpOCEgBIpBQARWMWjpWBAQgaX7QAjUAQJZTuKOwwihQB6XUqwUAgtn5IwzzjAHD0IEAg2njA/8fMoLjiPMAweP3XScDm+EjvnE7/wMZxIHjPHgLOJk4gSjFkB1BXmBA0XVK+/YQZqFBBX9YJee8DnwIeSO3X5CHnON60AScY8QnkJSXhQkqCRw7CC6cNIgTEjQTNsoDTCILpy+U0891RRguU46ITQ486gGuA4OH/jgsObLgYVj5x3muAmsOJK4M+YoIYSMAVISTAlTQg3i57aUezQ8B6cUwhIMZdVFIAqB5XsEQQGJBWkBoXHggQda3rgo5gksnjmeRZSelTCIGvoVWkhgQdqwFkHuYDz7rGEoOyF++DlEj0/i3pQCi/WB9QXShlBgrgXRFBJYkD2Q9vSL9SMk6llHWGsJ0wyN54u+QIznI7BYy3j+vQKLkGgKcEAKQX5B/LAmQ46xPnPNMAwU54r+cAxVEidNmmRYcAwKWshx5pm1kp8RKs4GB+QjyecJZwQ3FHWsw1SnZcMC4ouwxdA8gYXyjfWW9RPCEMUv6jZvYMG7gTWddwhGji/eS2A6Y8YMI/VQlBZDnjZ2n4nAqsRTqDaFgBAQgaV7oFgERGAVi5iOFwIpRCAksAjFgpDgwzutFiqwGAMf8aiSSrFSCCyfvJ3reQILNQ7kEooiCB1vOEg4HrygUSJBbnhDIQX5FKqWIIUgd3DIcIY4nr9xQjxhxd+hioud+LANfscx/njOpw8kN861fFUIwZd8LiioUIj5PpMjCgeRaoSombz5tkOnD7UEuVioGIhSC6fV9zEfgUXOGTCizzi3qL5QG6F44u9SQgjBAfIONVsUAgtiDgeVpPOFLAqBRYghyjTIPZzPcK5KuUfDc1B24LDH5ZSW2596Or8YAivEhecTood7eptttrFnG8KjkIU5sLgXS62w2tjcQHJQMQ91qDcIHpSUEC4QLxBTqH58cYpwXSEUFwIMct0TWOQChJQqlAMrJLAgigh1490UElisIeAFSUVoM6om//zwc9YSH8Lr+w3RRR/IxeUJLIi/YcOG2TMI8c/7jjnwYYisy4QMMwZvEE833njjAtVV6Qch0xhzAymEahVjXXr22WeN/PKhg+AIvvSJzQZPYJFPkDUfjDgPIsxjC3nvC3AQYs6xhDH6NRXVbJhYn+tB9rF+++v694SfJ/JCEtIYV7oAEVj1tNpprEKgegiIwKoe1lm5kgisrMykxiEEGkEgJLD4mMWBYnc9rRYSWDhF5Jdih7sUK4bAwjGgLDsOiU9C7gksKl2hLjj//PNtB59ddhIjQ0blEhioaMhRwjE4ZU0ZThbqKHbkuU7Pnj0tZ5Q3dvVx+HbYYQf7EWosFAbk5GnKQgILLNnpJwwFZ46y8owTJQk/8woAlAYowiBCfQgeDq9XRkBCoRLyeVhCYss7V6FT6n8f5uGiXfqDk1soiTtKOMjCkBRkvBBtOImE4YRtQhaSSHncuHGmpAJ7lBWQZ95B5XzUa/w8X3n4kMACZ1QfGCGRIdEQJ2mVO4eEBzEWnFiIW0KCk2L0adlll7UwqXyGY064Jr9nHOUmPK/muCFh4yCTGDPVOyF8UBpCbEFo+bWgGlUIIYZQOvlwM9YX+oBqEyUP6wshwaiOeFewtkEGQXpBPpGzD7KewgiewIoSQsiYIQL524exhwSWn0/uI9ZO8jWyRtFfCHAUjaiMQps4caKtRxzjE58Trkx+Pgy8Ie8J84OM4v6EyIKcYx58fj4UZKx/jd2TbFKgrqKoBesTGxestbnG/e0JLMbgi4x4AgtCDYxRZWFsFhBemGsQYWwmeGNNh9ji+qGSl7WK9ZfQQtRd3Ev8mxxacaULEIFVzdVG1xIC9YOACKz6meu4RioCKy4k1Y4QSDACIYGFIgUnJc05dEICiw96csSw816KFUNgQdLgKLFD7i0MIWRXHifE785zDIShz0UC8QMxg4MI8RCGDhbqOyGFOHg+ZxQOGgocVAcQRThRhKEQTuJJE/p06623WghJU0ZoI06YT2aeezzOHg4QqofQscNZJC8WCiuMXDr0kfHSD9QFOJ65RmgLFbJwhjFIAdQIoYETCgpyUuGE4WjmU2AxH2PHjjXCyofR5F4PvH2+L3CJct8zBuYHoiXXQgKrKWzr8fdgxlxR1CCfoZbkHsZ5hwgIlYNJx4swWF8ZL66+8vySV4l73ee6IzwMtSZGDjlPxMR1Tdph3aOqIPPBuIolsCCnCW0Mc2BB/LIO5M6pz4HF+tG+fXtTbTEmv3bkI7A222wzI5q5nyDMUH2yFqEoyq1CykYA+aToCyQc1wdXCGyvQg2x8wQW6zRVF3mfeKzJO5WvWim/Z12DBIMcgzSHgGWNY12BMILo94Zaio0M1qh8BBbEFSpWxpnPuBYqVnD2BTroN+OEXEcpRl8g1BgjOEF0kbCe9wvrHO8p2s9HxJdyL4nAKgU1nSMEhEBTCIjAagoh/T4XARFYuieEQB0gEBJYfNjzAU7VpbRaSGBVKwcWDgXODWoEru9DuXCYcCZQTRDug2PoFUE4pVS5Ikk5zgVOIjvnxRBYkDfk0CHnlTcSIKM+wkmibdrj/1EJLPqHQgDlAXlacHQ4l517SDUfquITr3O/5HOC2N1nfBh9IFQvNxE6eOCMgxcYQb6hqoJ0wp5++mlzakPDKUOZgkNIWBD9LBRCiPMWYp57T5OAGdUahpIrqlqJPDn5yBURWGldNZLfb3/P8Yx44qVSBFaIhiewIGEgjVDyQGw3psBCBYXKEnLeK7DI2wTBhKoptDCJO+pfck+xbvhnMSSwWCd47iCHyCNHW6iVUL6iVGP9zDV+hrISshtyh00NQoFRZ0JE+6IU/jyIIELyUGlCjvl1E9KHtRUSLp8yFtUW2LCWszYRzkiidohAFGmekOM6qDohmyDQ8xFYhDTTt0IKXDYoULtB9NF/7g3WTMIXOYc1nPc666LPo4gSjfc74Z1xkVYh1iKwkr+GqIdCII0IiMBK46zVts8isGqLv64uBKqCQJaTuLOrTxL3MKSuGFCjKrDIM4LzgrOCIgkni53xxkLFIHhwYjBCvjxpw89xfnDWmrJ8BBZEGc4ajhv/hniCFPJ9wekjvAelSz4jMTPH+zBIfww5WKjcxcvjpCkAACAASURBVN84czhQKKHyGQQYygcqZKGoIG8VBFWuETJDmBJKABxXFAnkpvFGOBGKE2+EZ1ItDAcWR40wIhzkUnJg0SZqQ181ECeXUKKw4mNT+Of+PiSwyIVGAmecS5xIxoah+PKqjmLbj3I8915TFROjtFOpY3xOnsbyPEW5NsQlRE6+wgg49fzO5/cB83Be+R0qP+5jlDjMB7hBPBB6haMfVnAr1B+vnvRhZlH6Hecx1SSwwAMyntxQKCwhgyClST6P2gf1JDmzSD7O80loMzm9PIFFxTyUn5DPoXkCi3mEaCd0kfZ8LqvcKoSsI6g5uS7rEUov5pBnt9B6xPXov0/GznzzB/IfMi40CCzIHkKxw40BjmH9gTjLp44lVBtSjHuCvkCIsx6wtnE8v6fP/B5yjJBv7k+ILeaR9dkncUfllY/AQnVFzi6uQ24tb+QiZD7AGrUV73TucfDgveIrm7Iu8H7xoYmQfu3atYulIqEIrDifbLUlBISAR0AElu6FYhEQgVUsYjpeCKQQgSwTWJBAKIRKrdQVlcDi4x0HAmeIkEWcHPLheNKInC0QRzgS7J5jhQgswjwIXYliuQQWzh15hDCUUj5shlBDbyiOwiTrudchtCVfzjAcOp9XCbUBuVYKkRAQaOSNQmGQL4m7v6YnsKKMlWN8kQGwhJyELMThjYPAYjw4ghBvONMQUMUqFXKTuN9yyy1GiviE04wB5xvlBHlt8oUwRcUi33GQeuTeasyRL6f9OM5F9YYTnxvqVWzbKANR4+22224LnEqycda17t2727VQ9EBQeuN3PKsoViBzUfJBXBCKRrhty5YtTf2Xq87JvRBKHp7xKVOmmGqR+z5ug3Tg3vSKP/oahrVVIoQwHINXYHF91g3CCiFSIMfJ78Q9h2II1RJYQ3xD2kCchDmwWD/ICefXJ38NVFcDBgywqqYotFAINUZgkUeQHHxhXjra4lnKl5+KeWG9IpwYRwjSCxIIgh8CzlcB9f2hGirqL1RSvD8goSFAWU9RUhEKmRtGyNght3imeb4hhTiPttmc4NoQ71dffbWtMaz95EDknkTtzDV5N6BqozAF+HkCCzUVCjPuWfCmLd4RucY8cP+ifGMDAmWrV6txj+czxsOGQbnPIm2LwIr7yVd7QkAIgIAILN0HxSIgAqtYxHS8EEghAiGBRXgFCXnJ5ZRWy61CiArgjTfeKGk4UQgsHCeIGhxfVFfs3nvDqSB5OqQCjgrhIuT2wfIRWDiHkEc4O1Esl8C68MILG5Kp0xfULjiM5BzypFRTBBaqJpIV45SiEOBcFCbcEzhCOFSExhBO5A3njrxWGMouyB9vqBwIRcznXIYEFmOHIEMVBaY4XziCvv9eEUZuGhxIsEXpQOhluQSWr24GGcH4IAwgx1CSMH+QG1HyMUWpQkj7hCZBDKBMgyTxye6jzHljx0C8Mc84wrLqIlBqFcJ8veTe9vckhA35rzxZXI0k7mGfPIEFWUhOOt4PkGbcY9y7PHsQIdzXVNWDHCKZOsqpMAcWmwg8U7lKONYY1HAQQH7tbIzAghijLUK2faJy1lf6GRprNyQkhJJXK4EpzzF9YF3xIYdt27a1KoQUnvCkMsQzZDaEEEpScgli/MwXZ+D/EEXk+/MVG1HP0kdIOYitsOosodSMk00O1nj6Rpg3BskNicc5VBD0BBbjIHci6zDrU1h4wq9JvvgF69aIESNMJcu7gfsIQtCHhXMdjwHjJYcWytc4LCSwaJt3BIqzKOtmHNdXG0JACGQTARFY2ZzXSo5KBFYl0VXbQiAhCIQEFqEOhLWhXEirhQQWhAhEEaRMKdYUgUW5dRwnwkAgI3KTnfsk7iRCx1BqdO7c2VQKnsDCcWGXHnUDih2cxKiWS2Dh+ORL/IsD40MUmyKwcCYhp3BKUZSQAJ8+egIrX99wJtn9x/h3VKfIE1g4lCjWcCQhAlBiUJmLhO6tW7e2PoAxhBLhoIQV4tCjhmDM5RJYtIsSBGeUMCZf2Yv7B8eV5wEijv83ZlEJLF+VEaUeygtCh7hmoep8Ue8HMMFxREUnqy4C5RJYPj8R9xjzBwnsK9mFpE+tCCzWBdYnyBHILEg11GA8t2wSsMZQmRRyFtKNkOqQwGI9QUEUkts+zLNYAguSm/XIK954fghpDo01C0KfsEcMwgrFHGsx/6bv9BPyh3UE9RT/ZxwQ1iiwUO9CwKAaJDwPJRaK0lDRi3OF+jZXyQV5hFKUMdJ2WBWQ/kDqQzZ5lWchAov3GQQapCHrC6QcijLILpRW3CP8jNBNyHzWTAh+3g2MHTUv7zGIN0I/6RPjIoyQ/IKcH4eFBBZjAiOUoHG1H0cf1YYQEALpQ0AEVvrmrNY9FoFV6xnQ9YVAFRDIcgghTgS7wKFaqBhI8xFYhH6gFCCvEYoklEc4FBi76+yyE95ERbJcAgtHDaKEnW9PYNEeeaDY8SdJsE8qHqWfuQQWTmO+Klk4N37nvikCK7wuVbSqQWDRZ7AklAXlBoQjuaMgBclR5QksHEXUDyRuBi/CiMC0XAILtRkOLYo1QnQIq4Eo8yFkKBO5h1CJlUtg5TsfIhQCsxjyMl87hDz5qopR7h8dEx8CpRJY3MeElUEoQA6xfkCwFCJLa0Vg8WxAYBEKyLoKeUQoIf31BokBEeNzRIUEFmoj8meFYbmewII0gvCAcMIaU2BRKIM1AoWSL4gBXjyzbA6EhiLs2muvtR+hdOIPOENKQe5A6ngCC+UYaivaRF3GuuxzqEE+kdOLNYJnNFTI5hJYhKWydjF/KM5Qr3ItXymWvvA7CEBUWj5ReyECy4+HPrDeocZi3WcsEOC8Y1gTUXpBYBFS7UlGNkrAhjGhEONc1tPcvF9xPAUhgUWeM8hMyLN8yts4rqc2hIAQqA8ERGDVxzzHOUoRWHGiqbaEQEIRCAksPjxR0KQ5BCm3CiEhe4RflGK5BBbqAQgxQk0I9WB3mfwlOAxU2cJ5YYcbR4yQQRQxo0aNsl1/b+zmE4aDSgl1D8l8IbM4lx15nJ+olktg4TCFISu+HRL7+tCYJBJY9JM8RZAAnsDiZ74KoSew+BlKJcYJaYWSAAziIrA8XjjnkIyo1ng+mHPmKXTWc+cIIo159eoM5hwCLqoRzgRBB/GJ4ehz/0AckFsIsqAp4zj6AI6y6iIQlcCCPIEQ5Q/JvMlxhbonavGAWhFYEDE8A9yjharjgTjHeSUqRD/rEeQQoa2oGENDoQNZzXsHVRX3PiQxawFkEhYmcWeN5R6HyIEEgmBi84C1jXUTFShKLAjuXOP58YQ0zzdrB6QO5DUhfZCItEWbrNm5ZBjn+meQufIhnZDPKEZ9cQIIPkLovNE3QscJh8YgnFj7WcP4t3+HoNJiA2Tu3LmW142Q9FycUWCxFrLm0V9INfoChmAJgUU/IeExT2BBaoMN46oGgUUoIyRZY+tldZ9OXU0ICIG0IiACK60zV7t+i8CqHfa6shCoGgIhgYWCg/wlVFBKq+WGEBJmwZhKsVwCK2wDogpngFAQqkiFld8aI7DYDcexgFSCBEN9RYgI/SSnU5Tqg74fuQQWygBynuRamOg5TQQWJCAhgoT2kHCZf+MMMi/gTRW5ShBY4EeYFNdEicF1qIqWD1uPNY4jTiQEElYsgQUBhgPqE+wTcoUjy/hwbHFKUZ34imL57mf6CWkATrLqItAUgQXRAJnO803ybuaKOS7WakVgoaRB8cNa15iqBkUqKimM9Q1iBsslsKhaSH45NgBQSRHGC/nDughJzX2PhQSWxwosUTBBLEMEcc9DFEH4kKTd56MKsSXM0IdRezUTpBNEFs8qiibWFRRxbCTkGhsPrNMYGxaoyaKs1SirUG35NukfYX6Mn2TxjJeQUVSyEGEQgCRyz4dzSGCx/kFKUUmQsH/Ckn0+QHIYMkbGy3E+BJy+i8Aq9onT8UJACNQSARFYtUQ/ndcWgZXOeVOvhUBRCIQEFjunhHKRFDetFhJYOBiQH2eccUZJw0EVQMUr70zRCDv0OC/kRWrTpo3touc6dJ7AwqHCKSMvTD6jrDz9w3GCmCEBOm0RvobKC+P8Qo5uSGChDiOXVj6nCqfIK4OqSWBB1BEWyfggo3LDonwOLEJNuO8YZ6jAAlsUKziaEH+E4aBeCPEulcAidAhscRx9CGHuHHEM18Y59n0pdCNxLE4puWmwcgksHE2UKCg9UGWgooDEwhnFYc+XL0shhCU95rGc1BiBRZJvSEjIbu5nyKtSrVYEFvch62FTqhqeRwga1rxw3cwlsFiPKDTB+so6QP451goIYNYLDBKHXFSsCai4eLZ4ZlFsoVqD/CJcGwcHQgsVKz8njC7XSOSO4o2CE974P+sS5E/Xrl1NYcXakm9+KLTAOopBGqGu5O+mjHWc+YeUo9+MD6IJMgoCinWftQUC26tkeSfnU+SFBBbXPuaYY2x9QK1Ff2gXog4CG+IQZRZrLviSfxETgdXUjOn3QkAIJAkBEVhJmo109EUEVjrmSb0UAmUhEBJYOEck5d17773LarOWJ4cEFrlYcJxICB7VcGZwVHBsPvroo4ZKVZyPw0TeFNRSoeIqt21PYEFq4GDgvOYzQmEgeXCaSDDM7j9GWIp3tPg5yhscKPoTJgMm9IWwHsgN+oMT9/3331v4y+jRo00pAKmBE+irdLHjj8KOyoychyMEiYZzhdF3nyOF36NC4to4migG6DPJgHGEMJxUnFFf1h6lEvnBIPcg4nCswBMVApiSINmbJ7BI1H7XXXcZTiGBhaIMx5bzcehItsy9CaFDn3EMIb5w2ug/14paEt4rNuhLIQIr6j3DcRBsjNdXK4uDwPLzQOgP44fg416BvGJuUK7gGBN+yH0hAquYGYv32JDAQp0J0Y0SiXuYeSsmNLixnlWbwCIPHionQvcgprh+Uwbpy7p79dVX26GEz6F08rmxIFdoc9asWUZ0edKX5/yRRx4x4qVly5aOin5sArBhQJJ07ncSj+cLYWR9g8RnEyafsYYRoki+KBSpPuegz2tHSB7qRjY7whDAfG1BcJFvsLGiDqwHOF7cF6xXbC6gtqXIBlhiPik76yrrNmGlhC5DwOUbI7ixpqMG428IP9piXYTsBi9wAD/WWcg93guM++2337ZcXKyPpAmI28IcWAohjBtdtScE6hcBEVj1O/eljlwEVqnI6TwhkCIEQgILR4sPYIiatFqpBBYJegnhgBDCAcPp8DviHgvyj1BJyxNNhTAKCSxIhXwhmSQYZufdJ11HYcAuPM4VOVxwqLgWigPa43ckKka14A01ThhSBsmBo8b84fDhxKD4CNU6ECD0n/O8soj2cSgxqtgRNgcWYOmNn5OvhbHgNBH2Qrs4jTiWtIVzRqJgHF1UFCgavGoBVQDtksfGGxj4ymQ9evQwp98TWIRb4fRCoNEWyo+DDz7YxgZhBZGIo8k4Cd8jvK+WBBbjJGTHqz/iJLCYK+Yx12GG3GOOCH9C/SUCq3arFvcepDBGrieIHhKGe7Iirp5Vm8BiLSQ3FOsG42ks/1U4RtYrXyWQ9SZ8p/Cs8DvWDEIHQ0Ulv4MAh/iH8OL+RvnFZgAbEeXiSTVT1hmIRdr3uawggrkGSc/jqJwHbhBFhFGCGyRcPhITUoq1FUKaXH6sq4WIMdZ2CEXUZCjNIP7AjvWBNZLrkBdr2rRppl5jI8PPVy6ucd2Pvh0RWHEjqvaEgBAAARFYug+KRUAEVrGI6XghkEIEQgILAoRd3DQngS6GwMJhwSkg8S+hHKievDKHD39yELEzTl4XDPVPvvwqudOOgqpt27am7CH/Vr7qdSivuIZXJUBG0RccHnbN2cWeOXOmW3/99Ruah6hBIRa34USGygWcSxwunD2UBJAnOEn0FyxIMA5xhdMFSeYTj+NAQTShxsrN1cRxKFOaqkoFgUUOF/KBUbI+n+Fsoi5gPugfc0ZeIbD2lcOawihuBRbXQ1HBGLFyCCwwIow3avEBiGfuCxFYTc16+n9fbQIr/YhpBNVAQARWNVDWNYRA/SEgAqv+5rzcEYvAKhdBnS8EUoBASGCxK01Ilq+YlILuL9DFkMCCkLvkkksWUEChHCIM49NPP7UQFkJZvFKIPDUoKAiRg+QgTwk73sUQWBwLycLuPmEhaTRUFxBm5HCBTEEdUA0jLBI1ESGHhDsWMuaG+UPVRXgMCi7y2EQ1yEvOwVBvXXPNNVFPLXhcXAQWahXCLSHlopgIrCgoZeOYJBFYEO4oKFEMpTnsPBt3Rm1HUU0Ci7WfNZ+QejZ4UP7KhIAQyCYCIrCyOa+VHJUIrEqiq7aFQEIQCAmsYpLTJqT7C3QjJLB8hSsSf3sjxxckHYoVn5gXMgPSDtKERMC+vHluFcKoCqykYlNKv8CTkJqmlFOltJ3vHOYEBwWVV5RrQjyiwuL4YkN/fD4xFGY+lKicccRFYKHKI5SVcMwoJgIrCkrZOCZJBBYhwtyrEMBsAsjqF4FqEVis2Ww8kPeP8EvyO7JJJRMCQiCbCIjAyua8VnJUIrAqia7aFgIJQSAksLbZZpuGPC4J6V7R3QgJLMLWSG5LInR2a8mbhGqH/CQYjhcqF5KBQ4Dk5h4RgVU0/HV7As48Sbt9guRyQgjJ80OVS4jWKCYCKwpK2TjGE1jkfyPsOQwxrvYIIRMIGUatyf06YsSIandB10sIApUisCgSwiYFmxoogXl3E27vjaT7JK2XCQEhkE0ERGBlc14rOSoRWJVEV20LgYQgkGUCC4jJ24SSB5UVhkrHJ8s97LDDLJkvCpx8JgIrITdpSroR5iwrh8Ai9JXKjj6xflPDF4HVFELZ+b0nsFjTqNpJgvNa2k033WTELWsq1fAo1iCrPwRyCSyKwVCMpFhDTcs3CVVpycVI4RLyUGKoc3NNBFaxCOt4IZAuBERgpWu+ktBbEVhJmAX1QQhUGIGsEVioAkjKnqtegRQ48MADLbcQZdBJlN5UiJoIrArffBlrPq4QQkiKRx55xG277baREBKBFQmmTBzkCSxI9/bt27unnnqqpuOaN2+eozor5O31119vatZCGwI17aguXlEEQgILNfN5551nJHyUsG7O9aoqKrlSxANVXz7CSgRWRadRjQuBxCEgAitxU5L4DonASvwUqYNCoHwEQgKrdevW7uGHH7by3Gkyko1TQZC8VpAIkFTeUGBttNFGllOIyoDFmAisYtCq72NxtiCdDjroIAOiHAUWoa0UDogaHiYCq37uPU9gQcATstepU6eaDp6QLsgKiiBQmfTll1+20GxZfSFQbAgh9w0VdydOnGhVbCGtSjEpsEpBTecIgfQgIAIrPXOVlJ6KwErKTKgfQqCCCIQE1rrrruvGjBlTtYpz5Q7r//2//+e++uord9FFF7k333zTvffeew2hgrQNeUVer0GDBpVUqUgEVrkzVD/nk6eFipYoUERg1c+8V3ukSUri7sc+d+5cyzPIennCCSe4K664otqw6Ho1RiAKgcW3BmGBHDt69Gj35JNPlpVzk8IbbFZBYsmEgBDIJgIisLI5r5UclQisSqKrtoVAQhBIYwgh+awgq1CpXHDBBe6nn376Uzigz3dFhSwUZTvuuGNJaIvAKgm2ujwJFSA5q2655RYRWHV5B1Rn0J7Awnk/+uij3c0331ydCzdxlccff9xUh1tvvbV74IEHXMuWLRPRL3WiOgjkI7DWWGMNu/j777/vIDkfeugh20yKy6iaPHbsWNeqVau4moylndzUBHyPNJWuIJYLqxEhkEEERGBlcFIrPCQRWBUGWM0LgSQgkBYCi5CDr7/+2nJloBK77777rHT7csst56jIddRRRzmqt1GtCAfq1VdftRLvIrCScJfVRx/izIGFQiEq8aoQwvq4vxilJ7CaNWvmLr74YqusmgRjLaYoxqRJk9yll15q+Y9k9YNASGAtueSSdm/6MEEcUDacKmEo/3bYYYdKNF10m6zDqL6bN2/uyLkJicv31aOPPmrpC0jRkHWDqCOEmHGjkEeZHBrrFnnR+DnfZ+CVzyD9vvzySzuWbzwS+VNV+ueff7b8pXwHcp8VOj/rONfT+CpBYPFMHn744aYaPuaYY4xYF8mcnbtKBFZ25lIjEQIFEQgJLHY0IYei5t6pFqyzZ892Tz/9tLvjjjvc/Pnz3Zw5c+zjmA8aPpRJIswuLMmD+ZA+/vjj3dChQ0VgVWuCdB1LOPzEE0+4fffd19AoJwcWH+ann366O//88yMhKwIrEkyZOCiJIYQAi0NKHiPW4169elkYIY6mrD4QCAksRrzMMsvYOxplar0YY8YJJok9f5ZYYgl7Lr744gv7FmFdz7oxbpTI5MJjQ4cUD6HxrmJdIP8ZBAKEVj7jfqLCKZh27drVwk15p7722mtWvOKFF16w9BAQhWm2Nddc054R7hUIPwg7viX4nuU7l/X+rbfesoIu9XD/5M4lG9K33367fQ/5EHWKhUQpDtHYfdG/f39322232RolAivNT1D+vovAyt6cakRCYAEEQgKLX55yyinu2muvrSlSvLR4WfGxMnnyZEv0+swzz1if+ODZbLPN3O67725lug8++GCrKuitkgQWBF/Pnj0doRF8kPJhwQcZO8BvvPGGa9OmjX241ot5xRsfXIQ0gT1zBwZ8yPPxvthii9nPORaC8Zdffmk4ll3WxRdf3I7nPI6nHT4q+Dvfjhj3BR9ytMNHX1KMfnXr1s0999xz1qVyCCwlcU/KrCavH0klsECKQhrbbbedPb8osM4666zkAageVQSBXAKLdyGOOUQFf+cqceLsBM4s74I//vjD3jUY7xSuyb0oEwJJRQASjk1ZoghIhcF3EvfsLrvsYnldKUB0//3326bASiutlNRhVKxffFtSmfTTTz+1a5BjMQ4Ci/QjVCXH/xGBVbHpq1nDIrBqBr0uLASqh0BIYLGbxc75scceW70O5FyJ8tkTJkxwQ4YMsdwZqK8gPniR85JH4bLHHntYovl8BEclCSzfVSTtkCi8VCGzCA3AeYNQqydJ+6abbmofXczR9ttv7z744AOT+lMMAAJq+vTpFgZHeBG5cbi/Ro0aZU4ux+LYQPRwPB9x06ZNs1ALSMstt9zyT8Skx55qkn369LGPOnZwk2IQauRjg9QUgZWUWclePzyBhaNDDiyfcy0JIyXkB4If9QUEBs86a6Is+wiEBBabFhRWadeunW1EoUylQjCKko8++ihWMHj/7rzzzu6II45w33zzjal+6Asqcq7p1+NYL5qixlB/gQffUHzr8X0F4UfoJZtHvKM33HBD24DjHY6xscT3DPPVmPHeJrcZ3wAQMWANiSgTApVCIC4C69xzz3XXXXedqd5EYFVqtmrXrgis2mGvKwuBqiEQElh81EAe8QFabUOBQ4ggqityWJHrgA8p8kiQWwUZ+TrrrNOg2CnUvzgJLHbCcBBPO+20asORiusVUmDxgQy5yFxAZLGLxrH8DNLKq7WYX9RzuQosds798blA8LHMbnvSFFiMhbExVhFYqbh9U9nJMAfW1VdfXdPNhlwAWcPfffddd9xxx5lDPGDAgMhhsKmcDHW6AYGQwEJBSoiXz/n022+/mRoKRQn5bFgjx40bZ+RJuUYoEDnXUGZDntA2azHvFPpU7wosSCXeS7xPIbMgEHn/QvgRnkdifTaR2DAk9YInsF588UXbSGrMOnToYCQhYYLkIL3nnnsqqrQr5l7hHoBAR6FfjPH9O378eNsw7dKli32TMjaMe4logNVXX93ubyIBwElWHQQIPeV7vEePHkbIlmNEmpD3SgRWOSgm91wRWMmdG/VMCMSGQC2TuENC8FEFWXXJJZfYxy3/XmWVVezjAIUBoXrFJGmNk8AC5M8++8x16tSpZLz5oGZXeMUVV7RkpBgf9IyTsYE/ygU+wPnwD1/MYAMWn3zyiZF3/uOSXVQ+PufNm2cf7auuumpDuIYnUErusE6MBQGFEMYCoxrJQSDJIYS+q4Sgk78NheQ111yTqFBf3VCVQSAksEhi7h3NfIpk3lkQH5AAEAR8B3z++ecldeyMM85wV155ZUnn6qTsIgCBxWaoV5VFHenMmTNN+c+3GCrwl156ye222252Ovc4anJyr1KUgPxVlSpOELW/tTqOIjMHHXSQpX6gYBKEH9+k2Ouvv24bzSj0MdT2ENj+/77PfKtSRbdfv36Wj6pFixb2B6U+7dLGiBEjGoZ48skn22Z2mDKk1PEPHDjQcrWx9kiBVSqKyT1PBFZy50Y9EwKxIVALAoudV3ayCD2j/Dq7IITjsTPYt29fS9JJbimImWItbgKL9iCxSjV2P9ndJJSOMDoM2b0Pu+MDiPxeKM322msvw8DbY489ZuQZOQB69+5tP+alP2XKFPsY4AONFzA7heQaoaR4FpPmgsOuu+5qO8KQmR4jHCF+RrgSH518/EAKUq0SPAhxYMcZrNglfuqpp0zJRwUadlMhC0mOijIAgpBde8JUca7AlN1rFCWEqEBCMm9NGW1yfPfu3e3DLKrxDPBByPOgHFhRUau/49JAYPEsEkoIKUEeLBRZhZI1198MZnPEIYHFpgtJt1l3G6vsxbuKzRver1QLZt1GmcU7LaqJwIqKlI4TAvEhwLPK9xZEIT4E67vP/8r/Ia59jlKeZ47LzVnKzwhT5Tuf7zVUgvxBwc/vaCMsAsBxcZBXoID/wTceG8l33nmnO+SQQ1SFML7bo+YticCq+RSoA0Kg8ghUk8DypZGPPPJIU1vxfz5w+bPffvs1kFfljDpuAqucvujceBAgHAlniN1Rdvr8hxK7dOyIEqqCWg2JObv/5NMiFxeOFKQTeXj4P0QV+bfYIeQ+4b4jVwptcCwfTpxP/g+ILUgrnKuNN97YHC3aaMpoc5NNNrHcaMWYCKxi0KrfY0MCi3xx7H4nzbiXqRx14oknWm4cwpQgZWXZRSAksFj7lqHetwAAIABJREFUXnnlFVOoFGM//PCDrdHcP4RmoZJoKgRQBFYxCOtYISAEQgKLlBQkhSe3VmNku1BLFwIisNI1X+qtECgJgWoQWEiI2VkdPny44yOVnXk+eKkkCJlF7i3C6wizK9dEYJWLoM6vBQIisGqBevqu6QkslIKoD1FuJtHefvttU2FBABNOePbZZyexm+pTTAjEQWCFXeG7BPXFVVddZcnZqRqWj8wSgRXTBKoZIVBHCHgFFv6IQgizN/EisLI3pxqREFgAgUoSWPfdd5/luSBkkFA5cj+huoK4IhFj586djbjyipo4pkcEVhwoqo1qIyACq9qIp/N6nsCipHqUkNZajZJQZ/IaUo3u1FNPtVxYsuwiEDeB5ZEixAelLZUMCTmkSnJYyVAEVnbvKY1MCFQKARFYlUI2Ge2KwErGPKgXQqCiCIQEFnmnIJx8MsZSLky8O7mDqNzCDioSXaS55CaiuiEJfiGwyrlGY/0SgVXKrOmcWiMgAqvWM5CO63sCi1wh5MWjklJSjd3tAw880JRiVASjapksmwhUisDKRYvcO3xj3HTTTZb3cOTIkRX7lsjmTGlUQkAIkFeVhPA//vijFFgZvB1EYGVwUjUkIZCLQEhgUR74rrvuaqi6UgxayPs59+WXX3a8HHwi1vXWW88SWpOgmpwYJGHMV5momGuJwIoLLbWTFAREYCVlJpLdD09gkUCXQhBxJbWtxKhR2xICdumll1o4IX/7SqyVuJ7arB0C1SKw/Aj53qCIB5XKZEJACAiBYhA499xzLfcVUSEKISwGuXQcKwIrHfOkXgqBshCAwPJqKBRSF1xwgZWXjWI4KHy4klgbmT+VRPg/ldhQXZ133nmWmJ3cVvysGkboyvHHH++GDh1qqi8SCFMBUCYEkowADpmvQki1naefftptuOGGkbqMcnLatGlW5YcdRVl2EaDYAMpWNgF8/iuqm1Klk8IYrHt3332369ixo7vjjjusOAFJtbmfLrzwQisBn8/4PWs2FWDjMt4JKHFRyZCzi2qrFE1IioEh7zD/buLdgVHMIZ8xHgycwgIkSRlPLfvBex+F3UsvvWT3G0nciy1kUcv+69pCQAjUDwITJkxw++yzj+XkxUdByawk7tmZfxFY2ZlLjUQIFEQgVGDhXDz66KNu3XXXLXi8J61ee+0199xzz1lOCnZCCWlhN3SPPfZwp5xyilV7q4UphLAWqOua5SIQKrBQ1RAedsstt0RqFgLrnXfeMQKLkF1ZdhEg7IFiGLLyEbjssssc77EjjjjCduJ79eplirb7779/gcZ5PlEW8zdVTSGced9tv/325XckBS0wVipKUiWwWbNmttYsuuiitnHFu3/KlCmWrJ98l6VWIUwBDOqiEBACGUCAjR78FHLsSYGVgQnNGYIIrOzNqUYkBBZAICSw1llnHffggw+6zTbbbIHj+GBH3fHll1+aY/3AAw84fy6KkQEDBrgll1zSderUqaYoi8CqKfy6eIkIKISwRODq7DQ2CwjDY+2VCYFqIQBhxebUiy++6JZaainXvHlzy2nJhhYEFkSgNxFY1ZoVXUcICIFSELj44ovd5ZdfrhDCUsBLwTkisFIwSeqiECgXgShVCL/44gv3yCOPuHPOOcdyW/HRSm4rPmBvuOEGt8suuyRGfisCq9w7QufXAgERWLVAPZ3XJNwvaph3UkZIeN7HH39sCibUPGuvvbabOXOmhZxj/Iw/VJpr3bq1/f3hhx/m7f5qq63mSObtz03KGNWP/0VABJbuBCEgBJKMAOkZKAJB+DhpU1CPKoQwyTNWXN9EYBWHl44WAqlEICSwtthiC6tCSFgAiityqsyaNcuNHTvWFvull17aFvmtttrKDRs2zHJbJc1EYCVtRtSfKAiIwIqCko5JKwLz5s1znTt3thA0QtHGjRvn7rzzzoZiH+TqQslLHkXCZ/mb3+cz2qFYCOEfWbHff//dTZ061d6tYZETSDyIPbDx9sYbb1il3zZt2thmEueSAw8F9W677WZKafAjN+XgwYPtfMIkCe+jkArJ//mz9957W84q3vFxGtc666yzTKUlEwJCQAgkDYGzzz7bNt+x77//PtHFUJKGXRr6IwIrDbOkPgqBMhEICSw+dA8//HBLbPjBBx+4zz77zM2fP98+jAkf4MMU1dVKK61kf5JoIrCSOCvqU1MIiMBqCiH9Ps0IoMC68cYbHdWfyNkGgcWGiOx/ESA0FJKP6pKhEoD378ILL2w5p7zNnTvXFGj+HezPBU/UTxBa5MIjcT658TgfxcG3335r4X+88/nTqlUrN2fOHHvHx2l8L4T9jbNttSUEhIAQKBeBe+65x4o98V4SgVUumsk7XwRW8uZEPRICsSMQfgj7xtkBhqiiOuHuu+9uSQ7btm0b+7Ur0aAIrEqgqjYrjYAIrEojrPZrjcDkyZPdkUceaaorEqWn5Z1Sa9x0fSEgBISAEIgPgRNOOMHdfvvtFm3yxBNPuD333DO+xtVSzREQgVXzKVAHhEBlEZg0aZJjJ2LgwIENF2JXF8eCaleEAGy77bZWdSgtJgIrLTOlfoYIiMDS/VAPCJBHkdANSpdfc801bqGFFqqHYWuMQkAICAEhkBAEJk6c6Lp06WLRJqpCmJBJibEbIrBiBFNNCYGkIEAYweOPP25hBiQvRD4bJsM99thjrTpHWvNXiMBKyp2mfhSDgAisYtDSsWlFgNA28jxRzZZKUCeddNKfcj6ldVzqtxAQAkJACKQDgcsuu8xdeumlVixEBFY65qyYXorAKgYtHSsEEo4ACW+HDBliSVupYgWBlc9OOeUUd+211yZ8NIW7JwIrtVNX1x0XgVXX019Xg7/uuuus6hP3PA7EoosuWlfj12CFgBAQAkKgdgjsvPPODhUWIYQisGo3D5W6sgisSiGrdoVAFREgGTuVn6giCIGFAgs74IADrPIGRNaoUaPsZyR9JdFuz549q9jDeC8lAitePNVadRAQgVUdnHWV2iPw8ccfux49eth7iQ0VnAmZEBACQkAICIFqIDB69Gh31FFHWbELEVjVQLy61xCBVV28dTUhECsCTz75pHvwwQfdjBkzHLmuMEpuU0b7jDPOsGS6EFhUIyJZO0ZZbkp0h1WQYu1UFRoTgVUFkHWJ2BEQgRU7pGowwQicdtpppvTt3bu3GzZsWIJ7qq4JASEgBIRAlhBQDqwszeaCYxGBle351egyiAD5rMaPH+9GjBjhXn31VffFF1/YKDfZZBOrsrH//vtb6fL111+/Ie8IBJYvZ77NNtsYgZVmE4GV5tmr376LwKrfua/Hkc+ZM8dtvvnmbuGFF3bjxo2zf8uEgBAQAkJACFQaAU9g/fbbb+6dd95x6623XqUvqfariIAIrCqCrUsJgXIQ+O9//+sefvhhN2bMGMtvhSwWImf11Vc3pdV+++3n1llnHbfEEkssoK4SgVUO8jpXCMSDgAiseHBUK+lBYPDgwa5///4WTnjXXXelp+PqqRAQAkJACKQWAU9g4SsNHz7cHXzwwakdizq+IAIisHRXREbgjz/+cPPnz7fQtLfffrvhvG7dull88QorrBC5LR0YDQHCAb/55hs3b948d+ihh5ra6rvvvjOSqlmzZuYUUFGwZcuWbpFFFinYqAisaHjrKCFQSQREYFUSXbWdRARIoLvyyivbe4t3mEisJM6S+iQEhIAQyBYCnsDC/zn11FPdVVddlerUKdmanfJHIwKrfAzrpoW7777bXX755W727NmuRYsWVlXoo48+cosvvrj9/+abb3adO3euGzwqPVAS306dOtUwxwmAPGzXrp3bYIMN3K677up23HFHwx4yqykLCSzyY913331uhx12aOq0xP5eIYSJnRp1rBEERGDp9qhHBPg2QIXVtm1bqwolEwJCQAgIASFQSQQuvvhi85/wF0joTpSKLDsIiMDKzlxWdCRDhw51Z599tiP/Eqqg559/3q222mrus88+c506dXKos/j/7bff7jp06FDRvtRD4126dDGVG8orFt+VVlrJPfroo26NNdZwyy23nOW2+utf/xoZipDAInk7yXXZjUiricBK68zVd79FYNX3/Nfr6L/++mvXsWNH+16gSi7VcWVCQAgIASEgBCqFAHmC+/XrZ+lWiFQZOHCgFFiVArsG7YrAqgHoabsk5Adhg3x4YlS+42MUIgQyCyLkrLPOMkXWBRdcYMdCsMiiIQCGJLudNm2aO/HEEx0f+7///ruFBUJc7bPPPu6kk05yiy22WLQG8xwVElhbb721JX8nsW5aTQRWWmeuvvstAqu+579eR4+CGAfijjvusM2Tiy66qNGQ93rFSeMWAkJACAiBeBAgauiEE05w5A/Gr1pqqaXiaVitJAIBEViJmIZkd+LFF190Bx10kPv222+to88995zbfffdGzr95ptvGskyd+5cI12mT58eKawt2aOubO8grXBm+bAnvGLUqFFWJWOhhRayD/vLLrvMtW/f3ioJxmHKgRUHimpDCJSHgAis8vDT2elFgF1wUg00b97cNlDWWmut9A5GPRcCQkAICIFEI7Dhhhu6999/3zb/iR76+9//nuj+qnPFISACqzi86vJoPjYPOeQQ9+mnnxoxRTnsMH8SYYPHH398g2pIBFbjtwklXVFbsSP93nvvWYggOwP8oUoGKjZyW6Fwi8tEYMWFpNoRAqUjIAKrdOx0ZvoRGD9+vNt5553dVlttZWkIILNkQkAICAEhIATiRgA/9fXXX7doE/xXIlpk2UFABFZ25rKiI3nmmWfcs88+a8QVaqsw/9Ibb7zh9t13X1NoQcBAaBFOKPtfBFBbsfs8c+ZM98orr1hidkq6orSCECSH2JFHHun22GOPikEmAqti0KphIRAZARFYkaHSgRlEgAIwVC0mv+Ppp5+e6jyMGZweDUkICAEhkBkEEANcffXVJhLA5yKSKE5hQGaASulARGCldOKS0m2St5PcnUUCeSbJ3lFryf4XARbOKVOmuOuvv94Ravnxxx+7pZde2hLeswtNgkFkrpWOzRaBpTtSCNQeARFYtZ8D9aB2CJCLhPB4qkP16tXL3ovNmjWrXYd0ZSEgBISAEMgkAj6EEEEFoYQKW8/WNIvAytZ8VmU0JBj/6quv3KRJkxzESN++fU1l1Lp1azds2DC34447VqUfSb0I+HzzzTduwoQJpkojATsSVv5AWrELQMhlNU0EVjXR1rWEQH4ERGDpzqh3BEimu+2227pffvnF3XfffZbrUSYEhIAQEAJCIE4EiGy5//77HUKLm266ydK2SIEVJ8K1bUsEVm3xT+XVR44c6e655x4LKWRHFUNB9Oijj7p27dqlckxxdBp1FQ7qXXfdZQnZwQfSavPNN3fdu3d3q666qmvbtq1bc80147hcUW2IwCoKLh0sBCqCgAisisCqRlOEADkgKWd+3nnnWcoBFFmrrLJKikagrgoBISAEhEDSEXjggQdcnz59zC97+OGHXZcuXZLeZfWvCAREYBUBlg79XwSo5nDuuefa32PGjLHk7RBYTzzxRN2qr8jpcfTRR7svv/zSVFcQe+wyQ15deOGFbtlllzUyq1YmAqtWyOu6QuD/ECiVwCJ/XseOHRsKaZBTTyYE0orAJ5984vbff383Y8YM179/f0tBIBMCQkAICAEhEBcCCAaIFCLfMEncqYIryw4CIrCyM5c1GQk5LK677joLKVx77bXd4MGDTYWVdZkmBBUE3mOPPWaVBF966SVH9cUVV1zRErKzUOJwrrfeejWZl9yLisBKxDSoE3WOQKkEFnn0unbt6r744gsr/CACq85vpAwM/9Zbb3WnnHKKJXWn8ItKnGdgUjUEISAEhEBCEPjHP/7hBg0aZP4oBURUhTAhExNTN0RgxQRkvTYDkQPDffjhh9sCAeNNxcLFF188k5DMnz/fyrKSxwN5KmNHcbXpppu6zTbbzOSqbdq0Sdz4RWBl8nbUoFKGQKkEFsNEzUlosgislE26upsXgQ8++MAddthh7rPPPnP33nuv69Chg5ASAkJACAgBIRALAp07d3ZPP/205WimcAgFx7IurogFuJQ0IgIrJROV5G4SQkhy8nfffde1bNnSlEg4WVmz8ePHuyFDhrhHHnnEYqr/53/+x4ZIknY+xHEw//a3vyVy2CKwEjkt6lSdISACq84mXMMtiIDPhXX66ae7o446yl155ZUWai8TAkJACAgBIVAuAr4KIe0cc8wxDWqsctvV+clAQARWMuYh0b2A/Pjwww8trxMSTJKQhyz2f/7zH3fooYe60aNHu8UWW8yqEt54442JHlPUzlEpaeLEiZaY/a233nKzZs0yDLbeemsb8worrGCKqyWXXDJqkzU5TgRWTWDXRYXAnxAolcCaO3eu22WXXWwdlgJLN1VWECD8fp999rHviTvvvNPttNNOWRmaxiEEhIAQEAI1RMATWOTAmjx5skXKyLKDgAis7MxlxUYCgdOvXz/L+UR+p3/+859/UhohzyTJ8AYbbGB9wNEiJ1SajfEQIjhv3jw3atQo991339mY99tvP/tDni92ixdaaKFUDFMEViqmSZ3MOAKlElhTp041R3/OnDkisDJ+j9TT8FBvU978nHPOcccdd5y74YYb6mn4GqsQEAJCQAhUCAFPYCGswH9VnsUKAV2jZkVg1Qj4NF32hRdecN27d7dcT8cff7x9ZIbEDQqs3r17u+HDh7u//vWvrlOnTm7s2LFpGqL1FZKHsEAUZOTnoEJS8+bN3XLLLecGDBjg1lprLSPp+H/aTARW2mZM/c0iAqUSWGChHFhZvCM0JtSF5NBEjTVs2DD7fpAJASEgBISAECgHARFY5aCX/HNFYCV/jmrew6YILBILd+nSxSpkrbbaaqa+atWqVc37HbUDn3/+uZswYYK76qqr3I8//mgqh1VXXdXtvffe7tRTTzXlFWGDCy+8cNQmE3ecCKzETYk6VIcIiMCqw0nXkJtE4IorrnCXXXaZheWTbDeNm0RNDlIHCAEhIASEQNUQEIFVNahrciERWDWBPV0XDQkskrSTxBw1APbzzz+7HXfc0U2bNs0InjPPPNPUSmkJrbvgggvcuHHjTG1FvivCIcl3xcJHvPSiiy6arskq0FsRWJmYRg0i5QiIwEr5BKr7FUHg7bffdt26dXO//vqre/LJJ92WW25ZkeuoUSEgBISAEKgPBERgZXueRWBle35jGR15KgYOHOguvPBCUyiR+2nbbbe1XCwvv/yy++abb4ywIvTu2muvtUTuSTX6P3v2bCPZJk2a5ObPn+/+/e9/W/XEjTbayN16662mIiMUMksmAitLs6mxpBUBEVhpnTn1u5IIUCBm8ODBrn///q5nz57272bNmlXykmpbCAgBISAEMoyACKwMT65zTgRWtuc3ttHxgfnYY49ZmCB2ySWXGPmDQol/87FJgvckh9mhsCI8AZKKf5PvCuIN1djBBx/sWrdunRnFVe7Ei8CK7VFQQ0KgZARKJbBefPFFW6PYLFAVwpLh14kJRgAV9FFHHWX3+NChQ92uu+6a4N6qa0JACAgBIZBkBERgJXl2yu+bCKzyMazLFpD6E25H+evFF188sRj88ccflpC9R48e7uOPPza1FTmtINpQjEFoUZkia4orEViJvSXVsTpGoFQCi0IZW221lZs+fboIrDq+f7I+9KOPPtrdfvvtVijmxBNPzPx7OevzqfEJASEgBGqFgAisWiFfneuKwKoOzrpKFRGAXIOsIkSQ3FyU6Ya0WmqppdxOO+3k+vTpYyXp68mkwKqn2dZYk4pAqQQW41EVwqTOqvoVFwIor0hV8OWXX7pXXnnF8muySSYTAkJACAgBIVAMAp7AQrBAcbHtt9++mNN1bMIREIGV8AlS96IjgEqBioJUDpw5c6Ypr1BXrbDCCm6LLbZwp512mtt4443d0ksvHb3RjBwpAisjE6lhpBoBEVipnj51vsII8A4nxP/ss8+2TaZBgwa5ZZZZpsJXVfNCQAgIASGQNQQ8gbXIIou4N998022yySZZG2Jdj0cEVl1Pf/oHT24uQhlRWk2dOtXCAgkHJLcVZFXHjh0tTLDeTQRWvd8BGn8SEBCBlYRZUB+SjMCrr77qevXq5Qj/HzlypNt6662T3F31TQgIASEgBBKIgEIIEzgpMXZJBFaMYKqp6iFALquvv/7a3X333W7u3LlWepuwg7XWWssdc8wxrnnz5q59+/Zu9dVXr16nEnwlEVgJnhx1rW4QEIFVN1OtgZaBwPHHH29KrJNOOsldffXVjh10mRAQAkJACAiBqAiIwIqKVDqPE4GVznmr215ToYhExp988okbOHCghQlCZmGHHnqoVURcbbXVLOeV7P8QEIGlu0EI1B4BEVi1nwP1IPkI3HLLLe788883dfUbb7zh1ltvveR3Wj0UAkJACAiBxCAgAisxU1GRjojAqgisajROBAgT/PHHHy0J3wMPPOAefPBBx8+oftisWTO37rrrWsntAQMGWHVB2YIIiMDSXSEEao+ACKzaz4F6kA4E2Iy68sor3RFHHGEqLPJZyoSAEBACQkAIREFABFYUlNJ7jAis9M5d5nv+008/ucmTJztUV+TCIAnfv/71Lxs3JeVJ8rrzzju7Fi1a2A4tua9k+REQgaU7QwjUHoFSCSyKU+y+++7uo48+cksssYRjbZQJgSwjQCXh7t27u7feestNnDjRtW3bVhUJszzhGpsQEAJCIEYERGDFCGYCmxKBlcBJUZecEVfDhw93t912m4URUJ0IxdUBBxzgVl55Zde7d2+39tprK1Qw4s0iAisiUDpMCFQQgVIJLBJbs/aR708EVgUnSE0nBgHe+xdddJH96dmzp7vrrruksE7M7KgjQkAICIFkIyACK9nzU27vRGCVi2DKz//999/d+++/X/QollxySdeyZUs3Y8YMK3ONY9aqVaui2/EnoCxYZZVV3DvvvOPIf0GeK/785S9/cWussYZr166dO+igg2wXVmW1i4dZBFbxmOkMIRA3AqUSWPPmzXM77bSTmzlzpgisuCdF7SUWgSFDhriTTz7ZLbvssm7MmDGqSJjYmVLHhIAQEALJQkAEVrLmI+7eiMCKG9GUtXfppZe6YcOGFd3rNddc00L4hg4d6jbYYAP33XffuW7duhXdjj9h9OjR5qCNGDHCzZkzx/3P//yPW3HFFV2PHj1chw4d7MN1hRVWKLn9ej9RBFa93wEafxIQKJXAIoxq3333dV988YUIrCRMpPpQFQR++OEHt9122xlx269fPzdo0KCqXFcXEQJCQAgIgXQjIAIr3fPXVO9FYDWFUIZ/D0nUvHlzGyFy/V9++cXySBGqR2U/wvYWXXRR+xmOF8eQJJ3z/vjjjz8hQ4LV3377LRJaiy22mEP5RTu5xvW4xl577WUfrCRnl5WPgAis8jFUC0KgXARKJbC47uabb24KVYUQljsLOj9NCDz//PNu//33t0IufDOgypYJASEgBISAEGgMARFY2b4/RGBle36bHN27775rx8yfP9/deOONpnrq27eve/bZZ6189Z577ulWXXVVh0Lq119/ddtss40jnGX27NkNbf/tb39zhx12mOWoiGLkcpkwYYL76quv/nQ4RFnnzp0tQfvyyy/vVlpppSjN6ZgICIjAigCSDhECFUagVAJr1qxZrmPHjrbuisCq8CSp+cQh0L59eweR9eSTT5oiWyYEhIAQEAJCQARW/d4DIrDqd+7/NHJ2NiGochVYiyyyiCVKr7YCS9MSLwIisOLFU60JgVIQKJXAuummm9zpp59uylURWKUgr3PSjMC9997r+vTpYxtsFHZho0smBISAEBACQqAQAlJgZfveEIGV7fnV6ISAISACSzeCEKg9AqUSWChkt99+e/fBBx+IwKr9NKoHVUbgp59+cl27dnUvv/yyu+yyy9yZZ55Z5R7ockJACAgBIZAmBERgpWm2iu+rCKziMdMZQiB1CGSNwPr000+taMCUKVMsuf/DDz/sdtxxx9TNizpcXwiUSmBNnDjRHXjggW7u3LkisOrrltFo/38ERo4c6Q455BDXqVMnN3z4cLf00ksLGyEgBISAEBACeREQgZXtG0MEVrbnV6MTAoZA1ggswl2PPvpoq1opAks3eVoQKJXAQoFCNbYZM2aIwErLZKufsSJAEZmFFlrILbXUUm7q1KmOSsgyISAEhIAQEAL5EBCBle37QgRWtudXoxMCDQTWMsssY/9u06aNJehPs73++utup512smqYJPyXAivNs1k/fae660EHHeQef/xxt9pqq7lnnnnGrb/++k0CcMMNN7gzzjjD/fe//3XNmjVzEFoyIVBvCBBCu/HGG7tWrVq5mTNn1tvwNV4hIASEgBCIiAAEFu8MKt9///339rcsOwiIwMrOXGokQqAgAllTYFHBsmfPnu7FF1+UAkv3fWoQKFWBhfJqr732cp999pkUWKmZbXU0bgR+/vln16tXL/fWW2+56dOnG5krEwJCQAgIASGQi4AUWNm+J0RgZXt+NTohYAhkjcB69dVXLecVYSUKIdRNnhYESiWwrrnmGnfWWWeZ4lBVCNMy2+pn3AhQLfm8885zl19+ueVAvOOOOyykUCYEhIAQEAJCIERABFa27wcRWNmeX41OCGSSwPr8888tqfWkSZNEYOkeTw0CIrBSM1XqaAIRYMPi+eefd/369XPffPONGzJkiDv44IMT2FN1SQgIASEgBGqJgAisWqJf+WuLwKo8xrqCEKg5AllTYP3www8WSjJmzJhYCSwIhnnz5rm//OUv7pdffnGLL764qddat27t5syZY3mLiKMnrn7ddde14z7++GO3zjrr2PE//vijW3nllWs+3+pAMhEQgZXMeVGv0oMAKqwJEya4XXfd1e28885GaP31r39NzwDUUyEgBISAEKg4Ap7AWnTRRd03eLcBAAAgAElEQVQ777zj1ltvvYpfUxeoHgIisKqHta4kBGqGQNYILJLQ47z8/vvvZRNY7OqTU+uhhx4y8mr8+PFukUUWsXxDEFbvv/++VTwkUXzXrl3diiuu6G655RbXt29fc5zuuece17t3b4cqbNasWW6PPfao2TzX+sIkKCe8s127dlYxb4011nDz5883Yo8PiK233tqIv7Qa9wWk5d///veShiACqyTYdJIQ+BMCn376qdtoo41c8+bN3dChQ13nzp2FkBAQAkJACAiBBgQ8gUX12rvuusvy5vL9JssGAiKwsjGPGoUQaBSBrBFY3377rTvssMPcuHHjyiawfv31V8urcv311+suKhOBPffc05Irb7nllm727NlupZVWMvIKdRrkHh8Ua665ZplXqd3pVEBDgUdCdf5mR4/dvahWKoF13333uWOPPdaqDyoHVlS0dVxWEWDNPuecc9yNN95oZPmoUaNsY0EmBISAEBACQgAEFEKY7ftABFa251ejEwKW6Bz10AEHHGBobLPNNg4FU5pt7ty5lvvklVdeKZvAgmABm2effTbNkKjvVUCAnTx28FBitWrVyj366KOuZcuWka9cKoH1n//8x2211VZGDorAigy3DswwAlSgPfLII92XX37pBg8e7Pr06ZPh0WpoQkAICAEhUAwCIrCKQSt9x4rASt+cqcdCoCgEILBwtPfbb7/MEFiE/PXo0cO99NJLsRNYEARIjbfffnvDi2TBhAd+8sknlu9qn332setuttlmbocddmiQJEOqEXa46qqrGtFAeAtkx8svv9wwX2uvvbaFIaKood1cQ7n0r3/9y3399ddFzXEtD2Yull9+eQe505QRTkgOm++//95wIsfYF1984RZeeGELB0VZUcg4FtUT5zZmKDHIkUZ7lTSqn51xxhnu3HPPjXyZUgksLrD55ptbGKYIrMhw68AMI/Dzzz+7E0880UJD9t13X3frrbcWnX/wu+++c2eeeaZV98ya8X5icwYlLMb/Gee7777rOnTo4KZOnep4HxGKz/cB6zIh9Mccc0zWoMg7nuWWW8799ttvjb5zOAbVqw8dB7/VV1/9T+3xTuPdB35/+9vfbH2WCQEhUHsERGDVfg4q2QMRWJVEV20LgYQgkLUQwkoRWEsuuaSFakFM8PGK/fvf/7YQOP7gNEG8QD4tvfTSRtx4g5zgGPIjgTekDIZT4I2P21VWWcUIMY7PtWWWWcY+qvP9LiG30gLdeOqpp8wJatasWZNdnDx5skNN9Prrr5vqjRxZhP+ANThBABYyHAdykr322muNXocwxjfffNNyb8VthEHSdwwC6/TTT7fw06hWKoFFPjHCFsFHBFZUtHVclhGAMGBzgJyDK6ywgoWAs6kR1SAjHnvsMatmm0UCi/fTf//7X3tnYfyfzSzeTYR2Q/KzZkP4s2nC73jXoSytB2ODis0T3sWFrG3btpYDk/cT73Pe74ceeuifDuedxprMe41w8kKJovkd7zwVHKiHu0tjTAICnsDi2aXYx0477ZSEbqkPMSEgAismINWMEEgyAlkjsCoVQohqih35s88+O8nTqb7VCAFUC6jzcGq4V8466yz7E9VKJbCuueYauw6OtgisqGjruKwjAEk9YMAAK6qx//77WyGOqMZGASGIo0ePbjgFBQ2qWf83zxv/z0c6QKBB+nAMDhIEBj/z5/Nz2oFE8oaSh+M4T1ZfCEBgnXrqqe7SSy+tr4FrtEKgRgiEBNbTTz9tlWtl2UFABFZ25lIjEQIFEcgagYUTcPzxx1sFKnbfyfG14447lnQHhDmwCFOj3auuuqqktnRSthHgXunWrZt77rnnLPzxhBNOcFdeeWXkQYvAigyVDhQCkRBAkUk+RBSa9957r1trrbUinZdLYKGyYe1HhUu+OZ7vt99+28KWN9hggwXanDNnjil4pk2bZgVFRowYYf9H3USxh0mTJlnY3sSJE43YwjiOcD3WkVobaiJUrxTVyFeZC+INxSe/jxIeXsx4qCKJUrlFixZ2GmowX+iD9/n6669va6w3iD9CqDnmvffeMyUuBt4YFSk/+ugjU5Al2RgXmx8yISAEKo+AQggrj3EtryACq5bo69pCoEoIiMAqDHRIYJETZMyYMW6TTTap0szoMmlCICSwqhlCKAVWmu4S9bWaCLCZQd4m8gpeffXV7qSTTop0+ZDAIrwOJRftoLZCLQOpAyHiizbkNgrBwx9y7UF6kSvJq64gXDiXv8NwcNST5PnzhFakjlboINYyCCDIuXwEFrhCtvB7Hw4fV1cIiQYLQsgxiDT6M2XKFAvRb9Omjbv//vsbLgeJSJg6xxDCvc4661ifP/zwQztmu+22s/yAzGmlbcKECZY7jFQAoVEYh35CWnqjyAzfE36+RWBVenbUvhD4PwREYGX7bhCBle351eiEgCEgAqvwjRASWK1bt3bkdKqXPCB6PIpDICSwcOrIh3LHHXdEboQE9OTceeGFF0xFQOVLnJqmTARWUwjp9/WMAKTC4YcfbkTLoEGDXLt27ZrMNRQSWKitjjvuOCPAqmUQXOSe8kbfcxOEl9IX3vWMJ27SqZS+ZPEc8l9CvoFxaJBwKNXIY+mNYiy77LKLmzlzpv1IBFYW7wiNKakIiMBK6szE0y8RWPHgqFaEQKIRyBqBRfjGQQcdZLuxcYYQisBK9G1c886FBBaOCqqNk08+OXK/Hn/8cSOwcF5FYEWGTQcKgUYR+Pbbb90555zjbr/9dqtISGVCFJKNWUhgoaYZOXJkVZP8snZAfnt1DusJ+ZHof6n25ZdfWmEJFEKEMnbu3Nm1bNmy1OZqeh7kHnPCOA455JCa9qWci2+xxRZW8VEEVjko6lwhUDwCIrCKxyxNZ4jAStNsqa9CoEQEskZgkfdkhx12sGS4cRJYhAD06dPHkgLLhEAuAiGBxe9wNh955JHIQLF7TyWq8ePHi8CKjJoOFAKNI8B7gDyIPFsQVygWjz766MgEFmQy5DJ5lqpl5NxCkQlx1a9fP3fFFVdYRcDBgweXTGJRcZA8XoRTLrvssm748OGuffv2RQ/pk08+cd27d3frrruuGzJkSKQKs7kXYY075ZRTLLzv5ptvLroPr776qqmXUDpdcskl7sQTTyy6jSScIAIrCbOgPtQjAiKwsj3rIrCyPb8anRAwBLJGYPFxC4GFxUlgsXNNkl2S8MqEQGMEVilJ3EPloBRYur+EQHwIkLPpjDPOcDfccIM74ogj3LXXXusgiQpZqMCKi8CCOPLhviiHIC9ylWAoi1g7SDbPe5lNE943b775poWgURiiY8eO1u3ll1/e2shXBTHfuFBzDRw40Krokmtrt912c4899tgC4W7koKIiHsTQlltuuUAOrHfffdfyQFJFkfxe+XJkNTVzzAeEGgQaFcAKGbmrvvrqK7feeuv9SS1G8ntfmIV5LaZYhr8Wecnatm3rUKZ5W3nllY0YA9NevXpZziqKABDWjZHAH7KMhPH9+/e3cEEIvVLNE1gQioQSMqcyISAEKo+ACKzKY1zLK4jAqiX6urYQqBICIrAKA60cWFW6CTNwmVCBRSJh8qXxd1Sj+hYhhDirIrCioqbjhEA0BEik3bt3b/fBBx+4J554wnXo0KEg+VIJAuvOO+80BS/EDyTVTjvtZARWmLSdyn7NmjUzFSYJ4H2VQyoeYpzrCSP6/9BDD1lSeW+oj1FpEYbMWtKlSxe7JqHMkDEkZoc0oiofZAkkFZh4I5yNZPX8TYL2cePG/Sn3FqQTYYhcgwqEF1544QIEWFOz8d1331lOMawpAqtHjx7uwQcftL5DInnCLySwINsuv/zyhsu+/PLLFi669dZbm+KMiob5jPWaCoVgAqa+mqKfD/pGsnjUZp5kI/E+cwABR5J+FHIo5Uq1kMCCSAvnstQ2dZ4QEAJNIyACq2mM0nyECKw0z576LgQiIpA1AgsCgF1UdpnjVGDVcw4swnCwxnbbOaaU3fiIt2niDwsJLO4VnB6UFFGNimTkbiNcSQRWVNR0nBCIhgCKG/IljR071hJmP/nkkwVzQFWKwPJkEeTQqFGj3OjRoy0nF8b6yTvrhx9+sH9jkCWogjD6xLsa4gmyhWT0EDUh6UF7XAOFUPPmzU0hlc+4Dm03RZg899xzpn4KzSuwIJWopNdUPjHGwpjoP2NBUYWqDOKnKQKL9fCBBx6w98rcuXNdixYtrCshgdXYO+fWW2+1EMx8FhJY9GfatGlG7O29996mhqJv4BkSWBB7m266qRFfEKFUqBSBFe3501FCIEkIiMBK0mzE3xcRWPFjqhaFQOIQyBqB9fnnn1u+k8mTJ9eEwGIHF2eJD3d2bNltp4Q6TgW76zgO3jiWn+NIcGxovvQ65+f+LjyOj20qGvFhXYxRiYr+NGUQK+y4UwVrjz32MMco1/iwJ2l+p06dzElprL9NXa/av8exQrGA2oE/pVq5BBbqBlQTqB5EYJU6CzpPCBRG4KWXXrKQMB9Ox3siHwFSaQILIg31kg8ZmzRpkikvp0yZYmHqqHsw8l6xttNfyBTC1y666CJTVeUjn0ICi6TvhAuG4/PvG8ga2oZoL8Z4p/Fe3XbbbU0VBcHllUuF2rn77rvdvffe69577z33z3/+03Xt2tVdfPHFDTm4Ggsh9AQW7x3yCRKyh3kCi3cpm1WEAuazffbZx22zzTZ5f+cJLHIPElZ62223WR/3339/9+GHH+YlsK666ioLHUTxxRgg70RgFXMH6VghkAwERGAlYx4q1QsRWJVCVu0KgQQhkDUCq1I5sKIqsCDQ+PDGCdp+++2t/DrhYTgf559/vlt11VUbZp9dZT6Ku3XrZuqAkECBzOBDmvCPI488suAdQxjJSSedVHT+DJISX3/99ZbQtzHjmDPPPNOcB5QDOA+5hhKA8RFWQnJeytaXQwZV6/HAUbzsssssFAfHhXwqhUJOmupTuQTWM888YwQW7YjAagpt/V4IFI8AJDHP+KBBg4y0QKHDBkGuVZrAYvOACoB+rUGVBJGSa+Tpmj59uoW58U7hPUJVRAqJ7Lfffgsc3xSBBRl21FFHWS4nQgHzbWDQDzYp8hFkfCv07NnT1GsQWBBkrJ/e/GYLiitv/Jv8fpBfXI9cYL6aYlQF1nXXXef+8Y9/NLTpCSyUUM8++2yDSq2YO8ITWLyDyZlJQnpyhPE3Gxr5FFiHHnqo4Yb6bf78+QohLAZwHSsEEoSACKwETUYFuiICqwKgqkkhkDQE+KglqSzGbiW5QtJs77//vttrr73sY78WIYQ4IxBSKJLYIcZhYieYXWv+HxI7fChDorCLzfE4Ft4gmEhiixNDKfhCBvmCkiDXuA7t+3CU3N+jlMKRY0e8MYO8gmQjsS05VVAI5NqLL75oqoDZs2dbWAVOBTlI2PFHwUUfcG4KhXugUONYHLtqGrlMyJMydOhQu1fY5fcFAIrtR0hg4WSCLfMe1cj1AoGFicCKipqOEwLFIcBzBuEPcUFepV133XWBBipNYIUXhIRBscqaQX+4dmiEsNFXwvUICYRAYSMkn+USWORYYt0l4TnvHvIskTuLdRolF2qiUEFFEnlyYHE8yeIhqcI1O8yBxe9Ino66yhtOId8SPuk5P/frKzm9IMX4P5sc5KrKJbB4V/Au8HbYYYfZmgxxdOONNxoBRhsov/bcc09LMk++MN4btM87yr9faYt3iv9Z7rvHE1iMmTbBh/eUP49E9azhKOW4Xj5jzji/VAtzYH388cf27pQJASFQeQREYFUe41peQQRWLdHXtYVAFRDgY5EPWeTwWBYILHJTQLTwQVgLAgscCUUgtIGEtfSBUuGErqBg4oPYGzvpfIDjRPCRzMc/H9xUPITMItSD80aMGFHwbihEYPmPf5yOfIYjQ7haU+YJLPoIMcXuM4ajhRPg85JwPUqzE1YxcuRIC2lEQcbPCIckYTBJzfORWISlQDxCejF+whWjhDficOBAQAKiaCjWQgILhR15aXAqcg0HElVCPrWGPzYksFC18Uz5ZMVR+iUCKwpKOkYIlI8A5AyhayRWR/maS5xXmsDincCaCFkCEQSBBWnNepxLYKFq5Wfz5s2zUDlyQkGc5LNcAov3zWmnneZuuukm17lzZ2uHcHAIJNY51hzeNRhrKfm4ILXo21lnnWVrdhjyznG5ObAgjFBYsVnC+sjazaYYY2RtJt8WRl9Y+1lzUTlRUTEksCCbqNL41ltvNQyNpPS0jbHRst122xkBx5ggyVhn/c+ff/55exfxvgRPlF4QdmzUMKbcfISewOIbiL7wbiIckL75pPmQWODOplSucS3yjfHeQ1XdVC6wfPPlCSz6S64uSDqZEBAClUdABFblMa7lFURg1RJ9XVsIVAEBPt4GDBjQEAaQBQKr1iGEftoI1Rg2bJh91JPDg5LlVJ5iJ92bJ30gh8hZwo4vDgM77BBdVKXig52KdoWsEIEFAYTzUEiBVSqBhcOF4gqFG7lbCG3BcJLYVcdJYQcftQDkHAQafaBsO/lQcNRybcyYMRaawk44DhEKidzkwfnGjzN0xx13WJLge+65J9I5YTshgUVIDs4duWG8kduLMukQiODFfBUKjQwJLEg4VHEQYlFNBFZUpHScECgPAUh5wsVYqyA6IHdCoqbSBBYqKkKGUdjmM5Q4kDOsPd5YN1mfyDPI+pLPcgks1L+Qc5BUbOhgbBRA8syYMcMUojfccIORTpBpu+++u4M04t0BmULoeu61cgksSB8UUmzakBwfIgaSDWKJtZkNJQyykNBBQu9QlbEZkktgofSl8h/XZOysqaFB9BB2SSijN+aQ9wb9Zw7pOz/jvcP3DT9jM4FwR2/knSRhO+H9vHtR4IIT10NVFoZF8h6DrOL40FB5k38Sso/w+XPPPbfoIiaewKJdsGNuZEJACFQeARFYlce4llcQgVVL9HVtIVAFBNj15EOVHVlMBNafQeeDFiKCj+0oObAIp+DDmzAJHBCUV2AM0YMqCQKLRLYQNhgqAD7w+YhGCccONB/43viQR8FEOfFCVojAaur2KURg0V+SHUOaQfBMmDDBdsXpC3micAg8MUNeLNRPOA8Y/6e0ODvwhHRgKJdwyI499lgju/JV5gMPn9OF86PuZuNo+twxOB2hk9LU+Pl9SGDhGFGBylf94vcQdajgMNRxOL1gkM9CAgv1Ac5YY7nLctsQgRVlxnSMECgfAdZY3nkQ6hDrrM0+oTqtx01gsRZC8ENcsUZC3PBOILcV+QIJF0dpBJEC8QJJhaKUDQ2MNRGyhTBtiCJIN8KNOS9UtOYSWBB1rGdsZPTt29cIKxS0vGfoC0YeMDZbWEdRpkFQofSiWmNufkTWed5pEGO+CiHh7azdrJOQ+6x9IenFGCGSWNMhnthsYMxUW82XA4tE9rwPIfcKJUgnBNKrlSDdWLcbM5RbhPBjvGsIg4eQ4p2O+pc2MPrGRlP4DgYDVHBelZXvOvwegjBXrdbUnSoCqymE9HshUBkERGBVBtektCoCKykzoX4IgQohAPnARyvye0wE1p+BLpbAIhwFQoldaCoVsTMM+QXGGAQWH/ueMPRXyyWwCGfAocCZqTaBhbNDiAaJ2SF4ChlOFaQU9w5503BQyJ+CmgECD0cLw+kilI6QwkIVq0ICi3APHJwohuLLY1kugYUzQz6axgzlAuqBfFZuEncRWFFmXMcIgXgQgKBhbSL0zauwfMtxE1goayClUNRCtrAesm7xc8iTXr16mcqTdwVrLpsZ5ET0ylveI6y1FNSA+IFE511DuFtY8TVfEncURRD7kCuQ6lyXtYawOTYayAGGOgryjPZZ/8k7RRh+7noNLrRH//IRWG3atHFXXHFFQy4n1NDnnHOOqZQ8gQWhheILayqJO8dAJqEK41uFPkGO+STuvINQkOW+L1DOgjV9zA0th2iCvAuVyfTPfwP5ewAlLuOBtOP6PhSS37PZQQ4uT9RxLGRjIWVcoTs2DCHkXoRMlAkBIVB5BERgVR7jWl5BBFYt0de1hUAVEOCjEMKBcAYsKwQWRBFKomrnwMK54GOanVxfbhvCg59jfLhDlIRJbvl5LoF16qmnmjqLMI+QwOKjO0xyy3UINUQZlM9QbhHOgROB8is0nAeUB/yhciLhcbzUMa6L8+TLuRPeSNgFO/U+Zwo7+6gAyOPFTj8KBo4jZBIHgbxR5GqhPDlqLz7uC+1QewKL6xN2yY55FGMnnbAUVF04gFHP822HCixUBThnpZoIrFKR03lCoDYIsAaSexBiBFWprwoYN4GF2goFEGsmSiryI7JuoWxlTfQqKr/e5kODTQ3UwCiHIKBYU1k3fUgzKi9IKfJYoRpiPDvvvLMpqlinZ82aZdeE9OKavBt4x5Cb6uGHH7Z8V75CIGt2GErt+wMu/197ZwJ2U/X2/7tEGigaVD9pMKRR9UvSIFKJJg0oGsyRMlR/Q9GAhESpJBo0jzQSFc0zzXMqQ0jzRFLyvz7rfdfzbsc5z5nP2eec731dLjzPPnuv9Vn77L3Wd90D3lukHYgUsNiw4F2EQOZzBRIOyGYOz0Y+x3sNsQgxjmvFE7B41/FcRtihf5wPL14vYJEzEQ8qb7wf+T/eZnhw8W5CLIxVPMR/jkqP9MeLWoiNeM8SBskmEu9y2uuNzSneccl6XEWOqxewuO8QBb1XXH6+DbqqCJQOAQlYxT3WErCKe3zVOxFwEzZCxJjoYsUgYJE4nRLp06dPz6iARQ4Scnqw81qe1apVy4WDsDOOMMjigUSwkYa4w4IFT6tEBSxCJ5ice2N3mIk6i4JohtcTCxgWTITDBY3qhrzEmbwjhLEwYMKP6BdpLLwIFcFDgHPRDl99iYULHlcIhvSJxYL/HRN/wgfZiSfHB7m9op3fC1gsmghR8Xm14n1FvYAVmVss3uf87yVgJUpKx4lA8REgXA3xCrGdZzW5Cnl+ZVLAImyub9++LkcfhTkQKQjR8wIWHkR4fvoNAl9xFsGKZyUeQ3iJBfM+MRKRAhZCC4IOeZk4Hx5chCvyWbx+2ZDgHcbmCZsNQQELz1nEe45F4KKKbjRDiOJYNj0iBSzeI3wOISyYv5AE5yRTJ/cjz2nehbxDeW/FE7DIXUW7YMO4sEFCcnneJ+RZjBSweC+xyeI3iHjn4E3G37EMTy3eS76aImwITyQnozc2gXjv8p7EuGcQ4/CMYyxTNS9gkX+LeUJQJEv1nPqcCIhAfAISsOIzKuQjJGAV8uip7SKQIAEmxr58czEIWExImUizu51JDyzEFXaR8VQqzwYPHux22dk9Li+RNxWOWDCwM56ogEXIB5NrQvZYDLHTjbcUE2zycDAJjqzeR6gMiwufH8onxyU5LQsLFhUY4hPeYuSsirSggIUHFosEnxsKEShWrhI8Adg5Z3HFZB/BiYVXpHkBC28AQlkOOeSQhO7eeAIW9zYCG55ZwfAOdukRGlmoMkbcK+V5YLH4C+70s3hjERPcgQ96YCEOspDD+yBRUwhhoqR0nAhkjgDiO+HS9erVMwQtxIRMClgIYz7HFHmwCEPG8CZCOKOSHc8ivGjxlOU5wvMWwQtvXULb2DjB6yho0Tyw2DDAg5W+RBOwCOPDe4pregGLdyUbKTxLEZa4Lvn+olm8EEI2bWgXwpK3a665xvUJry5EoERDCHm/4M3sE90j/PEOI2wwmgcWm3FcA4aEHfIuQSRkfBHRIo13L2F/cOL9w/+x2rVru/BMGPFOZfx4V/MexdOYc/MuQejCc4rjMMYwmZyHfMYLWPSJjaZY1SUzd7frTCIgAhCQgFXc94EErOIeX/VOBBwBBA0mbVgxCFj5rkJIrgwmxey6IxzFMnKfcCz5NSIFrL322st5MSHARObAQhgj5I/ddIQjJujk3WISfNlllxkeaCxKEFEw8qywUGIHm3PxeybrCGD9+vVzO+nxjAUV4hkLEybvc+fOdaIQiyHuHyoweRGL37MQQggjQTLhfbSLSk5U0Yq2OPICFrld6EuiFk/AGjt2rFv8ec8wf1485BBtWbh5YYp2smCMZiTah7k3PPxYLCHKeQsKWPQVzwq/WE2kPyyQECDxqmNs8XYrz3PAnxNRFa8E7gs8LmJ54yXSBh0jAqVGgBBCxBy+N4SqIUhkUsBCmCIvFAnXeY4iLiF0EG73xRdfuGcj4YWI9mxMYAgbPJcQyHmuIMREetDyjEAQ88UveG7w3CcskOeGF7B8UQ7eN2zosEFABT3eTXh7IdgR0of3Eu8HzhcrVyFti6xCGEzizvOQ905ws4B3D88mrgHfRAQsjuf5SjgiwhShkYTt+XxfQQELZrzTEJp86DpiEmwiNxloP+1lE4qNF87jC5AE73v6T2VFxDDekdwbhGrirR7MheU/wziRIJ9QzGTMC1i8ixDqaLdMBEQg+wQkYGWfcT6vIAErn/R1bRHIAQEmt+y4kkQWk4BlLoeIT17O5BbRBS+nRKoQBoeM0A/CQGIZAg/8mRxHCljs2BNyQb6T8pK4423GgsNXSPIeT/wduQhhIeTDU2gT3lt4ipEjpDwjfwuhHj6EhcUJoTZ4grFQQgzC02jGjBnuNBxL2Ae73uz4s6hh0cJCCS+2aPlIvIC1//77u4TChD4mYvEELPghYLHAiWbwZ1HiS72zwPMLwmjHI9yxK89ihQVOkHFQwGJ3nqTy3bp1S6Qb7hgSDyNg0eZEBCwWX9yXLNxYONEXCVgJ49aBIuAIIEjwXSbUjHyQhHEhlCAykRSd7yI5DBGgUjHCzhD3Z86c6Tx4fJidDyFEZOGZh7hDknXC5YICFu8gxBufw5DnD15OCO68J3z1xFghhLSZZxPiDkIJoW/B/FbkDkQo4hiehTyDy7PyBCzC6RCOgtUL+Rlh8jzX2CjDg8l7f8UKIeR9wKYImy9sBCHQB9vsBSwStPN7jsfTlvBEwhd5r3Hu4AaD7xPJ0n1Pr74AACAASURBVHknRBrnQkhEAGTMeN9zLsIRvWgFezZl8J7zwhfvAHJl8T6M5ulVHksvYCGAkUyfTQuZCIhA9glIwMo+43xeQQJWPunr2iKQIwIs7v0kuFQFLEIv2A3HqGwXTKbLvxEHkhWwEMGCFaLKG85EQwgjzxEpYBFyweKAkDfCI7wQ56tZMcEPVmwizI2FQqQ9//zzbkKOpxYLD/6wE054ImIJLJjwI0axA04ONUIFWVixc85OcqRQRW4rduGj7e57AYtwRgS7RHei4wlYtJnxC1acCvYVPr1793YLGgRFvJnKq4CIlwLfFY6NJhCyOMWjA+ESQS+WR1e0ewGuCFjca7EELMQqPLswQk8RD/FW8In9JWDl6KGpyxQVAcLVePbwDPOhXJkSsADF8xPvUrye8N7Ew5ZnL5sCBx98sHumIvaT84lnEL/HAwtRCo8wcgJ6b04EL7xU2UgIPoN4jvPMRgDjfIjsPsSZ559/F7CREHw287zjmYu4Roge7UhFwEJM59mPGBh87/EuQezxlXjZRMEbDObRBCzazjOZ8HY8oAjtjmyTF7DoB/2hb/QRUY8NJzZYYlUEJEwUQQ1Rio0X3okIU4Rw89zmvcl1OQfecr4yIJsyiFfkF6MYC/Mmnre0l8VwsuIVjL2ARTg/7zJELJkIiED2CUjAyj7jfF5BAlY+6evaIpAjAsWWAytWCCETe3Zpfa4LPM989cVvv/3WLV68MfllN5bJthe2khGwEJbYlWXBQi4OJvTeS8pfo7wk7ixW8HxasGBBUh5YCCv8YeHDTrcXbrwghNDhE6yTjP3xxx9fb3GAtwCeCAhTkcIPE3bvaUU/8B4jTM+XIOdzLISCxsScxQETfhZtiIWRlq0QwnhfoWASd7wTSBKM9xc779GSzZd3vkxWIeTa5LLBG4IQTYyFFPdrrHxjHCMBK96I6/ciEJ0A4jviM16leFpmSsDiGYN3F/kFMQQsni94aPKcRtjHk4oQNZ6tPE8J80MQ4VlECB6CFWI1YhZ5l/AwInQ8aDx7+TzvG8INCWOOZ4hE9BPPH5KYIz4htuGRTWg5oY88U4IW6YGFJy/vSTYKeG5F83oKfr68EEK8UNmA4ZmHZzBhlpE5GX14oe8/AhZ9RiAkwTwbDOWFQPq28LxGjKI9/M27GkEMQYqNCMQ17gneWbxLYdq0aVP3cXImIjyyoVPe8zgefy9gwYwwScRLmQiIQPYJSMDKPuN8XkECVj7p69oikCMCxSxgsShg55e8S34SipCFIVj5XWn+j2Dlw8KYADOJxcuFyTyhDIkKWOzuslghBBDhCqGMxQSCUdCYbMOeik6RHljkKGGHmgVGMiGE7LpTAhwjlIN2e2PCzWIILyKMyTlhLZHGbjmJ6FlYBUU9jmOC70uk838ELgRB7wFEPyIXMDD252HxFS2HSLoCFrllCMOJliC+vK9RUMCib7SdBRH5aPAwY/HEQioRj7BMCli0Ba8A/rCYxuAc9AyM1i8JWDl6aOoyRUeA5yLiFd89ciQhWBAGnm4IIeIOhSLw7OVcPFcRhxBcEGwQRR544AEXIsf3m2clXkT8H8GK9uAlhVcQf/OcIcwd8cMbGwgcS54+3jc893nfxTMqFr700kvuunhF8Y5j44R24b3FO/COO+5Yx6MqUsCK57FFGxDH2FjCeP/6in+RHli8OwnhwwuVd2DkJgLn4DlPmCd5yjDeeePGjXNsE/V45nNBAYuQRzYvGBNCLWFI23iPU6GQ9zDXwVOXHF+8E/A24/2QCQGL63Ov+WI68cZNvxcBEUiPgASs9PiF/dMSsMI+QmqfCGSAQCELWF44YcKL8X+SmUdLzOpRsSBAaOFvPFzIZ4HAxIQ9cgLMJJfFBzvUiQhY5DwKTq4R0FicILAQnhk0dlzxYOJ4dtxpA9WPWHiQp4SJPGEZLCAQ1qJZZAgh4gt/sKCwxP/pM5w8q1gClucYFK+oPMhCjHwphKnAg11oX8GQz1CpCZZM8Alz4ffsbJOcPOgNgIgVaV7AYgzYhSavSSLmQwjxmCNPDOEmyVhQwIKPDzvxYaNe1OLn9BkRMJYFBSyOZzFEdchEjHbgZYH3QTomASsdevpsKRNAjCeEj6TqQcuEgIUQhAcuogfetQgiPB8Qi3hWIJwHw/p4dvN/L1gTyobY5EPlIt9TeG3xziDUkIqKvNeCRSfSGVfeR37TArGGDRLajQjHJk0iAla0vFP0D5GK90M04z3l3++Id3igeoGP9wR/6Cdt8O+8ZPoZFLD4HEx5X+MVx7URsPCUQ3D0Rl8ZL+ZM3C/MNTIhYMGCoirBSrfJ9CXWsZ4hAifvFjzVeEezMSITgVImIAGruEdfAlZxj696JwKOQCEIWExcmfQT6oeYQigVE2sEAsQqX70pckiZGBKqR8Jcb+yaUs47kUlcsgIW1yB/BzvoLDbY0ScRMDkuWFzgTePD8sgbRbsQt1jUIJAQXkJf8Z5CkCGs4fjjj3f5MaJZUMBiYs0k3C98gt5lQdGIRQHiFJUCCTlJJNyCNiJg0UYfRkFfGjZsWNYsdqeZJDM2MKBteAmQfyteOIsXsDgZO+EkFU7ESK4MVxZ43AuJJn/35w4KWIhf5DmBP4sWH+IDKxYChNOcf/7563igBdsYFLDYSWfRxW5+NGOByn2AuMmCifw1Pkl+Iv2OdYwErHTo6bOlTgCPVJ7Fwe9iugJWLKZ4OeGFW16lWj7LO4T3BBVfoxmh2YRtE/rGezCZvHupjDebKlSjZcOC90EiAhabNFTbJYTfv6t5jyM+BRO+E97OOfHSQiRDbOF95d9r9I1NE5LBUx0wHWPzCAGMayJEEa5I2D/PbULeedbzLiCxPs9/inuw0cQGDb/DE4y+My9J1XwIIc9tzp1M1dpo14QV7zTESzjiLcdcxBsebddcc43zMJSJQCkTkIBV3KMvAau4xzcvvWMxyI4VE5LgxCUvjdFFHQGEBsKlsLAkcWcihmDixR4EDkQFJp1MINmN9iEEfhjZJWZCyQTOV51DSKCMefv27VMa7VQELHJmMTFlEk5SbgQs+kGFJzysyLlB7gx+z8474QiINogahBGws4znEosEFjexQggR7pigEjrCcXyGhQwCHSLSpEmTykIkgwIYwhOeBhzHdRHz4u1gJyJgsahgbAjFITEuRngkngbxzh8UsEiQy/USMURMeNN3zlFe1cdo54smYHEcYY6Ejy5fvtyFkMCM7wbXIBw1mgUFLBZnLCjxUvBGWxljnoF4mLFwYhEbGaaZSL9jHSMBKx16+mypE0CwQCB5/fXXy1BkS8Dy716eMeUZoYT+/RztON4jiBI8lwgxxIsom8Z7l/cN71s8enyi+ESuyQaU9wyjnSwi/QYKIhFCPh5kvP99P/CCwiuO6yHAkKg9E8Y16AfPX85N4nyM5zTvMMQyhExERrznELW8By6fIcSfTaN4VRvLa2swiTvnx+srVeM+YkMKwcq/FyPPRVvJx5ZISHyq7dDnRKAQCEjAKoRRSr2NErBSZ6dPRiHAxAcXenbOyLdAwlRZfgkwYcfDx+dCyqWAhXjgw9mgQJJaBByMXBgIK5GhgEyWgx5DeAD5JLMksUUMYvFBDiOMCS9CwqGHHpoS6EwIWHjZIMbRNiapCLeIIvyckAEm0ghP7PwiwCF2MUFmLBCoYglYCGMIc3weJrDh37HyJCGW8TuO5Roci3caIlN5oXF8hkUcomDQAwvhCE8rSo5HS/gOcBYjeEgxRpFVCYMD4gUsFgSIXTBiUUFCXnbHEXrwRGBhgQBOaXZEJQRN72mGxxRVtJKxWAJW8BxUvMIzC4GOcYslvAcFLD5PGCUeBIwhCyEWYbE8BZNpc3nH4mnHAgXvQha+fKfgFmmMGc/jRIXCTLUv2fP4fGqMk18oc4/4+5fz+TAj7htfddJ7bCR7PR0vAnhE4h3ri25kU8AS7fUJ8L5GjCvvnVQs3LyARX94TgdzVsbrI5sh7733nhOreD6S6sAXqIn1WQlY8ajq96VCQAJWcY+0BKziHt+c9o6FBTtWCAvsGErAyin+mBdjXFjwkqMDy7aAxcKZPxhhBb7CGv9nNzRaDggW5T4EjUTrwV1KQisiBYVYVQhTIZ6ugMWkEvED0ZaKf+wqI+jg+YT4gvcUghuiEkmD2RllQkoFOvjAKpaABbuBAwc6ZuSzYuxIFExYBudG6PEebITYEZZHyB0eUVyD4xCIyENC/g0YB0MN8aLiu0r+DEImmCQHBSzP0wuGQTHS/w7xiST69J9rxCpt7gUsjkHoQ1jDew5vLKpxIbAiQlICHc8lGOJVRol2PPPgSh6Ynj17JjXMiQhYiZ4wUsBiLGnznDlzXOhrLm3fffd1ngqIZ8E8Zb4NtAdRDe+GMBuCIYsyhF/uDUQsPCO4f1m8cc8hMGJ4NyIU431IfrliTIjM94nvNt8JRH76j0jPWPI77kFEcMRmBGO+37LkCfBO5DmJScBKnp8+kRiBZAUsntts6vGHzWA2sZIJYZSAldi46KjiJyABq7jHWAJWcY9vTnvHC5ewGcKaWFRLwMop/nIvls0cWHh5sIj2lf+YcLEYxRBngnma+BleFJHeUuTaoCoehsASWdY7snNhErDYRSb/FQnZ8SYhRxSCi+8DC3SEFzyumJBSXYocIyzQWZwi+EQKWHicEELJAhZvARhzPtjAmfA3vBvJSeW9seDOYpbFLwtczsFxJA5HCII7ohohKN7rBQ84hCV/TkQ2L2DRXpK0Iy7QXgQuL2Cxk8z52E3212dxTXgDAmQ0T6xUqxAiXsCQUBZKywcrJCbyDcumgJXI9XVM+QQQZ3hfIMwgUnLv4F3F/eu9M31VS0Ji+TnfCUTtZEKbCmUcfK48cuQRNsb3GWGaZyqFHnjOIEjznoVTjx49CqVrOWsnwi7vPJ4VPuTYV5nlGcczi/yDPucU9+BNN91UtsmTs4bqQkVPIBEBi3cscyi+63jxcq/yTGSDKtqmUXnQJGAV/S2lDiZIQAJWgqAK9DAJWAU6cGFrNi9ZEnjiWYEXFiYBKzyjlAkBi4Wjz3uEuIHXyYIFC5wQQ4gaYkvQfL4qFqTNmjUr8wRBhImV+DpRYvkWsJhYIkaxwB46dKgTofBuwnMMkSVYGpyQyU6dOrkcJ3hqESpHMnHyhPhFO2FowST0TGa7du1aFm5APi1vTHIRoCKrVLFzS1gG48R4R3qtsegn5xZiGd5PGOIWHl54evEdZnFH2COhdJRBJzyQ6+HpwjWPOOIIl0ydkFTGF1GK45hw83m8/OhLtHxYCHKcG/EL76pcGd5ciALkJ/NJ3FO9dtADi1xgJMpFuCOMD2EBoZHvgw95S/U68T6HcEP4IAZ3xpvvGX/4P+PFPepzbzFWXmjks8HccnwGwZOfR1bb4r4LCknBdiEmZSIpfby+6vcikCwBnlM8XxH0eSZzj+Nxhaco7x+e2zyLg6b5SrKUdXwiBCIFLJLc8y7mHcncgE0f3t3MoZYtW5bIKcs9hs1ANrb4GxHMV1Nkk43nOZuK3nPV5+hMpMiLv6gPYfSbYGk3WCcQgSwRkICVJbAhOa0ErJAMRKE3g5cioYN4anjThDAco8okBi8WH2aUbAjhSy+95LyoWJiPGzfOdYpFLfmRfCJ131MW80ycmBAddNBBrhw3iwdCgvyCOxNU8i1g+T4gChDax+QQcYS8RIT+BA2x4NNPP3VhKl7YQsTC04lQKJKB4xkVDAVCdLnzzjvLktwyZt4QDhGYIisscg4S5CKyULY8Mqk9Ag7XOuGEE8o8sDgnx1500UXO4wuhkT4x6eX/CF6MKYITn0W8CopzfB5PsBtuuMGFIcIiloCViXFP5RwUMCDMk3xamRSwGE8EPvrM848xJtTj3nvvdd8LKmx5z6FU2h3rMwhNVMvC2xXju8niHBGVxTmLI8YLTz/yiWHcPwjMviw89583vqvcE9zDd9xxxzqX5ZnO9z74XPcHUM0rVuXMTPY33XMh6CEwItrGKjRA0QWeZwh5LO4Qm+GMeBsMecazB86EjpI/CZGYsUYgJFST7xifRdjH8P5B9MezjO+0LLwENF8J79gUcsuCAhbPDQrO8A5nnsBmEs/WTBf5YJOIDTDEJt4NvCOoSIznO5tWvA95F7DpzLHJFFui8AnP1Gh5FwtpnPAU513pvd14bvP+hhne7sx3GBfeG8yJSH/BXCiy2ALjx7jirc45s11goZAY57utErDyPQLZvb4ErOzyLYmz8+CePn26DR8+3IkWJDHmwa8JYTiGn5cvO88IDH4xG5lo2udR4vdMrnxyW/5P6WkfHsj/I8PDGGcmaX7BRphLsmFeyZIKi4CVbLvDejzfX3JrIYKRmwuPLAQNwgYTzTNEmCTiFsJZmEK7EBMmTJjg0Ddt2tSFX6VqQQ8sJrOEIHkhKXhOFgzXXnutE5F80t7gdyzV6/M5VSFMjh5jgbAULAYReQYEfvLXsRBhgcJiDw9HhC1C+bzxrOPnJAAnhA9hnvHF+5J8Snhj4v3DM5TxpugEHhd8h7Kd3D85KvGPRvRjgUfobqTxnZo/f74TRfEawXsUUR1jQYd3Bu8A8pV5UQ9RnHcRoh7PCRbW+bbgd1LzlXyPRnFePyhgFWcPC7NXbNrx7MLzDUGO7z+bFTyn8GRn85X3PWsaNiF5l7OBx3FBY8OKeQXCJOdkXlBsxqYN+SnZ5EHgI/8m71XEOpgwJ2GDkM0uP9/p2LGj28yDLf9mTcF7g3cK5+Jv3rORxqYuzNlMSteoXE17aCfe5cH8r+meW5/PPwEJWPkfg4JuARNSwsFYrLH7MGbMGPfg5+GkCWE4hhZvKUI7WXBhPNSDnhZ4CDz00EPu5YORODmYeJ3FF4sThCsWJiQlD+7Y7bPPPm63KpcmASuXtHUtTyAoYCF2ED6JmBHLmNQhgmAIIYQ1+SqcqVKVgJUqOX0uGQKIT4Ta4WkYaV64YrHHwoAFB4s+DOELTzfeFXxfELTwvsUbkXcRVTEJP6UwRD6NhRi5Cn2BALwU8U6J1t98trO8a+PVR/gZi+by3sGMI16ifoyS7c/y5cvdglILwGTJmdvc8x6vLKTx1ET8DW4KJn9WfUIEckeAuT8bD3ioIVzxrOFZznMeT0KeC4hbeCz7+c6RRx7pCvD4fMisKXiOIAay8cPffuM72BOK+ODdl4lNcKIDaJMErNzdK7m8kgSsXNIuwmsxgUXcYHJ63XXXuXwTe+21lwSsEI01OyDsDvXu3du1Cg8CX/GP//NCYrHic+QQRoYo5Y0XFzmP2IXxuZ6SyZmQDRQSsLJBVeeMRyAoYBHyOXLkSOvSpUu8j7nfM/nDyyfZKoqRJ5eAlRBuHSQC5RJgAYVnAMUvMBY5eFQOGjQotOR4V+Mx4jeb8G7Ds49NKZLQR4aV+44Q1k2uJbwQUzGEeM5NjkO8L8ozxBoWoWx0xTK8MUhNgHcfHoth8thNhU95nwkKWMyV8XbG+5CFPt4mLPwzbSRyj1aZNtPXSed8CMiIxwiwiBWIIITh837DcxUhnHlepCGMcO/4XFyJtoF5rC88k+hndFxxEJCAVRzjGNkLCVjFOa456RWLORZjVEeiWhJlzck3IwErJ/jXuwhCFbusCFFMjthdZpLOz1988UW3++GNCUOw0l/jxo3Lcibh3uvDQfLTk/hXlYAVn5GOyDyBoIDFLiKJ28mLlKjxrGzTpk3Z4Uyo8XBkIyDRPCgSsBKlreNEIDaBSAGLIxs0aODy+VFZls2aXBmCFN6cFJsIGuEvkydPLttc4t2O6IFXQdDwdkMUwfs9mnXo0MGF88QyNrXwsvCiABtUCAqR1yFMvF+/fuViIU8mFYUJqe3WrVtUD1Xmi4RbEa57zz33ON7pGKFJVJXs1atXTC8zwsU4hvBVNvN4fufCvIBFAnU2Es8++2x3WTxYCFnDK5d5Gx7yiDbcC5GVm5Np54477uhC5o877rhkPpbzY7mXKfhEDkHuX0QGxpH7jtyLzFfJOxVpiLBECST6vvSfx7MSoZQ1Sj6NiAf6xUZxtGrNsdrGnB5hGGESQZkIF55R5DAl72xQvMaTlLyWPucjzxHuMdJCIGbzfeN3jAFzf9jznQyuEfiuJCrmt2vXzomN3L9hNPpHTlflJwvj6KTeJglYqbMr+U+yWzlixAgjUR67Srw4JWDl7rZg58q76HJVJuQkBcWbin+TwDlaNTSqpw0ZMmSdWH5CECKTj+euJ8lfSQJW8sz0ifQJZFLAQkQ+66yznAcXydAJLeT87C7zdyyTgJX+OOoMIhBNwGJByMKPKm65zGWDVxXiS+Q7GAGJOZXP1YWwRD5LFqJBYzGKsBTLO8oLWCzgyTtD32bOnFnmyUUlWs4xbNgwd1rEHXJfsjjm+t4TJp6AhfDC8wwxDmGfVAXRPIG8gMUxCFgsomMZIapsFJRntJGqkohTsRaphFHi7YRYQhsRk3JhXsDieT969Gg3zpEGN4Qs7knY4S1HJeJUjHuIzUsKfcjCRwDhjfd7sGhPIq30YcDM3xGjfDGdaOG9iLWEC3uBjJQu3GM8Pwg7JgUIv/NFXXjuEeIX9GojjA+PuESMRPcIr8Hqxol8LlfH0FfWqckIhrlqm66TOgEJWKmzK+lP8nJlt5AEtX369DEmNjwEJWBl97Yg98ijjz7qXkDszBJC4I2XES8gPK6CxmScCSNjhVFZjglprIpc2e1BZs4uASszHHWW5AhkUsBiocFChd1TJrV8b1mwkhuICSoLSF9FMNhKCVjJjZmOFoFoBKIJWByHdwLv2Mhqq9mkOHHiROfNjsDUqVMnlxQ6mrEAxXMjUsDiWLyoYoXieQELcYdiLogq5Cz1Hi6IRCzuvGiHFz1hfix6yY/pvYbiCVgslJmb8Dk8gPAKi5ZuwAtYFPzA8wjvpFjmvU7K48+z0y++8T6CDxt8eHmRf41248GCUIcRCok3bC7MC1hwQSQg/1t5Rj+YX3vxgDD1ZMQsREw8cHKdlzQXLHUNERABEfAEJGDpXkiJAOV4KcHLYgr3VBR4TAJWSjjX+xB5JLwb+XPPPed25TAWurggMynkb4ydPXZMmcCSTJcJMP/2RtJQdv18EneS1RZaRaxIQBKwMnOf6SzJEcikgEVIwzPPPBO1HDliNOIVi2w8XQk1YQHGzyVgJTdmOloEohEICli8L0888URXhZJcUoTAJRo+kwm6XsAiHxTCSqa9v7yAhUiFsEGYFh6f3mPCeyf4TS6ELnIGYYQ3+9CgeAIWAryvHgZPhEA/b+F6/A7h3gtYeKDefPPN5Yb20Ea8pah2jTcXz0PCzpgDUQEN8YuwbLyb+DkeKYiP5NdCBKK/XJu+sVnAMzQfAhaeX2z24imWjBFWR8J35oBUN2UTs7wwOPJfIRxyL8tEQAREoFgJSMAq1pHNYr9uvfVWu/DCC93Exr+UvWsmCzx+j9BCTPYZZ5xhTJ6ileLOYhML8tR4VPkKZbjVkxgfY0cuWLGGSVswQSqTNRJbsrBlIs6ELtJVlsUvIZ6YBKx1bw/u2VNPPdWJCQiBTz31VOhzgBXkDV4Ejc6VgBVExXOWAhlDhw51IcESsIrgRlIX8k4gKGAhqpDMHU8e8jbhwXPLLbesU8wkmw32AhbFUij0kGnzAha5aiIrf1FBGm8ljLAmvJaCRr4h8uZg8QQsKlJTiRrjXUoeLIy5DO9XRHvC20g5wXXw9EKYiZcYnvAp5pTMb84880wn8hFKhXcYecvwbIId4pUXsBC4eF6GRcBCFGTePHz48JSGF4ZwwDOOezSady4nloCVEl59SAREoMAISMAqsAELQ3PJscRLMpGEfQgpuE6T4J2QGNn/EUAo6d69e9kP8KiKVVmFCbb3mmIixOQtUWMSh6u+r7YkAWtdchKwEr2TdFw+BCyosygk/EUClu5BEcgMgaCAhbDyxBNPONEFkQeBBaHngQceyEmyby9gIZzhkXT66ac7byISrzNHYKMwljEXY+7ARhbhdtHszTffdP3DqyyyPD0ePYg8bJLhdRVZFY/8XLQHQ+DiPHh6RzMEpvISkBPiiFcWCZW9UIYIxQZSIob3FJuicKEt5PGi6Awe6ySwR4jbfvvtXSgluX44HiELwYewbC/E5cMDC686kpZzr6Vj9Il7g3BNNovxprvkkkvKTikBKx26+qwIiEChEJCAVSgjFbJ2+up2uNqT+BOhiokLky8ShPNvJhIkHGUCxks1GNYWsu5kvDk+6SqTDO9GT26bO++8s+xaVAAJClZMRODl80EgOvkEqOQX4/epGG0hJ4KvfiYBa12KhD0wgaa6kzywUrnDSuczmRSw8IjkniNZajxDwGLxyTNDHljxaOn3IhCfQFDA4ruI5xOeQFTs5X2AmIRYQ3hdti2YA4t3Ph7rvLeZR5GrkgTJL7zwwjqe2ORSYr6AKIN3DvMGwuvwgvLGphehfMxDeHZEzsH8PAXxin+T+JkcWwhhCEJLly51nlOIP95atGjhvKYik1CTUoK2MxckPyp9wkiBgHcUhrfUlClTXCgc3kgYG3KITDAnfxX/j5VsOZqAxdwSAatVq1ZOwCIxPHnM4OLzgSLMwdKH3uVDwGLTEVGtPDEy2fuMMcXYVCZFxPz5811lR0IVk9nkTPa6Ol4EREAE8k1AAla+R6DAr8+EIjjZIF5/n332ccmIyefw7LPPlkTlB9zb/WSCIcV1HnEKl292PzHPKjhBQ9yj6hHG5JJdXz/BgWsmqmZwXSa/TEwxCVjrfumCAhYTXfJHICrAnglwISe7L/DHS+iaHxSwuFeo0kWOuUSN0BcvJJeXAyvyfBKwEiWs40QgMQKxBCxCdvEWR4BBZLnsssuy/g7wAtYhhxziPKURkoKGAPXxxx+7+YQ3BCvmC8wvfHgd1fyCcwb6gtdPsBox52BOgOjBphqFJJi3MS/Bo4nfff7559ajwcKWewAAIABJREFURw9XmOfoo4+2/v37u4IxeP507NjRiXqR78WuXbs6jyDaRXVkisVgCGCcA68oNjxhSyhiUMCi/VyX9pP8nesFE9Izt+IPcyPvgYVAM2DAACeGIZjxb7zJXnnlFTfHQcAi3BCjzVTla926dd5yYGVDwAreI/Dzc8xMzBsT+xbpKBEQARHIDwEJWPnhXrRXDSZxR8Bi8sIkqFiMiaCv9kcOAj+hZIFJuAHGxCs4gWB3sXbt2s51n0Uvu4xbbrllzpAw8Tv22GOdtwcmAWtd9MEQQv+bc889103Smcj7SXDOBizPF+L+JTcJYSksGAgVJp8dHgksEPgO8HNCg9lRJjQiMiwlz13I2uW5V9q2besqebHgY9FGTpdELR0BSyGEiVLWcSIQn0C0EEKfiwnxg7QHVOdDUPKic/yzpnZEqjmw2GDhT7RKf9FaQugeIg7JzUl6vmzZMnvsscdcDimeZy+99JLLbXrOOee4fJx4JOO9TfLz8oxNIBKy422OpzheVjwn2cTj34hheG4hkGE+iTtzQ/hSKZm5Il5SvH/wgsOLCmOcCJHDkwsvI7zM/Hn4PecIijf0qUaNGk7w23PPPd056DNhkAhd+UrizvsSj7ZMemCldrfpUyIgAiJQ+AQkYBX+GIamB0wMqEiIQIJLOm75V199tZs8FOJLm4khu5TemIwx2cNNG5d6wguY4GIs7n2IX5cuXdwEyhs/hwHlnPNh9IMJOTuXmASsdUchmoCVj3EKyzX5ruIZSLJYhFa8KAnP4Ps8d+5ct8igmhSLA3baCXcJ3u9h6Uc22oGnAPlxFi1a5BZ3s2bNciEriZoErERJ6TgRyC6B8gQsrow4fccdd7iqhHjwJCoSpdLqoICFBzDzi6DXVKxz4lmNFxVeYr76X3nXR2TyFY0Rith8iLbByLXxtsIQfsg5VZ7xHuAd4asa8q7gGYkIxnyD/jAHQgzDvIDVsGFDx5j3zPnnn++8n9n8CwpYbJoQPs2cEhGL9zUbh7SbzxGeSMgjVQaZg44bN87lMeMziGfRLB8hhBKwUvlm6DMiIAIiEJ2ABCzdGWkTYNLAzh4TCyrakPTT51ZggjRy5EjnAUQi8kIwdu5YqJJ3Iuh9Q58QrJg8scgn8Sm7lhg7lri+YwhVYQo7o92EEfjdZQlY696FTIx79+7tdoFlIpAoAQlYiZLScSIQPgLxBCzyKuFFhJBD+Fw2KykHBSwqjiIaUTk4njHnIrywZ8+eduONN8Y73IXwIfCQM4scpXiOk0sr0vCk79Wrl/txIgIWIhRzIMKpmWsgYBGWSF4s5n5s4pH/86ijjnLn9AIWghp5U5lH4flFmB+sEcS8BxbH015ENY7hXY3QhSB09913W5MmTVwYJaIVXsONGjVy+bkIjfTz0GD/mLuR1D0Zz9m4YMs5gDBP7iU4I8yRYkMmAiIgAiKQHgEJWOnx06fNnNjTvHlzt8vGRAR39KBRHYcdQl/JJgzQcHnHkwTvJDypmAh6u+KKK1xfCIvC68rvbJKj6tBDD3VVZOhTpKdVGPoVrQ30cfz48davXz/3awlY61Ni4jtixIj1fsFknMk8+cOYJLPryz3ATjA/86W6mZgGq3ISfkjYHaFmfD/Caix+uM/pF/d8oqGtLP74PgTzlMS69zjWL1AiE/RyXe+d6b+TJCn3iYsT5cY5WKzkkrUErERHR8eJQPgIxBOwEK54ZyKS8P5E9MiGJzntOPvss41qfHgTIe4g9PDe4R3Cz6J5f9E+0hbwzCM0zlfYK480n2Gu9t5777lnN3MbPJ54D/A3+at4jjIfQjBinsN7EW+0WDZt2jTr3LmzO553IBuVvBsQ1EiMTxtJocDfVAzEoglY/Jy5Cp5TCHIkI4+0WFUIP/jgAyc28h5nM5V8U/zxHvL+PLSLeSjhk7nyiPcCFnyZe+ExJxMBERABEUiPgASs9Pjp0/876aDaDZM7JgjkIAgaO09Un8nG5C/RAWBxHiwPjRs9eSCYMLFLyA4fxuRrhx12cAtoXOLnzZvnJlMYk0hyQURW30m0Dfk6jkkfLvY+qaoErMRHAjGWEAbuXybGCC6EzrEA4GcsAriHmEBznDcWHoTVwT2Y3D/xK+fmSPKPsKBhso+nJBWs4olStIzQOfJkxfOqZAFBmAvJiVnQUH7dC19wIfSWHXPs9ttvdyEnVKNCHBo1alRZFal4NKhEhdhMGEm2jIUiOUz8wgovA7wl4jEItkchhNkaHZ1XBJIjEE/A4mwUaUCc4TtPGB05LDNtiC5eTIkUsMgbRV4p7+kdvDbPOp6niE+JClh4xyPKUa2PZz6bdfXq1XPiF/Mbcn3xDCbR+vLly907js2ZWOGJvPPwPGcuhfB00UUXOQ8pPMo4v58PMoe66qqryry9YglY8djGErDY/CDknXfA4Ycf7q5L+GCnTp3WOSUbSwiSiEq5Mi9gwRBBj/bJREAEREAE0iMgASs9fvp0CAkwMfWVeVhwYrhws9j0FnQtR2yg/DMTOEpOUxUwmIS90Cu6IBRQbhtvIEwCVghv2jw1KVhFNLKiaHlNSuXYaOEcXMN/v4K/52exjs8TKueVQOgK3hLekn02SMDK1+jpuiKwLoFEBCw+QWgaQj85JCnAguieSfMCFht9Q4cOtZYtW5Z5YCUiYLH5RrsI4Ytn9BkPYjZWMMQnKiYHn2OILDznsHgCFhUAyQ+GyHfxxRc74YjQPUIDfQ4tzoMXFwKXt0wKWHjSs7lEW32aBK6DlxWVCSONXFvDhg2LGjoZj18qv/cClnJgpUJPnxEBERCB6AQkYOnOKFgCTPyCXi/k32IyE03AYtJZq1atsr6SxBO3doyfM6nLZpLWfELGQ4hEtFRVwiRg5XM0dO1SJiABq5RHX30PE4FEBSw8kBCvCI/DizuTXliI9HiA46GKJxRCDNfwIYSJCFjk5GTek4hRhIZ5QDC/Fv0Jesczp2JulYiAxTFUN2YD0BexIackXkZ4r2MUubj11ltdyL23TAhYeKUdeeSRrqgOubHwhPVVB7kOObeibYLgCdW/f39X2TAXJgErF5R1DREQgVIjIAGr1Ea8gPvLhBP3dtzFmeQxsSQ8yRvhXog13tjRxKMKI7koORK8kcCUfA+lYDAhPMvnsZCAVQqjrj6GkYAErDCOitpUigQSFbBgw7uT0DOqKuPphKdRJoywZPJCIVyRm4lk6NkUsPAk69u3r0vzwKYeaRL69Onjcl1hCD5UncWbirQL8TywojHA251k7CRxx8ixiGDVo0ePssOTFbAIl0QQo30kfUf0w/zmI/M85oKEU3ojTUQsAQvPLPqYC5OAlQvKuoYIiECpEZCAVWojXgD9JRmoT6qO+ELpZSZFuMqTawEBi0qB3phMMkki5xCTM28kpCY3RKkbDJkwsuuIFZuAxc4rwgD5QGQiEGYCErDCPDpqWykRSEbAYrOMDTA8fSZPnmzt27d3+RDTNfJqEYLHZhthe3iCBwUs8uwRUkgKgLfeesvNgagOSB5OQvKonMt8adKkSa6oTDwjtA9hB+OaCE3ec8p/Fo8uPLXIX5isgEXeLLzbX3nlFZdHlNBERDryHJKnsGnTps67jHyIl156qRMGqQZYXn7URYsWuTBOn/ycHI0U+iBfF/kSjzjiiKhVnwnZo5I04hxiFaxhiOc9z+FguGE8bun8XgJWOvT0WREQARGITkACVonfGVTgy4Xtuuuuxh+SvSNAlWc//PCD22XD2EHDs4qfeSORerBCDcmkyeXApEYlitcnW+w5sAgjuOWWW1zFJpkIhJmABKwwj47aVkoEkhGw2FDDg4hk5yRaJzwt0YqtsZgihhGaSKJ4xBjeYYS3BQUs/1mELEL7CBVk/kP4HJt6JC1HJCLfEwnU41lQwCLML1ZyduZozz///DoCFl5bMGMeF80obIJ3GnM8RLHu3bu7tiFW+RBHCuTQF86FQMaGY8OGDV1SdbysCDOMFLMIEcTDik1L3vG87+GFIOY9x6K1h1BJrk17P//8c3vmmWecGAg7znfllVeWpZGIxy2d30vASoeePisCIiACErB0D0QQwDOnWrVqOeFC9RfyEzCJwDW9PGNHkTwKkcYOKLki8LSpX79+2a/Z6YvcRcxJpwrkIsUuYDEpRhho3LhxgYyImlmqBNIVsHhmd+vWrUzgL1WO6rcIpEsgGQGLa+GFhccPwhOePOlulvE9xhsKD3ISp+OdhAUFrN133915KUXLz0klwbFjxzoPLAS2yDkQ3loIbXiteyNf1SeffOL+27p1azf/GzhwoDsPnlIITuSzoggOeTPx9KLPiEqEBDIvQ/zBa4wNQ2+0GXEM8QphDGGOkEhC+vAsQ3zDW8yHFfI5rkUaBzzZ8DzjmiSUpx9cjyq0GP3jdzAnFQTHckzQA27cuHG2cOFC15ftttvOPR+pqIsQh6cZ7SWpPGGgGDyPPvpoV9gnkznNot2TXsBCOMMTbMiQIeneuvq8CIiACJQ8AXlglfgtgAdWOsksmVwwOSGnVCpG7gc/ccKTyhtu5kycgkYyUCYnsuQIFLuA5cuAsyMrE4EwE/ACFos3FnwUnkjEk2PMmDFucYZHKl4gwXx+Ye6v2iYCYSWQrIBFPwjlI0fU/fffv978JNl+8r1HXLnnnnucKOMNIQbvJcQfcjXhXR4tXBGBavjw4c5riflSpCFq4YXE+Qmzj/WcIZTu/fffL8sfylwOkW7JkiVlyd4R2fB+IiQPD7AHHnjAeT/hRUVqAoQrrkcaB/JsBT3kaRdzPOZ6HIMwxvXwyvr666+dF5k3novMAwmPRAArz+BD+CH5sEiwz1wUsQhxC2+taBulXB++GMIVz9IDDjgg2aFL6ngvYOHtxgYuKRxkIiACIiAC6RGQgJUev4L/NC998hakakw+KMmcqvcLO5BMlshr0LNnz7JmsLsXy7091baW6ueKXcBq0qSJ2931VSVLdZzV7/ATCHpg4UXKBkIiHgASsMI/tmphYRFIRcDCmwkPcLxp8IBKx4YOHerOhfiEcOON9zXCEGI1HlLlJYzHw8h7MUW2BW9NvK0QlMgTVbdu3aSay2dnz57tPoPQRsJ3+s98DXGJ637wwQf26KOPutDC5s2bOy/7eJuM9I08WwhwfJb/e0OoIwwRISxeonz6x2cRhfBU23bbbeP2D8Gsd+/ebs46ePBg5w0V7zpxTxrnAIUQpktQnxcBERCB9QlIwNJdkTYBJlrBCVgyJwxWiUn1HMlcrxSPLXYBi53gadOmrbOLXYrjrD6Hn0AmQghZrJEvRiYCIpA6gVQELHJxIgQh4pA0nYTuqVo686ZkrpnOdSLnZ/7/fq6W7vwtWpXAZOeByfaPjdKJEye6cES806gCmU2TgJVNujq3CIhAqRKQgFWqI69+lwwBCVglM9TqaMgJZELAIpn0hAkTQt5TNU8Ewk0gKGDhAe69jKjMF8uonIdnEt4/eO7UrFnTRowYEbUKXrh7H7t19IuwQvJOwYQk6OS+wlMf4c4boXeE6uFJ5Y18pCS5j2akmvj++++dl1Y+jWTzpKdYunSpkTurU6dOWR0/CVj5HG1dWwREoFgJSMAq1pFVv0TgfwmwQ0neDpKWYuRgIGdFIdurr77qEvpj8sAq5JEsrbZnQsAiZ+GwYcNKC5x6KwIZJhAUsPypEbKiJUz3vyeXU6TXUbZD0DLc7binQ4RCZKLKYZUqVVzuKwQsvM+CFaRJYk/ydjh6g120fFz8ns8T8kfOynwaubN8NWzyfeGBVd6Yx2vrCSec4MRMNgofe+wxlzCefGMNGjSwXr162fTp010+rurVqzvRLLLKYrzz6/ciIAIiIALrE5CApbtCBIqcAHnOSBh97733SsAq8rFW98JNIChgUU6eqmDBiqqxWh/MgcX3uF27duHuqFonAiEnQB4mKtURfh6ZzyoyVC5aV/DCCpoPfYsMrwuGxPnPBH/Gv/l58GfRQutCjrNkm8e4+bFjHH3CfX7G3Msb/0cYJG+YTAREQAREID0CErDS46dPi0DoCTCpmjRpUlmSfHlghX7I1MAiJRCsQkg5esq9J5J82AtYfJcRr6ieJRMBEUifwDfffGNTpkxZ50Rz5841CsmUJy5fddVVZeFzeNyQKJ0wOyoVYlTHI/yOhOTe7r77bueFw3eYann8G48kcmk1bdrUvvrqK/c3ideD4Xrp9zLcZ0Do4dmG9xdGWCI/Q/SBE95N3nOJ4/g/fyP08fug8Ts+h0CJZxVec2GwTTfd1EaOHGnnn39+GJqjNoiACIhAQROQgFXQw6fGi0B8AsqBFZ+RjhCBXBAIemBRufX++++3WrVqxb20F7BY1FGinmpaMhEQgewQ8JWREbFiGRX0zjzzTCMk7bzzzrMrr7zSqMpMSDtG2BjiSjBkDMEKYYXQNTx1OJ5qfosXL3YhZoTj8feyZcucSFMqRi4thETSHCBK9e3b1z788EPbaqut7MILL7T333/funXr5nDw7COFAF5zhDQOHDjQVYX09txzz7kQvvHjx9vBBx/snrHR7Oeffy4TCRHOEBrTCSWMN1ZUlHz99dezXvUwXjv0exEQAREoBgISsIphFNUHESiHgAQs3R4iEA4CQQ8skgePHTvWJUqOZ8EQQryv2rZtG+8j+r0IiEAWCfBexZuGinYXXXSR864hh5asMAhQgZBxQwjDIw7BKxFv2MLonVopAiIgAsVNQAJWcY+veicCbieXsIbZs2c7Ggoh1E0hAvkhkG4Sd7wTJGDlZ+x0VREIEuC7+PLLL9uRRx5pJDQnPHC33XYTpAIhgJcdYdwvvPCC2xC4/vrrJWAVyNipmSIgAiIgAUv3gAgUOQEJWEU+wOpewRCQgFUwQ6WGikBcAoSwIX6Q7wovya5du8b9jA4IBwEqK/br18/lP6tbt66rFkh4tkwEREAERCD8BCRghX+M1EIRSIsAyU5xj2eyhhWbBxZJb2+99VaXMFcmAmEmEAwh7NChg/tekhslnimEMB4h/V4E8kPgyy+/dO9U8ieNGzfO2rdvn5+G6KpJE8CDjudwpUqVjGdzgwYNkj6HPiACIiACIpB7AhKwcs9cVxSBnBIg8TM7w77SUrEJWOyekqh1//33zylXXUwEkiXgBSwSOI8aNcrlYEnEJGAlQknHiEDuCZCInUTi1157rXXu3NltpsgKgwAJ+Pv372+33XabDRkyxC6++GJXwVAmAiIgAiIQbgISsMI9PmqdCKRNoNhDCFu0aOHKkO+4445ps9IJRCCbBIIC1vDhw23AgAGuGlk8k4AVj5B+LwL5I/Dss89aly5dXAXC22+/3fbee+/8NUZXTorAiy++6CocUrmQ/ILy5E4Knw4WAREQgbwQkICVF+y6qAjkjkCxC1iUMicBayLV3HJHXVcSgfUJBEMI27RpYxMmTHCl4uOZBKx4hPR7Ecgfge+//94lBJ83b54NGzbM+vTpYxtvvHH+GqQrJ0WAIjezZs2y5557zkhJIBMBERABEQg3AQlY4R4ftU4E0iZQ7AJWzZo17aGHHrKDDjoobVY6gQhkk0BQwDruuOOc52CNGjXiXlICVlxEOkAE8kZg5cqVds0119ill17q3kOPPPKIbbfddnlrjy6cHAHCP6+44gpr3bq1y2OGN5ZMBERABEQgvAQkYIV3bNQyEcgIgWIXsKpXr2433nij/fe//02JV5UqVaxChQq22WabGQsRjMTalNlmIptIiFdKF9aHSo6AqhCW3JCrwyVC4KOPPrLmzZvbn3/+6XJiDRo0qER6XvjdnD9/vuER++6779obb7xhBxxwgN77hT+s6oEIiEARE5CAVcSDq66JAASKXcBCfGK3u3LlyikN+G677WabbLKJ7bLLLrZo0SJbu3atNWrUyN5//32XGJ7qUqVisGjSpIk98cQTdsopp9h3331nH374oZHstmrVqrbPPvvY119/nbJYWCocY/Uz6IHVqlUrl/BZHlilfleo/8VAgGTuM2bMcHnt2FThu73nnnsWQ9eKvg+rV6+2q666ynlhdezY0W2IMSeQiYAIiIAIhJOABKxwjotaJQIZI1DsAla6oHzVIf5GvMLwuvr3339Lbhd2++23N0Ssd955x+1C//7777Z48WJjccaEnkT55HvZeeed08Ve8J8ndPX444+3e++914499libNm2a/ec//3EiH+xWrVplFStWdD+bO3euOxYvwffee8/1vXHjxq56Zq1ateKyUAhhXEQ6QATyTgDvq06dOtmDDz5ohx9+uAsRrlOnTt7bpQbEJ0AY4QUXXGCEdpPMHY9smQiIgAiIQDgJSMAK57ioVSKQMQLFKGCtWLHCunbt6gQAmQjkgwDiFIUDfv75Z+ed9ssvvzjBCqFv0003LRNDK1Wq5EJTOearr74qayoC2DPPPGP169eP23wJWHER6QARyDsBNkCoate2bVvje//YY485L15Z+AmQMqBly5bO8/qee+5xSfllIiACIiAC4SQgASuc46JWiUDGCDCpZiJ90kknuXMeeOCBLs9DIRveUa+//rp99tlnOevGDTfc4PJkwJIwOsINhgwZYqNGjUqpDVQ9otz61KlTrXv37tazZ093HrycWrRoYbfcckvZefHoISzl6aefdj8jN9ehhx5qM2fOdCGissIigLcfoSokDE6keqYErMIaX7W2dAngYUl4MIII4YQXX3yxy7EoCz+BI444wlUiRMBq3759+BusFoqACIhAiRKQgFWiA69ulw4BBA6El0cffbRoBKx8jB7hdHjWECYCU0QkvG9I+J6KcR7vnbP55pvbTz/95E7DYgcvHvJOeeM4fs5nMEIcKdPu/x/v+q+++qoTLfv16xfv0Iz/HtGNPGIsDmLZ3XffbfXq1XOC3I8//uhKmmOwfe2118o+RmgH3kzLli2zpUuX2pw5c9zvTj75ZMMrr2HDhnb99dc77yc89K677jpbs2ZNxvuU7gkZPyqW9erVK6FTScBKCJMOEoG8E+B5c9ddd7kNiaOPPtp4tlEoRBZ+Ar/99psLAeddvHDhwpTf7eHvqVooAiIgAoVNQAJWYY+fWi8CcQkEQwjx/KDMN4KGrHQIIOjgtZYPTwCui5VXzZFjuDf5m7b6XGR8jrA8b/5c/phgzjL+zTW8YOXzmIV1lGlfouOBgEVVM/qPiEeIkkwERCCcBPieImCRyB0R/dxzz3XPN1n4CbDxgQBJUve+ffuWXB7M8I+QWigCIiACZhKwdBeIQJETCApYW2+9tUs6fdRRRxV5r9U9ESgeAhKwimcs1ZPSIIC3K2HnvHOnT5+uXFgFMuxU4D399NOd99WXX37pvKRlIiACIiAC4SIgAStc46HWiEDGCeCR0r9/fxs7dqw7dzHkwMo4JJ1QBEJMQCGEIR4cNU0EohAgFJoQYSoSTpo0yc4880wX9i0LN4E333zT5b+iKMcLL7xge+65Z7gbrNaJgAiIQAkSkIBVgoOuLpcWAcIZhg0bZpdffrkErNIaevW2SAhIwCqSgVQ3SorAww8/7MQQ8io98MADVrt27ZLqf6F2tkOHDs5TffDgwW7uJBMBERABEQgXAQlY4RoPtUYEMk4gGELIyeWBlXHEOqEIZJWABKys4tXJRSArBJ5//nk766yzbMmSJXbllVfawIEDs3IdnTSzBKgwzHidccYZNmHCBKtcuXJmL6CziYAIiIAIpEVAAlZa+PRhEQg/AQlY4R8jtVAEyiMgAUv3hwgUJoEhQ4bY6NGjrU+fPjZ8+HDlVCqQYSR0cP78+fbJJ5/YrrvuWiCtVjNFQAREoDQISMAqjXFWL0uYgASsEh58db0oCEjAKophVCdKkMCiRYvsxBNPtO+//95mzZqlnEoFcg88/fTT1rp1a5syZYqqvhbImKmZIiACpUNAAlbpjLV6WqIEELCOP/54mzlzpiOgEMISvRHU7YIlIAGrYIdODRcBwwtr/Pjx1qNHD/fvzTffXFRCToCwz3r16rnE+8uXL7eKFSuGvMVqngiIgAiUDgEJWKUz1uppiRIgifvEiRNdRSQJWCV6E6jbBU1AAlZBD58aX+IEfvrpJ+vXr5898sgj9swzz7hNpA022KDEqYS7+6tWrbLu3bu75PtDhw61AQMGhLvBap0IiIAIlBABCVglNNjqamkSwAPrtNNOs6lTp0rAKs1bQL0ucAISsAp8ANX8kidw6aWXusTg5513nl199dXKhVUAdwRe68yd6tata/fdd5/VqVOnAFqtJoqACIhA8ROQgFX8Y6weljgB5cAq8RtA3S94AhKwCn4I1YESJ/DBBx/YySefbHhE44m1zz77lDiR8HefuVP9+vVt6dKlduedd9qpp54a/karhSIgAiJQAgQkYJXAIKuLpU1AAlZpj796X/gEJGAV/hiqByIwePBgGzdunJ1//vk2bNgw5VUK+S2xZs0au+CCC1wKBv4eMWKEQj9DPmZqngiIQGkQkIBVGuOsXpYwgbVr19r06dNdIndsq622shYtWoSWSMuWLe2XX36x1157zU30DzroILv77rutSZMmbtK/cuVK22233VxOkbFjx9oRRxxh2267rftZNPvqq6/smmuuced677333C74d999Zx9++GGoOYR2gNSwnBOQgJVz5LqgCGScwA8//GANGjRw758ff/zRqlatmvFr6ISZJUD1SOYXu+66q33++edWoUKFzF5AZxMBERABEUiagASspJHpAyJQeAR+/fVX23LLLQui4dtss43hNfbzzz/bzjvv7NpNRaDq1avb/PnzjV1Rqjjxu6+//toJclQK2myzzaL2D8GL43baaSf7/fffbbvttrO//vrL/ZtrFYORp4Nks4iVGGIeeTsQ/6pUqWKfffaZTZgwwSWlZUIOy7///tvl9YBHrVq1rFWrVm6CzqKq2HN9bLjhhvaf//zHLSS5FzD6DBvuN74vhI5UqlTJVqzjTIXNAAAgAElEQVRY4f6/ww475O1WkYCVN/S6sAhkjADvrtGjR9vll19uzZs3t8mTJ7vnkCy8BP744w9r1KiRkYifjcD9998/vI1Vy0RABESgRAhIwCqRgVY3S5tAIQlYpT1SqfUe8Q6hxRslv/mDsIdYg1j122+/OTGLRRS7yIhdfIZ/b7TRRrbJJpu44zi+2EuG08c99tjD8M5D4MRYpCB0IlR9++23dthhhzkmeAPyfwStfNm8efPs5ZdfdpdHdGzbtm2+mqLrioAIpEHgo48+ct9fNgtuuukm69q1axpn00ezTYD35F133WWdOnWyY445xolYMhEQAREQgfwSkICVX/66ugjkhACJY1mse2MStvXWW7tFuzd2GvHiWbhwoTVs2NBuuOEGI+SB6km40OPxNGPGDDv66KOtdevW5bZ74MCBbtKH51Q+jVLYiDGRbv/wwMtr9erVzpsrmvF7L27gicNEFuGDc/E34g8/Q+TgOptuuqkTgBCI+JOo+fPxWZkIlEeA+04Clu4REShsArw/H3/8cVeNkNxKG2ywQWF3qMhbz1idcsopbl70/PPPq4JkkY+3uicCIhB+AhKwwj9GaqEIZJwAYgmTZjxvvCHGIOggvvBzRBmEHoQZFs784feIOXjzlGd8xn8+441P4oRPPPGE7b333k58CxqhY5988om988471rdv36hn/OKLL1zuLfp86KGHupDGHXfc0Yl5/Bk/frzj065dO7cYOfvss935+BznT9Rq167tRDTycxWSLViwwLGhQtOBBx7o7hM8mLh3tthiCxfuSd+mTp1q++23n7311luOVzRjjMgJw7lksQlIwNLdIQKFT4DNIkIH+T4vXrw45iZK4fe0OHrAfOess85y3lfk0+zdu3dxdEy9EAEREIECJSABq0AHTs0WARGITwDBBKEucocbsc7/iZWUld97wSX4ef9v/zsWIfybv/0547fs/47w5/P5q5L5bD6PJbQOsZNcYizG8HRD5IND5cqVXc6QatWqOaFw++23d+JUrD4iCP7555/uXIVob775pgsJOuOMM2I2/4QTTnBhiORsGzBggBM5b7vtNsNbEUPoI8QTURARkHAVcl/hJXnVVVc5wfSWW26xhx56yJ1DJgIiULgE7r33XuvYsaM1a9bMZs2aVbgdKYGW835/5ZVX3FhRibB///4l0Gt1UQREQATCS0ACVnjHRi0TAREQAREQAREQAREoMgII3lTQJUx97ty5rsqdLLwEFi1a5Aqj1KhRw/DsppqkTAREQAREID8EJGDlh7uuKgIiIAIiIAIiIAIiUKIE8MQkDxYJwidOnFj0xTMKeZgJ+xw+fLhLK4AXbOPGjQu5O2q7CIiACBQ0AQlYBT18arwIiIAIiIAIiIAIiEChEaA6cM2aNV3I9bRp01zlU1l4CRBG2KRJE2vVqpXzwpKJgAiIgAjkh4AErPxw11VFQAREQAREQAREQARKlACVbsmndNNNN7lqhFdeeWWJkiiMblO4hKItCI5PPfWUK1wiEwEREAERyD0BCVi5Z64rioAIiIAIiIAIiIAIlDgBimH4fEpz5sxxlVtl4SVAFcKxY8fakCFDrEePHuFtqFomAiIgAkVMQAJWEQ+uuiYCIiACIiACIiACIhBeApMmTXJiyLHHHmuPPfaYq+QqCyeBxYsX2/HHH28777yz3Xjjja4Cr0wEREAERCC3BCRg5Za3riYCIiACIiACIiACIiACjsD7779vp512mv355592++23W9OmTUUmpAS+/fZb69y5s73wwgtOwDrzzDOtQoUKIW2tmiUCIiACxUlAAlZxjqt6JQIiIAIiIAIiIAIiEHICCFfDhg2z0aNH2/nnn++q3W222WYhb3VpNm/NmjX26KOPWps2beyYY46xe+65x6pVq1aaMNRrERABEcgTAQlYeQKvy4qACIiACIiACIiACIjAF198YfXq1bNdd93VCSR77713xqH8/fffLn8TYXBBq1Onjp166qk2cuRI22STTaxLly5Wv379jF+/WE64ZMkSJzS+/vrrNmbMGGvfvn1ou0aOtSpVqshLLLQjpIaJgAikQkACVirU9BkREAEREAEREAEREAERyACBZcuW2cknn2zvvvuudevWzcaPH5+Bs657itdee82FvH355Zfr/GKLLbYwRKx58+a5ynqXXHKJXXzxxRm/fjGd8OGHH3YiFuIVid3DYozx8uXLy5qDGNqsWTNr3LixE0hlIiACIlAMBCRgFcMoqg8iIAIiIAIiIAIiIAIFSWDt2rX2ySefOPFq6623dsncM214Vk2ZMsX+/fffdU5NTidyb9GGrbbayp555hnbb7/9Mn35ojrfr7/+6vKWIRbdeuutoeA1c+ZM69u3ry1cuNAqV65szZs3txkzZrjxbtSokT355JPOG0smAiIgAoVOQAJWoY+g2i8CIiACIiACIiACIlDQBP755x8bOnSo3XLLLXbhhRda9+7dMyo4nHXWWc77avDgwbb55puXsdp9992deIZttNFG1qBBA+eJJYtN4I8//nAC1vTp050H1rnnnutEo3wYoaEIVdwzJJnv2rWrtW3b1mrWrOnCQZ999lnXrIMPPtheeeWVfDRR1xQBERCBjBKQgJVRnDqZCIiACIiACIiACIiACCRP4J133rETTjjBKlasaPfdd5/znMmUIWD9/PPPdtddd9mWW26ZqdOW5HlWr15t48aNc4IjoXkPPvig1a1bNy8svv/+ezv77LMNDyzCGgcMGGA77LCDa0u7du1c2zCqJSKSykRABESg0AlIwCr0EVT7RUAEREAEREAEREAECp7AqlWrXEhav379XL6qm266ySpVqpSRfknAygjGspOQxP2kk05y3mrZSryfSIvJl4ZX3emnn26jRo1aR5zE4+6oo45ynlmPP/64HXnkkYmcUseIgAiIQKgJSMAK9fCocSIgAiIgAiIgAiIgAqVCAC8sxKYNN9zQ5abaf//9M9J1CVgZwVh2ErywqNw4bNgwF0KIRxZjlkv75ptvrFevXk6cuvzyy+2yyy5b7/Lk6VqzZo1tt912OW9fLlnoWiIgAqVDQAJW6Yy1eioCIiACIiACIiACIhBiAiTdHjRokI0ZM8aFqFEVMBMWTcBC/Bg7dqxtvPHGmbhEyZ3j66+/to4dO7oqjpMnT865QEQOrtatW7vQwFgCVskNijosAiJQ9AQkYBX9EKuDIiACIiACIiACIiAChUJgyZIlLhH33LlznXdNixYt0m46AhZ5tUg2vsEGG7g/K1asKEvYTtLvF1980VVBlCVOgGTu06ZNswceeMCFFObSnnjiCZczDUPA6t+/v3HvkNjdW+3atV1ONcZbJgIiIALFQEACVjGMovogAiIgAiIgAiIgAiJQFARIzI0wMmfOHJeY+4orrrBq1aql3Le3337bOnXqZO+//74TM/r27Ws1atRw5/v888/ttttuc2Fm5Ei68847XbiZLDEC5Cq75557XHL89u3b50woWrt2rT3yyCN2yimnuIZSZRCxClHrr7/+Mn6PkNW5c2erWrWqE7iC1ScT652OEgEREIHwEZCAFb4xUYtEQAREQAREQAREQARKlABhhFSVw2uKinJ49+y+++4p0/jzzz9dpTq8ua6++mrr2bOnbbTRRu58iB1du3a1u+++26pXr+6OOeSQQ1K+Vql9EFGwTZs2LlH6a6+9ZnvssUdOEJCgHe+rjz/+uOx6iJMInRMnTrQ//vjDCZU//fST+/2HH35oe+65Z07apouIgAiIQDYJSMDKJl2dWwREQAREQAREQAREQARSIECS8CFDhjjBiVxVXnRK4VSuuuHKlSudWLXJJpuscwoELqrpYXvttZd98MEHqVyiJD+Dt9x5551nDz30kE2aNMmJjpmqHFkeUDznqDC4aNEidxh5zPC2Gj58uBMisZtvvtkuvfRSo42EEM6ePduaNm1akuOkTouACBQPAQlYxTOW6okIiIAIiIAIiIAIiECREMDLpkOHDkYluQcffNAaNmyYlZ5JwEoP69SpU61Lly5ufBindMI9E21JpIB1xhlnOJFzm222WecUhIT26NHDGGNCHAl3lImACIhAIROQgFXIo6e2i4AIiIAIiIAIiIAIFC2BCy64wIWEDR482Pr06WObbbZZSn0lLBHbcMMN1/s8YYQtW7a05557Th5YKdE1a9eunX3xxRcuFDMXYYRLly513nRPPfWUa3GsKoQLFy604447zoUQSsBKcXD1MREQgVARkIAVquFQY0RABERABERABERABETgfwiQ4wjhAW+sefPmWb169ZJG89tvv7nk7KtWrXIhbttuu+065yDhN+JV8+bNJWAlTfd/PoC4SMjeNddcY7169UrxLMl9LLIK4WWXXRb1BIMGDbJRo0bZ6aefLg+s5BDraBEQgRASkIAVwkFRk0RABERABERABERABEQA76grr7zSJV8nPK1Vq1ZWoUKFhMGQzPuGG26wESNGGF5YeHMRbhY0hC2SxC9YsEACVsJk1z2QJO7NmjVzOabGjBmTsqdcMpeXgJUMLR0rAiJQLAQkYBXLSKofIiACIiACIiACIiACRUdgwoQJrqJc3bp1XYjafvvtl3AfyZXUtm1be++991xycc5FvqagkeQbrywSfTdq1MhV05MlT+Dggw+2119/3WBep06d5E+Q5CcSEbDWrFlj/+///T+79tpr5YGVJF8dLgIiEE4CErDCOS5qlQiIgAiIgAiIgAiIgAjY4sWLrU2bNvbGG2+4XFiXXHKJVa5cOSEyVB4cPXq0XXHFFU4Au+WWW6xJkyZlnyV8kNCzYcOGWdWqVd3vuZYseQKEECIW8TcM06kamcjVgwIWoaGEL2699dbrfPTrr792XnuffvqpcmAlAlXHiIAIhJ6ABKzQD5EaKAIiIAIiIAIiIAIiUMoEbr/9dieOrFixwnn47LjjjgnjeOedd6xjx44unxYeWN26dSv7LInHTzrpJPe7Y445xqZMmbJejqyEL1TiBz777LPO222LLbawd9991/2dTeM+wJvu5Zdfdt51jz/+uLVo0WKdS5K8vXHjxkYoqZK4Z3M0dG4REIFcEZCAlSvSuo4IiIAIiIAIiIAIiIAIpEDgn3/+sZEjR7p8WCTjRohK1AuLy82dO9clGscjq2bNmmUt+O6771xy+D333NN69OhhPXv2TKF1+ggEfvjhB+vevbvNmDHDxo0bZ+ecc07Uqo+ZpEXIItUIP/roIydEkuusfv367hJ47vXu3duefPJJ22233eyuu+5KKvw0k+3UuURABEQgUwQkYGWKpM4jAiIgAiIgAiIgAiIgAlkiQBL3zp07W5UqVezhhx+2Qw45JOErESr46quvOi8dRKuvvvrK9t13XyewEOp27rnnWrVq1WzLLbdM+Jw6cH0CU6dOdYJSgwYNXNL9yIqPmWb2+++/G9559913n+Fp17JlS5dIHnvqqads9uzZLq/ZpEmTbI899sj05XU+ERABEcg5AQlYOUeuC4qACIiACIiACIiACIhAcgSodNehQwebM2eO88QaNGiQS7yerOGFhYi10047pfT5ZK9XasfXq1fPCM0kjBAhKxf25Zdf2qxZs9x9wdh6u+222+zQQw+1XXbZJRfN0DVEQAREIOsEJGBlHbEuIAIiIAIiIAIiIAIiIALpEyBR96WXXurCxUi4nkwYYfpX1xkSIYAH1p133umS51M9Mlf2119/2dKlS+3vv/8uu+Suu+6a9WTyueqfriMCIiACEJCApftABERABERABERABERABAqAwKpVq2zy5Mk2ZMgQFy5G6JgsXAQWLlzowjNXr17tku7LREAEREAEMkdAAlbmWOpMIiACIiACIiACIiACIpBVAoSnNWvWzAgpxOMm23mWstqZIjz5v//+65KpX3755S6R+vbbb1+EvVSXREAERCA/BCRg5Ye7rioCIiACIiACIiACIiACSRNAICH/1ZgxY+zMM8+0KVOmJH0OfSC7BK677jq78MILrUWLFjZ9+vTsXkxnFwEREIESIiABq4QGW10VAREQAREQAREQAREofAK//vqr1a1b10jIvtVWWyXdoe7du1u/fv2sQoUK632W6nX8/Oijjy77HXmVbr75Zmvfvr1Vr159vc9svPHGSbehmD/wxx9/2EEHHWSEE5KrrF27dut0l6qQCJHR+BczF/VNBERABNIlIAErXYL6vAiIgAiIgAiIgAiIgAjkmEDnzp3TyoFFjqZKlSqt1+o1a9a4n0WKKwguCFmIL/yOvytWrOgqGf7+++9KFh5BEgHrjTfesCpVqri8ZbDytmDBAnv55ZftjDPOyPFds+7laNN///tf22GHHfLaDl1cBERABBIlIAErUVI6TgREQAREQAREQAREQARCQgAB6dFHH025NeRpuuiii9YTsd555x0nSpGIPGjk3rr11lsN76ImTZrYkiVLrEuXLla1alVr3bq1+4zs/wjMmTPH2rZtaz/++GNoseA517NnT1cxMSiwhbbBapgIiEDJE5CAVfK3gACIgAiIgAiIgAiIgAiIgAhkmsC8efOcQJRPQ2isUaNGVA85xMfhw4e7cEeZCIiACBQCAQlYhTBKaqMIiIAIiIAIiIAIiIAIiIAIJEnghRdesAMPPNA22WSTJD+pw0VABEQgfAQkYIVvTNQiERABERABERABERABERABERABERABERCBAAEJWLodREAEREAEREAEREAEREAEREAEREAEREAEQk1AAlaoh0eNEwEREAEREAEREAEREAEREAEREAEREAERkICle0AEREAEREAEREAEREAEREAEREAEREAERCDUBCRghXp41DgREAEREAEREAEREAEREAEREAEREAEREAEJWLoHREAEREAEREAEREAEREAEREAEREAEREAEQk1AAlaoh0eNEwEREAEREAEREAEREAEREAEREAEREAERkICle0AEREAEREAEREAEREAEREAEREAEREAERCDUBCRghXp41DgREAEREAEREAEREAEREAEREAEREAEREAEJWLoHREAEREAEREAEREAEREAEREAEREAEREAEQk1AAlaoh0eNEwEREAEREAEREAEREAEREAEREAEREAERkICle0AEREAEREAEREAEREAEREAEREAEREAERCDUBCRghXp41DgREAEREAEREAEREAEREAEREAEREAEREAEJWLoHREAEREAEREAEREAEREAEREAEREAEREAEQk1AAlaoh0eNEwEREAEREAEREAEREAEREAEREAEREAERkICle0AEREAEREAEREAEREAEREAEREAEREAERCDUBCRghXp41DgREAEREAEREAEREAEREAEREAEREAEREAEJWLoHREAEREAEREAEREAEREAEREAEREAEREAEQk1AAlaoh0eNEwEREAEREAEREAGzH374wX799VfbZZddbMMNN0wbCedauHChbb755larVi3baKON0j6nTiACIiACIiACIiAC2SQgASubdHVuERABERABERABEcgAgZtuusnuuOMOO+ecc2ybbbaxJk2aWNWqVd2Z586da59//rntsccetmTJEtt0002tcuXKtvfee9vjjz++3tV33313mzVrlo0bN87q1KljY8eOtUaNGmWglTqFCIiACIiACIiACGSPgASs7LHVmUVABERABERABEQgIwSuueYamzBhgp133nlWo0YNa9WqlW255Zbu3PzsxhtvtJ49ezohqnr16k7Eatiwod19993rXX+//fZzwtbIkSNt4403tlGjRlmfPn0y0k6dRAREQAREQAREQASyRUACVrbI6rwiIAIiIAIiIAIikCECCFiPPPKIzZw504X9Bc0LWHhlPfjgg07gimcPP/ywtWnTxg444AC78847Da8smQiIgAiIgAiIgAiEmYAErDCPjtomAiIgAiIgAiIgAmaWiIDVv39/GzFihFWoUCEus/nz51v37t1t7dq1TvQiLFEmAiIgAiIgAiIgAmEmIAErzKOjtomACIiACIiACIhAOQLWG2+8YWeffbZ99tlnNmDAAOdVRYgg9uqrr9rzzz9vs2fPduGE/H6rrbYq43nhhRfa22+/nREB69NPP3XXefTRR+22226zHXfcUeMmAiIgAiIgAiIgAhklIAErozh1MhEQAREQAREQARHIPIFYHlgzZsywDh06uMqEt99+u61evdpat27tGsBnhg8fbn/88Yc1bdrUCUtUMcQ+/vhj69Kli0v2no4HFknj77//fps6dao752+//WaffPKJ7bbbbpmHoDOKgAiIgAiIgAiUNAEJWCU9/Oq8CIiACIiACIhA2An8/fffdtVVV9nTTz+9Tg6sn376yVUlfOmll6xKlSrOA6pWrVquO4QGzps3zyV132effZxIVbdu3bKuLl261M4991z79ddfUxawuMbgwYNdDq3vv//e/vrrL3d+vLEkYIX9rlL7REAEREAERKDwCEjAKrwxU4tFQAREQAREQARKiMDixYtdvqrff/99HQGLEMBNNtnEhRCeeuqp1rZtWxs4cKDLgfXnn39anTp13N94RzVr1mwdYnhunX766bb//vunLGBxwh9++MFWrlzpRCw8vn755RcJWCV0b6qrIiACIiACIpBLAhKwcklb1xIBERABERABERCBJAn8+++/dvXVV9sTTzxRJmBRjbBnz572wAMP2IEHHugqFA4dOtSJVYQJDhs2zC6//HLr1KmTXXfddetVLvRVCAktTCeE0HeFUMIjjzzSiVfywEpygHW4CIiACIiACIhAQgQkYCWESQeJgAiIgAiIgAiIQP4IBHNg4WF11113WfXq1V2+q4022sjWrFnj8l3dcMMNtsEGG7i8Vy1atLB77rnHNt100/UanmkBa/ny5c7Li/xXErDyd5/oyiIgAiIgAiJQzAQkYBXz6KpvIiACIiACIiACRUEgKGAhVi1YsMD23ntvl7zdGxUFTzzxRMMbipDD66+/3ipWrBi1/1999ZU7hnNlwgNLAlZR3GbqhAiIgAiIgAiEmoAErFAPjxonAiIgAiIgAiIgAv9TUZAwQUIHN9988/WQrFixwq699loXNvjPP//YFltsYd98803UY/kwx/Tr188+/PBDCVi6wURABERABERABAqCgASsghgmNVIEREAEREAERKCUCcQSsBCiqELYsWNHoyrh8ccf7xK3U5GQBO/Tpk2zBg0auDDDypUrlyHMZgjhrbfeameccYZVqlSplIdMfRcBERABERABEcgwAQlYGQaq04mACIiACIiACIhApglEE7DWrl3rPLJ69+5tVapUcTmwDj/8cFu9erXNmzfPjjrqKKtVq5bttNNOdthhh1nXrl1dsxCzEL06dOhgmUriHgwhfOyxx6xVq1buOjIREAEREAEREAERyBQBCViZIqnziIAIiIAIiIAIiECWCHgBa/r06c6zaunSpS5hOp5U3333nY0ePdqWLVvmvK+OOOIIFyJ4+umnG7muvvzyS6OSIT/D6tSp435HpcJsCFhK4p6lm0CnFQEREAEREIESJyABq8RvAHVfBERABERABEQg/AQQsO699147//zznSCFgFWtWjUbOHCgbb311vb777/bJZdcYpMnT7bTTjvNiVwDBgxwYYV4Y5HrasaMGa6jp5xyiu2yyy52zjnnSMAK/9CrhSIgAiIgAiIgAv9LQAKWbgUREAEREAEREAERCDGBn3/+2fr3729PPvmkNWnSxNq1a2cHHnigVa9e3TbddNOyliNiXXTRRfbOO+840Wrfffe1+++/3+rWrWsrV650YhaG8PXUU09ZmzZtJGCFeNzVNBEQAREQAREQgXUJSMDSHSECIiACIiACIiACISawePFi6969u/OyilWFMNh8PLTOPvtsI5SPJO6IXpGWzSTuCiEM8c2kpomACIiACIhAAROQgFXAg6emi4AIiIAIiIAIlAaBWFUIfe/fe+8922OPPaxixYruRx988IHxmSlTpkQFJAGrNO4b9VIEREAEREAEiomABKxiGk31RQREQAREQAREoCgJlCdg4ZVFiOFxxx3nQgo32GADO/nkk13oYKxKgBKwivI2UadEQAREQAREoKgJSMAq6uFV50RABERABERABIqBQHkCFt5WCxcutJdfftlmz55tv/76q22xxRa2ww47WPPmza1bt24uqXvQsilgIagdeeSRVqFChWJArz6IgAiIgAiIgAiEhIAErJAMhJohAiIgAiIgAiIgArEIxAsh5HO//fab/fLLL7ZgwQKXM+uzzz6znXfe2SVsr1+/flYFLCokXnDBBbZ8+XIbP368u/7GG2+sARUBERABERABERCBjBGQgJUxlDqRCIiACIiACIiACGSHQCICVvDKr732mrVs2dI233xzmzFjhu2zzz5ZFbBOOeUUlzAe69Gjh40ZM8Y222yz7MDQWUVABERABERABEqSgASskhx2dVoEREAEREAERKCQCCBgTZ482QYNGmSVK1eO2/S1a9e6KoRvv/22HXbYYVarVq11PvPGG2/YuHHjrGnTpvbggw/aNttsE/ec0Q746aef7JVXXrHhw4fbm2++6Q6pU6eOXXzxxU7AOvXUU23DDTdM6dz6kAiIgAiIgAiIgAgECUjA0v0gAiIgAiIgAiIgAiEngIBFonbEK7ydXn/9dTvppJOch9XKlSvt8ccfd3mwMCoPTpw40RCpmjVrZp9//rl988036/Twn3/+sb/++ittAYuQxblz57q8W5wTQ7CinSSTb9WqlQSskN9bap4IiIAIiIAIFAoBCViFMlJqpwiIgAiIgAiIQMkSQMC677777Pbbb7eaNWvaH3/8YdWqVXPi0L///utyX61evdrx2WWXXey7776zFStWWNWqVW3VqlVlv/MASbTeq1cvO+2002zChAnuXDIREAEREAEREAERCDMBCfSRQzAAAAIbSURBVFhhHh21TQREQAREQAREQATM7K233nJJ2du2bWuVKlVKmwnneuyxx+zkk0+22rVrO28pmQiIgAiIgAiIgAiEmYAErDCPjtomAiIgAiIgAiIgAv9LgLxWmRSaMn0+DZQIiIAIiIAIiIAIZJOABKxs0tW5RUAEREAEREAEREAEREAEREAEREAEREAE0iYgAStthDqBCIiACIiACIiACIiACIiACIiACIiACIhANglIwMomXZ1bBERABERABERABERABERABERABERABEQgbQISsNJGqBOIgAiIgAiIgAiIgAiIgAiIgAiIgAiIgAhkk4AErGzS1blFQAREQAREQAREQAREQAREQAREQAREQATSJiABK22EOoEIiIAIiIAIiIAIiIAIiIAIiIAIiIAIiEA2CUjAyiZdnVsEREAEREAEREAEREAEREAEREAEREAERCBtAhKw0kaoE4iACIiACIiACIiACIiACIiACIiACIiACGSTgASsbNLVuUVABERABERABERABERABERABERABERABNImIAErbYQ6gQiIgAiIgAiIgAiIgAiIgAiIgAiIgAiIQDYJSMDKJl2dWwREQAREQAREQAREQAREQAREQAREQAREIG0CErDSRqgTiIAIiIAIiIAIiIAIiIAIiIAIiIAIiIAIZJOABKxs0tW5RUAEREAEREAEREAEREAEREAEREAEREAE0ibw/wH9gGo50XBPPAAAAABJRU5ErkJggg==;" vertex="1" parent="1">
          <mxGeometry x="1640" y="1180" width="650" height="384.04" as="geometry" />
        </mxCell>
      </root>
    </mxGraphModel>
  </diagram>
</mxfile>
